<?xml version="1.0" encoding="UTF-8" standalone="no"?>
<!-- Created with Inkscape (http://www.inkscape.org/) -->

<svg
   xmlns:dc="http://purl.org/dc/elements/1.1/"
   xmlns:cc="http://creativecommons.org/ns#"
   xmlns:rdf="http://www.w3.org/1999/02/22-rdf-syntax-ns#"
   xmlns:svg="http://www.w3.org/2000/svg"
   xmlns="http://www.w3.org/2000/svg"
   xmlns:sodipodi="http://sodipodi.sourceforge.net/DTD/sodipodi-0.dtd"
   xmlns:inkscape="http://www.inkscape.org/namespaces/inkscape"
   id="svg2995"
   version="1.1"
   inkscape:version="0.48.0 r9654"
   width="999"
   height="930"
   sodipodi:docname="logo-color.png">
  <metadata
     id="metadata3001">
    <rdf:RDF>
      <cc:Work
         rdf:about="">
        <dc:format>image/svg+xml</dc:format>
        <dc:type
           rdf:resource="http://purl.org/dc/dcmitype/StillImage" />
        <dc:title></dc:title>
      </cc:Work>
    </rdf:RDF>
  </metadata>
  <defs
     id="defs2999" />
  <sodipodi:namedview
     pagecolor="#ffffff"
     bordercolor="#666666"
     borderopacity="1"
     objecttolerance="10"
     gridtolerance="10"
     guidetolerance="10"
     inkscape:pageopacity="0"
     inkscape:pageshadow="2"
     inkscape:window-width="1920"
     inkscape:window-height="1057"
     id="namedview2997"
     showgrid="false"
     inkscape:zoom="0.62580645"
     inkscape:cx="993.76879"
     inkscape:cy="474.63259"
     inkscape:window-x="1432"
     inkscape:window-y="-8"
     inkscape:window-maximized="1"
     inkscape:current-layer="svg2995" />
  <g
     id="g3051"
     transform="translate(1.9896907,3.1958723)">
    <path
       style="fill:#fcfbfe"
       d="M 0,465 0,0 499.5,0 999,0 l 0,465 0,465 -499.5,0 L 0,930 0,465 z"
       id="path3055"
       inkscape:connector-curvature="0" />
    <path
       style="fill:#8a28f6"
       d="M 476,912.87769 C 378.47471,906.86038 287.17947,870.99335 212.86445,809.5 124.53424,736.40952 67.652043,632.90642 53.025922,518.65711 c -4.795612,-37.46005 -4.795612,-73.85417 0,-111.31422 C 70.12752,273.75684 145.17534,155.32333 258.31985,83.367036 325.16881,40.853233 398.58812,17.641865 481.10709,12.933288 c 77.89568,-4.4447698 164.53223,15.418408 235.2701,53.940425 77.70936,42.318507 138.33037,102.284137 181.02617,179.069097 45.62023,82.04429 64.49384,179.8989 52.58567,272.64265 -9.94612,77.46276 -39.03938,150.02603 -84.97375,211.93812 -73.74022,99.38989 -184.79123,164.12093 -307.90173,179.47428 -29.48573,3.67722 -54.05314,4.54946 -81.11355,2.87983 z M 630.51896,761.77822 c 1.66043,-0.87484 7.51043,-3.04156 13,-4.81492 5.48957,-1.77336 11.65924,-4.06997 13.71036,-5.10357 2.05113,-1.03361 7.3017,-3.00779 11.66794,-4.38709 4.36624,-1.37929 11.91304,-4.12667 16.77068,-6.10527 4.85763,-1.97861 13.10706,-5.08758 18.33206,-6.90883 5.225,-1.82124 13.1,-4.63854 17.5,-6.26066 4.4,-1.62211 9.8,-3.49188 12,-4.15503 2.2,-0.66315 6.7,-2.48176 10,-4.04137 3.3,-1.5596 9.15,-3.80266 13,-4.98459 3.85,-1.18193 9.475,-3.20472 12.5,-4.4951 12.73675,-5.43314 20.74319,-8.39689 24.5,-9.06921 5.857,-1.04816 7.07121,-1.93538 9.4918,-6.93563 1.20263,-2.48432 2.56351,-4.51695 3.02416,-4.51695 0.46066,0 1.47919,-1.2375 2.26341,-2.75 6.14055,-11.84311 8.88166,-16.57182 11.53812,-19.90449 1.68589,-2.11503 4.435,-6.46609 6.10913,-9.66902 3.09055,-5.9128 7.94236,-13.89418 13.82338,-22.7399 1.7875,-2.68861 3.25,-5.20535 3.25,-5.59276 0,-0.38742 1.73079,-3.43577 3.84619,-6.77411 5.83048,-9.20113 20.85533,-34.99313 25.78527,-44.26358 2.40615,-4.52462 5.4751,-9.84793 6.81989,-11.82959 1.34479,-1.98165 2.75308,-5.65699 3.12954,-8.16742 0.90022,-6.0031 -0.12685,-16.53044 -1.95828,-20.07202 -0.80184,-1.55061 -1.99307,-5.72579 -2.64716,-9.27819 -0.65409,-3.55241 -2.04115,-9.86456 -3.08235,-14.02702 C 873.85189,510.76945 873,506.24432 873,504.87607 c 0,-1.36825 -0.91222,-5.3876 -2.02716,-8.9319 -3.63059,-11.54134 -4.8605,-16.25362 -7.55447,-28.94417 -1.45943,-6.875 -3.5006,-15.76752 -4.53594,-19.76116 C 857.84709,443.24521 857,439.03658 857,437.88635 c 0,-1.15024 -1.35,-6.12082 -3,-11.04574 -1.65,-4.92492 -3.0131,-10.1663 -3.02912,-11.64751 -0.016,-1.4812 -0.92477,-5.8431 -2.01946,-9.6931 -1.09469,-3.85 -2.45137,-9.64929 -3.01483,-12.88731 -0.56347,-3.23801 -1.70886,-7.51301 -2.54532,-9.5 -1.37285,-3.26117 -5.05406,-18.56715 -7.60311,-31.61269 -0.53734,-2.75 -2.5142,-9.95 -4.39303,-16 -1.87883,-6.05 -3.68215,-12.41032 -4.0074,-14.13405 -0.59046,-3.12934 -1.59661,-4.12616 -43.88773,-43.4809 -4.95,-4.60631 -10.53816,-9.72735 -12.41813,-11.38008 -1.87998,-1.65273 -5.73682,-5.25497 -8.57078,-8.00497 -2.83395,-2.75 -7.77472,-7.25 -10.97947,-10 -3.20476,-2.75 -8.79791,-7.80861 -12.42923,-11.24136 -10.20401,-9.64604 -14.06241,-13.19587 -22.56314,-20.75864 -4.32748,-3.85 -10.20013,-9.1375 -13.05032,-11.75 -2.8502,-2.6125 -5.73385,-4.75 -6.40811,-4.75 -0.67426,0 -6.71381,-2.7 -13.42121,-6 -6.70741,-3.3 -12.95547,-6 -13.88459,-6 -0.92911,0 -5.5888,-2.05668 -10.35486,-4.5704 -4.76606,-2.51371 -12.24334,-5.88956 -16.61617,-7.50187 -4.37283,-1.61231 -8.6202,-3.60109 -9.43861,-4.4195 -0.81841,-0.81841 -4.04793,-2.20618 -7.1767,-3.08393 -3.12877,-0.87775 -8.16368,-3.07057 -11.18868,-4.87293 -3.025,-1.80236 -6.85,-3.59958 -8.5,-3.99383 -1.65,-0.39425 -7.5,-2.86677 -13,-5.4945 -5.5,-2.62773 -11.8,-5.35785 -14,-6.06693 -2.2,-0.70908 -8.275,-3.2849 -13.5,-5.72405 -5.225,-2.43914 -11.3,-5.27175 -13.5,-6.29469 -2.2,-1.02293 -6.475,-2.8221 -9.5,-3.99815 -3.025,-1.17605 -7.975,-3.43482 -11,-5.01949 -3.025,-1.58467 -8.2,-3.86839 -11.5,-5.07493 -3.3,-1.20654 -6.95052,-2.81035 -8.11227,-3.56402 -1.16174,-0.75367 -5.02691,-1.64248 -8.58926,-1.97514 -6.39882,-0.59753 -6.62759,-0.53085 -18.95477,5.52477 C 477.98092,125.24168 471.47101,128 470.37724,128 c -1.09378,0 -3.51353,1.125 -5.37724,2.5 -1.86371,1.375 -3.96838,2.5 -4.67704,2.5 -0.70866,0 -5.45874,1.97517 -10.55572,4.38928 -5.09698,2.4141 -11.8535,5.33232 -15.01449,6.48493 -3.16099,1.15262 -8.86496,3.63648 -12.6755,5.51969 -3.81053,1.88322 -7.97427,3.74005 -9.25275,4.1263 -2.54855,0.76995 -6.66251,2.499 -14.3245,6.02041 -2.75,1.26388 -9.95,4.39998 -16,6.96911 -6.05,2.56913 -13.33417,5.75545 -16.18705,7.08071 -2.85288,1.32527 -5.55288,2.40957 -6,2.40957 -0.44712,0 -4.41295,1.73019 -8.81295,3.84486 -8.17092,3.92701 -13.32104,6.22566 -35.77782,15.96871 -12.02949,5.21908 -13.3829,6.1043 -23.1095,15.11509 -13.10915,12.14442 -32.30694,29.46256 -40.23446,36.29511 -3.36698,2.90193 -13.94198,12.36569 -23.5,21.03058 C 183.72401,309.18921 174,318.77181 174,322.33454 c 0,1.53832 -0.52038,3.76927 -1.15639,4.95768 -0.63601,1.1884 -1.49366,3.52132 -1.90587,5.18425 -0.41222,1.66294 -1.97483,7.74853 -3.47248,13.52353 -1.49764,5.775 -3.52691,14.1 -4.50947,18.5 -0.98257,4.4 -2.7101,11.375 -3.83895,15.5 -1.12885,4.125 -2.57686,9.525 -3.2178,12 -0.64093,2.475 -1.50895,5.4 -1.92892,6.5 -0.76721,2.00948 -3.35011,12.12731 -6.89262,27 -1.04803,4.4 -2.61798,10.08133 -3.48878,12.62518 -0.8708,2.54385 -2.28254,8.39385 -3.1372,13 -0.85466,4.60615 -2.18562,10.17482 -2.95769,12.37482 -0.77206,2.2 -1.90535,6.7 -2.51842,10 -0.61306,3.3 -1.91021,7.8 -2.88255,10 -0.97233,2.2 -2.32581,7.375 -3.00771,11.5 -0.68191,4.125 -1.85656,9.3 -2.61034,11.5 -0.75377,2.2 -1.91439,7.375 -2.57914,11.5 -0.66475,4.125 -1.73107,8.175 -2.36959,9 -2.15348,2.78237 -4.84771,20.26074 -4.30099,27.90191 0.45674,6.38348 1.04029,8.02511 5.29164,14.88639 2.62806,4.24143 6.10527,10.4117 7.72713,13.7117 1.62187,3.3 3.55254,6.67955 4.29038,7.51011 0.73784,0.83055 3.24066,5.33055 5.56182,10 2.32116,4.66944 5.44172,10.28989 6.93458,12.48989 2.55897,3.77112 7.66282,12.66372 15.78343,27.5 1.95677,3.575 4.79965,8.525 6.31751,11 1.51785,2.475 4.20437,6.975 5.97003,10 8.64175,14.80538 10.68335,18.1584 16.22653,26.64958 6.61562,10.13399 8.35159,11.32205 22.45136,15.36524 4.00372,1.14809 8.72872,2.92819 10.5,3.95576 1.77127,1.02758 5.2455,2.39029 7.7205,3.02825 2.475,0.63795 6.75,2.20892 9.5,3.49104 2.75,1.28211 8.15,3.51245 12,4.95631 3.85,1.44386 8.43935,3.26582 10.19857,4.04881 1.75921,0.78298 6.03421,2.14902 9.5,3.03565 3.46578,0.88663 8.55143,2.85477 11.30143,4.37364 2.75,1.51887 9.05,4.00477 14,5.52423 4.95,1.51946 9.68227,3.36915 10.51615,4.11043 0.83389,0.74128 3.7385,1.84581 6.4547,2.45453 5.41717,1.21401 16.31436,5.17307 21.02915,7.6401 1.65,0.86337 5.475,2.38573 8.5,3.38302 3.025,0.99729 9.325,3.27704 14,5.0661 l 8.5,3.25285 66.93549,0.35105 c 36.81452,0.19308 67.15136,0.56693 67.41521,0.83078 0.26385,0.26385 28.64288,0.33837 63.06452,0.16561 54.88005,-0.27545 62.95644,-0.50994 65.60374,-1.90476 z M 478.5,727.88334 c -4.95,-0.48236 -20.1077,-0.99864 -33.68377,-1.14729 -13.57608,-0.14864 -25.01376,-0.60025 -25.41708,-1.00356 -0.98887,-0.98888 7.59136,-18.26062 11.48552,-23.11999 1.71343,-2.13813 3.11533,-4.42634 3.11533,-5.08491 0,-0.65856 2.30677,-4.98419 5.12615,-9.61249 2.81939,-4.62831 6.66885,-11.31109 8.55437,-14.85063 1.88551,-3.53954 4.77323,-8.42846 6.41714,-10.86428 1.64391,-2.43581 4.32925,-7.08391 5.96742,-10.32911 1.63816,-3.24519 4.63368,-8.48126 6.6567,-11.63571 2.02302,-3.15446 4.9987,-8.21037 6.61262,-11.23537 1.61391,-3.025 4.16233,-7.3 5.66315,-9.5 1.50082,-2.2 3.7395,-6.025 4.97485,-8.5 3.67488,-7.36254 7.44831,-12.9963 8.70607,-12.99821 1.55062,-0.002 10.15662,11.35821 12.06137,15.9219 0.82095,1.96697 2.90283,5.35021 4.6264,7.5183 1.72357,2.1681 5.01726,6.8931 7.31932,10.5 2.30206,3.60691 4.55678,7.00801 5.01049,7.55801 0.45371,0.55 3.41535,5.36567 6.58143,10.70149 3.16608,5.33581 6.24478,10.00325 6.84155,10.37207 0.59677,0.36883 1.71921,2.07816 2.49432,3.79852 0.7751,1.72035 3.65742,6.27792 6.40514,10.12792 2.74772,3.85 5.28135,7.9 5.63028,9 0.34893,1.1 2.68137,4.925 5.18319,8.5 C 562.42267,702.84679 565,706.75928 565,707.43552 c 0,0.355 0.83299,1.86474 1.85108,3.35497 6.32109,9.25247 9.14892,13.87896 9.14892,14.96817 0,0.91236 -2.98143,1.25265 -11.25,1.284 -29.7963,0.11299 -66.8152,0.73086 -71.75,1.19755 -3.025,0.28609 -9.55,0.12549 -14.5,-0.35687 z M 334,708.07367 c -5.775,-1.975 -12.075,-4.32861 -14,-5.23025 -1.925,-0.90163 -5.975,-2.42604 -9,-3.38756 -4.69045,-1.4909 -18.56252,-6.66686 -45.5,-16.97701 -5.40685,-2.06943 -10.61133,-3.96203 -24.5,-8.90935 -2.475,-0.88163 -5.59994,-2.45082 -6.9443,-3.4871 l -2.44431,-1.88413 2.55666,-3.34913 c 1.40616,-1.84203 5.20609,-6.29118 8.4443,-9.88701 3.23821,-3.59583 7.24169,-8.10046 8.89662,-10.01028 1.65493,-1.90982 4.51196,-4.54263 6.34896,-5.85069 1.837,-1.30806 4.1379,-3.69033 5.11312,-5.29395 C 265.0666,630.36135 298.78975,596 300.07605,596 c 1.43494,0 6.82258,10.05522 8.5729,16 0.89064,3.025 4.93399,13.78379 8.9852,23.90842 4.05122,10.12462 7.36585,18.86113 7.36585,19.41445 0,0.55333 1.50791,4.19454 3.35091,8.09159 1.843,3.89705 3.93937,9.55845 4.6586,12.58089 0.71923,3.02245 2.9597,9.09745 4.97882,13.5 3.48359,7.59574 7.77812,21.1684 6.91398,21.8513 -0.22127,0.17486 -5.12731,-1.29798 -10.90231,-3.27298 z m 318.51504,2.95067 c -0.33414,-0.54065 -0.0782,-1.97206 0.56875,-3.1809 0.64695,-1.20884 1.78736,-4.81739 2.53425,-8.01901 0.74688,-3.20161 3.16337,-9.41187 5.36997,-13.80058 2.20659,-4.3887 4.01199,-8.63951 4.01199,-9.44625 0,-0.80674 1.62963,-4.97923 3.6214,-9.2722 1.99177,-4.29297 5.74444,-13.8804 8.33926,-21.3054 4.64954,-13.30452 8.17877,-22.06119 10.07583,-25 1.21309,-1.87923 1.79588,-3.31474 5.98824,-14.75 2.05704,-5.61087 3.93871,-9.25 4.78285,-9.25 1.45118,0 15.52906,14.05176 37.69242,37.62249 7.15,7.60402 15.31939,16.0872 18.1542,18.8515 5.42386,5.28896 12.3458,14.0369 12.3458,15.60261 0,0.50787 -0.87344,0.9234 -1.94098,0.9234 -1.06754,0 -2.21166,0.43796 -2.54248,0.97324 -0.33082,0.53528 -2.04488,1.60272 -3.80902,2.37208 C 745.42375,678.70243 742.00689,680 740.18397,680 c -1.13626,0 -2.33995,0.44336 -2.67485,0.98524 -0.3349,0.54189 -6.3339,2.79018 -13.3311,4.99621 -6.9972,2.20604 -13.64541,4.65762 -14.7738,5.44798 -1.12839,0.79035 -8.31845,3.53178 -15.97792,6.09207 -7.65946,2.56028 -14.3538,5.06534 -14.8763,5.56678 -0.5225,0.50145 -1.7996,0.91172 -2.838,0.91172 -1.0384,0 -5.3359,1.50645 -9.55,3.34766 -9.18262,4.01205 -12.83203,4.99525 -13.64696,3.67668 z M 608.79642,703.25 c -0.83245,-0.9625 -3.62673,-5.27025 -6.2095,-9.57278 -2.58277,-4.30254 -6.83509,-10.82754 -9.44959,-14.5 -2.6145,-3.67247 -7.63302,-11.40222 -11.15226,-17.17722 -3.51924,-5.775 -7.6633,-12.3 -9.20903,-14.5 -5.42901,-7.72702 -11.41291,-17.05889 -14.74835,-23 -1.85267,-3.3 -4.58271,-7.575 -6.06676,-9.5 -2.34271,-3.03881 -14.69616,-22.90621 -21.83032,-35.10858 -1.49969,-2.5651 -2.02001,-4.40202 -1.41754,-5.00449 1.77066,-1.77066 127.93884,2.54383 131.07535,4.4823 1.87104,1.15637 1.4454,4.3673 -1.18676,8.9527 -1.31909,2.29794 -4.68146,10.96894 -7.47195,19.2689 -2.79048,8.29996 -6.37648,17.74996 -7.96888,21 -1.5924,3.25004 -4.11542,9.61699 -5.60671,14.14877 -1.49129,4.53177 -3.1538,8.51299 -3.69446,8.84714 -1.17788,0.72797 -2.45613,3.86819 -4.84938,11.91326 -3.34132,11.23206 -16.51408,41.5 -18.061,41.5 -0.35162,0 -1.3204,-0.7875 -2.15286,-1.75 z m -227.43644,-7 c -4.1461,-9.42307 -4.96909,-11.42304 -7.72583,-18.77476 C 372.18537,673.61162 371,669.87831 371,669.179 c 0,-0.69931 -1.53656,-4.55343 -3.41457,-8.5647 -1.87801,-4.01127 -4.75079,-11.52796 -6.38396,-16.70376 -1.63316,-5.1758 -4.14661,-11.72589 -5.58543,-14.55577 C 354.17722,626.5249 353,623.45781 353,622.53903 c 0,-0.91878 -0.51667,-2.63592 -1.14816,-3.81587 -0.63149,-1.17995 -2.92521,-6.88786 -5.09716,-12.68426 -5.30581,-14.15991 -8.26288,-21.94773 -9.66415,-25.45174 -0.64672,-1.6172 -0.78377,-3.29392 -0.3081,-3.76959 0.77918,-0.77918 43.30718,-2.11981 99.55343,-3.13828 17.5798,-0.31832 21.93584,-0.13482 22.34884,0.94143 0.28214,0.73524 -0.87148,3.58685 -2.5636,6.3369 -1.69212,2.75004 -3.78579,6.4721 -4.6526,8.27123 -1.55163,3.22056 -5.50777,10.14595 -8.49084,14.8636 -2.98056,4.71366 -3.9836,6.4796 -6.95062,12.23711 -1.65228,3.20625 -3.85093,7.03125 -4.88588,8.5 -1.03495,1.46874 -3.91632,6.57401 -6.40304,11.34504 -2.48673,4.77104 -5.62736,10.17104 -6.97919,12 -2.02008,2.7331 -9.67608,15.93557 -17.80947,30.71173 -4.77373,8.67258 -14.27745,23.05659 -15.25449,23.08788 -0.44276,0.0142 -1.94351,-2.56171 -3.33499,-5.72421 z M 224.63042,545.25588 c 0.28847,-38.35927 0.68145,-69.90109 0.8733,-70.09293 0.19184,-0.19185 1.07036,1.04652 1.95226,2.75193 0.8819,1.70541 4.7674,7.03473 8.63443,11.84293 3.86703,4.80821 8.21885,10.76719 9.67071,13.24219 1.45186,2.475 4.46205,6.92153 6.68931,9.88118 2.22726,2.95965 5.70285,7.90965 7.72353,11 2.02068,3.09035 5.50818,7.95507 7.75,10.81048 2.24182,2.85541 4.07604,5.51294 4.07604,5.90561 0,0.39267 1.2375,2.32971 2.75,4.30452 4.00742,5.23235 7.25,10.08836 7.25,10.85745 0,0.82393 -1.70783,2.72313 -10.80708,12.01806 -3.91825,4.00251 -7.50582,7.9594 -7.97236,8.79307 C 261.58228,579.49781 226.61095,615 225.36556,615 c -1.0058,0 -1.15394,-14.05369 -0.73514,-69.74412 z m 538.577,61.48553 c -4.56091,-4.53277 -9.06091,-9.36641 -10,-10.74141 -0.93908,-1.375 -5.53242,-6.38134 -10.20742,-11.12519 -4.675,-4.74385 -10.75,-11.17893 -13.5,-14.30017 -2.75,-3.12124 -6.70339,-7.4495 -8.78532,-9.61835 -3.43776,-3.58131 -3.66731,-4.15189 -2.5,-6.21429 1.51933,-2.68436 8.9458,-13.16803 13.50983,-19.07131 1.77347,-2.29388 4.8769,-6.64569 6.89649,-9.67069 2.0196,-3.025 6.30607,-8.96093 9.5255,-13.19096 3.21942,-4.23003 5.8535,-8.11939 5.8535,-8.64301 0,-0.52363 0.63985,-1.19759 1.42189,-1.49768 0.78203,-0.3001 2.66458,-2.71074 4.18344,-5.35699 1.51886,-2.64625 5.01647,-7.73636 7.77248,-11.31136 2.75601,-3.575 5.17293,-6.71197 5.37093,-6.97104 1.81863,-2.37953 2.21094,9.82722 2.13627,66.47104 -0.0464,35.2 -0.38943,65.09164 -0.76227,66.42586 -0.37285,1.33422 -1.11549,2.56786 -1.65032,2.74141 -0.53483,0.17356 -4.70408,-3.39308 -9.265,-7.92586 z m 47.48377,-57.39031 c 0.1503,-31.15689 0.51661,-56.89224 0.81404,-57.18966 0.29742,-0.29743 1.31792,0.50955 2.26777,1.79328 2.0829,2.81505 12.85639,22.78208 17.6166,32.64971 1.88497,3.90743 5.26844,10.8608 7.51881,15.45193 2.25038,4.59113 4.05732,9.04414 4.01544,9.89557 -0.0419,0.85144 -2.17938,5.21203 -4.75,9.6902 -6.64472,11.5755 -13.16414,22.69048 -16.82881,28.69151 -1.73523,2.8415 -4.55158,7.52886 -6.25855,10.41636 -1.70697,2.8875 -3.45571,5.25 -3.88607,5.25 -0.43037,0 -0.65952,-25.492 -0.50923,-56.6489 z M 183.2,599.8 c -0.66,-0.66 -1.2,-1.81642 -1.2,-2.56982 0,-0.75341 -1.28743,-3.25091 -2.86096,-5.55 -1.57353,-2.2991 -5.46122,-9.13018 -8.63932,-15.18018 -3.1781,-6.05 -7.03012,-12.61688 -8.56005,-14.59307 -4.56418,-5.89549 -6.11005,-10.56048 -4.93972,-14.90674 0.55376,-2.0565 2.01781,-5.02128 3.25344,-6.5884 C 161.48903,538.84467 164.75,533.13368 167.5,527.7207 182.7669,497.66997 185.38787,493 186.98665,493 c 0.72866,0 0.8801,9.95672 0.49049,32.25 -0.56335,32.23522 -1.35427,73.58485 -1.43458,75 -0.064,1.12815 -1.49018,0.90238 -2.84256,-0.45 z m 459.3,-57.52538 c -2.2,-0.14156 -29.16346,-1.40664 -59.91881,-2.81131 -30.75534,-1.40466 -56.27796,-2.7759 -56.71693,-3.0472 -0.43897,-0.2713 0.49349,-2.88065 2.07214,-5.79855 6.45484,-11.93087 9.62028,-17.39029 13.11394,-22.61756 2.02177,-3.025 5.09103,-8.2 6.82059,-11.5 3.40405,-6.49494 3.91357,-7.3725 8.84543,-15.23462 1.806,-2.87903 3.28364,-5.65701 3.28364,-6.17327 0,-0.51626 1.06987,-2.21069 2.37748,-3.76538 1.30761,-1.5547 3.25854,-4.40173 4.33539,-6.32673 1.07684,-1.925 3.20613,-5.74151 4.73175,-8.48114 1.52562,-2.73962 3.62469,-6.06281 4.66461,-7.38486 1.03992,-1.32204 1.89077,-2.94915 1.89077,-3.61579 0,-0.66664 2.485,-4.92469 5.52222,-9.46234 3.03722,-4.53765 7.02452,-11.01903 8.86066,-14.40307 6.40752,-11.80918 14.35897,-24.15489 15.73279,-24.42728 1.50457,-0.29833 1.76121,0.30009 7.81723,18.22763 2.22081,6.57424 4.8826,13.77424 5.9151,16 1.03249,2.22577 2.42275,5.84685 3.08947,8.04685 1.37982,4.5531 4.71298,13.78442 6.31872,17.5 3.54921,8.21261 9.70615,26.65939 9.7288,29.14845 0.008,0.90665 1.26913,4.05665 2.80195,7 1.53281,2.94335 4.94329,12.10155 7.57884,20.35155 2.63555,8.25 5.85146,17.83812 7.14646,21.30694 1.65959,4.44539 2.00527,6.41386 1.17116,6.66918 -1.8745,0.57379 -12.79151,1.08109 -17.1834,0.7985 z m -299.06995,-4.12168 c -1.06153,-0.19089 -2.31558,-0.71142 -2.78679,-1.15675 -0.86999,-0.82219 2.42767,-10.84184 4.77097,-14.49619 0.70536,-1.1 1.83788,-4.33036 2.51673,-7.17859 1.28045,-5.37241 4.43684,-13.53853 7.32316,-18.94633 0.91734,-1.71871 2.5627,-6.21871 3.65637,-10 2.7636,-9.55494 7.31783,-22.51119 10.98483,-31.25053 1.70209,-4.0565 4.04822,-10.5815 5.21361,-14.5 1.16539,-3.9185 2.91638,-8.24955 3.89107,-9.62455 0.97469,-1.375 2.75739,-5.875 3.96153,-10 1.908,-6.53613 3.56827,-11.23377 8.21718,-23.25 2.2966,-5.93613 3.1472,-4.68668 16.84942,24.75 1.7921,3.85 4.0939,8.19447 5.11512,9.65437 1.02121,1.4599 1.85675,3.22545 1.85675,3.92343 0,0.69799 1.75942,4.90352 3.90981,9.34563 2.1504,4.44211 6.4254,13.2645 9.5,19.6053 3.07461,6.3408 5.59019,11.91247 5.59019,12.38149 0,0.46903 1.96827,4.7311 4.37394,9.47128 2.40566,4.74017 5.5858,11.99137 7.06697,16.11376 1.48117,4.1224 3.23967,8.1724 3.90778,9 2.15805,2.67325 5.30982,9.33821 7.71643,16.31769 2.01502,5.84382 2.14191,6.94407 0.89204,7.73469 -0.80144,0.50695 -10.90716,0.95658 -22.45716,0.99916 -11.55,0.0426 -26.85,0.30224 -34,0.57699 -16.45379,0.63228 -55.51695,0.98823 -58.06995,0.52915 z M 303.48239,515.9445 c -0.37804,-1.19107 -2.12217,-3.80334 -3.87585,-5.80504 -1.75368,-2.00171 -3.84507,-4.59391 -4.64753,-5.76046 -0.80245,-1.16655 -4.72151,-6.40575 -8.70901,-11.64267 -3.9875,-5.23692 -7.25,-9.85771 -7.25,-10.26841 0,-0.41071 -2.39589,-3.72151 -5.32419,-7.35733 C 270.7475,471.47477 266.49744,465.575 264.23122,462 261.965,458.425 258.72528,453.7 257.03184,451.5 246.76001,438.15559 240,427.98595 240,425.87761 c 0,-2.08739 7.66849,-6.63307 17.5,-10.37353 3.85,-1.46476 8.125,-3.25316 9.5,-3.97422 1.375,-0.72106 4.525,-2.0155 7,-2.87653 2.475,-0.86103 7.425,-2.66495 11,-4.0087 3.575,-1.34375 11.45349,-4.24154 17.50776,-6.43953 6.05427,-2.19799 14.15427,-5.32884 18,-6.95744 3.84573,-1.6286 12.16724,-4.67211 18.49224,-6.76334 6.325,-2.09124 12.77932,-4.43889 14.34293,-5.21702 1.56361,-0.77812 3.10016,-1.15755 3.41454,-0.84316 0.97851,0.9785 -2.72169,12.67416 -6.32165,19.98157 -1.8897,3.83584 -3.43582,7.47536 -3.43582,8.08782 0,1.23732 -5.12523,16.42445 -9.95762,29.50647 -1.7269,4.675 -3.9675,10.975 -4.97911,14 -1.01161,3.025 -3.40255,8.875 -5.31321,13 -1.91065,4.125 -4.22632,10.5783 -5.14594,14.34067 -0.91961,3.76237 -2.95001,9.61237 -4.512,13 -2.81704,6.10957 -7.24519,16.96428 -9.63748,23.62433 -1.49473,4.16126 -3.03601,4.92934 -3.97225,1.9795 z M 690.64024,511.25 c -3.03614,-8.08565 -5.34824,-14.56402 -9.7254,-27.25 -1.80282,-5.225 -4.79623,-13.325 -6.652,-18 -1.85578,-4.675 -5.52855,-15.25 -8.16172,-23.5 -2.63318,-8.25 -5.75047,-16.87956 -6.92733,-19.1768 -1.17686,-2.29723 -3.04785,-7.47223 -4.15775,-11.5 -1.1099,-4.02776 -3.59256,-11.54694 -5.51702,-16.70928 -3.95648,-10.6132 -4.54183,-15.54826 -1.74902,-14.74597 12.77426,3.66964 16.25125,4.82506 16.6987,5.54904 0.29106,0.47096 2.11519,1.15382 4.05362,1.51747 1.93843,0.36365 6.5559,2.03311 10.26105,3.70991 3.70514,1.6768 9.128,3.68208 12.05078,4.45618 2.92279,0.7741 8.09779,2.8103 11.5,4.5249 3.40222,1.7146 10.46085,4.57341 15.68585,6.35292 5.225,1.7795 11.975,4.27064 15,5.53585 3.025,1.2652 7.075,2.91878 9,3.67461 1.925,0.75583 5.59132,2.48504 8.14738,3.8427 2.55606,1.35766 5.26843,2.46847 6.02749,2.46847 0.75907,0 2.37904,0.69967 3.59995,1.55483 2.13469,1.4952 2.15788,1.67738 0.6046,4.75 -1.59249,3.1502 -4.27369,6.93704 -15.36084,21.69517 -3.09893,4.125 -7.2768,10.2275 -9.28416,13.5611 -2.00735,3.33361 -5.46879,8.12766 -7.69208,10.65345 -2.22328,2.52579 -4.06572,4.9733 -4.09429,5.4389 -0.0515,0.83987 -8.07145,11.8288 -21.36304,29.27179 -3.80324,4.99112 -7.4764,9.07476 -8.16257,9.07476 -0.68618,0 -2.38816,-3.0375 -3.7822,-6.75 z m -198.4125,-3.5 c -2.53504,-3.11536 -7.08056,-11.7908 -8.6438,-16.49727 -0.94446,-2.8435 -2.87438,-6.87521 -4.28873,-8.95936 -1.41434,-2.08416 -3.64001,-6.62805 -4.94592,-10.09754 -1.30591,-3.46949 -4.36153,-10.22039 -6.79027,-15.002 -2.42873,-4.7816 -5.85245,-11.84383 -7.60825,-15.69383 -1.7558,-3.85 -4.65772,-10.15 -6.4487,-14 -10.61182,-22.8118 -20.53146,-44.76179 -22.49073,-49.76704 -1.2416,-3.17187 -2.65208,-6.01093 -3.1344,-6.30901 C 427.39462,371.12586 427,370.00852 427,368.94098 c 0,-1.61544 0.71281,-1.94248 4.25,-1.94992 2.3375,-0.005 11.45,-0.4439 20.25,-0.97551 20.17804,-1.21898 126.05078,-1.79771 127.15365,-0.69507 0.84269,0.84252 -4.79132,12.60164 -7.7519,16.17952 -0.91021,1.1 -3.67058,5.825 -6.13416,10.5 -2.46358,4.675 -6.16709,10.975 -8.23003,14 -2.06294,3.025 -5.06844,7.975 -6.6789,11 -1.61046,3.025 -3.92498,7.16719 -5.14338,9.20486 -11.59083,19.38462 -11.73339,19.61656 -14.31848,23.29514 -1.15953,1.65 -3.13265,5.01119 -4.38473,7.46932 -1.25207,2.45812 -3.05135,5.60812 -3.99841,7 -2.05596,3.02162 -12.90203,21.0941 -17.72263,29.53068 -4.39556,7.69271 -9.61245,15.44109 -10.41859,15.47421 -0.34515,0.0142 -1.08527,-0.53671 -1.6447,-1.22421 z M 741.41948,374.49565 c -2.70571,-1.37738 -8.96948,-3.9172 -13.91948,-5.64402 -4.95,-1.72682 -10.07319,-3.97487 -11.38486,-4.99565 C 714.80347,362.83519 713.10752,362 712.34636,362 c -2.22399,0 -15.11572,-4.72504 -17.55689,-6.43491 C 693.5605,354.70429 691.63024,354 690.5,354 c -1.13024,0 -2.98121,-0.64875 -4.11327,-1.44167 -2.01903,-1.41419 -8.95888,-4.36668 -16.88673,-7.18429 -8.7226,-3.10007 -25.49902,-10.90999 -25.48296,-11.86306 0.009,-0.55604 2.70938,-5.05158 6,-9.99009 3.29063,-4.93851 5.98296,-9.30063 5.98296,-9.69361 0,-0.77261 11.29662,-18.58873 17.96139,-28.32728 2.25842,-3.3 6.37356,-9.4875 9.14476,-13.75 2.77119,-4.2625 5.56848,-7.73095 6.21619,-7.70767 1.49647,0.0538 4.6662,4.96399 10.94684,16.95767 2.73614,5.225 6.74429,12.54528 8.90702,16.26729 2.16272,3.72201 5.77458,10.24701 8.02635,14.5 2.25177,4.25299 5.09453,9.31964 6.31725,11.25921 1.22271,1.93958 2.53488,4.94598 2.91594,6.6809 0.38105,1.73492 1.30909,3.66587 2.06232,4.29099 0.75323,0.62512 2.8436,3.91872 4.64527,7.3191 1.80168,3.40038 4.64397,8.71476 6.31622,11.80973 C 746.79597,366.70534 751,375.02951 751,375.9778 c 0,1.79703 -4.50937,1.09941 -9.58052,-1.48215 z M 251,374.96942 c 0,-0.56682 1.87314,-4.50432 4.16254,-8.75 2.2894,-4.24568 5.92189,-11.09442 8.07222,-15.21942 2.15032,-4.125 4.53982,-8.19677 5.30999,-9.04839 0.77017,-0.85161 3.64809,-6.08775 6.39537,-11.63587 2.74728,-5.54812 7.25878,-13.85134 10.02556,-18.45161 2.76677,-4.60027 5.03136,-8.74887 5.03241,-9.21911 0.001,-0.47023 1.28874,-2.76168 2.86152,-5.09211 1.57279,-2.33043 4.35117,-7.34569 6.17419,-11.14503 3.29859,-6.87455 13.2803,-22.86594 14.89609,-23.86455 1.05556,-0.65237 5.04448,4.50965 8.06081,10.43142 1.2536,2.46111 4.6363,7.86111 7.51713,12 2.88082,4.13889 6.3175,9.55025 7.63706,12.02525 1.31955,2.475 3.99311,6.975 5.94123,10 1.94812,3.025 4.23931,6.85 5.09155,8.5 3.08458,5.97202 4.37011,8.08124 7.07233,11.60387 4.33716,5.65395 3.84674,6.50345 -6.6157,11.45956 -5.15114,2.44011 -10.01114,4.43657 -10.8,4.43657 -0.78887,0 -1.8618,0.3948 -2.3843,0.87733 -0.5225,0.48253 -3.425,1.78943 -6.45,2.90423 -3.025,1.1148 -7.75,2.92782 -10.5,4.02894 -16.4799,6.59866 -21.13048,8.31834 -25.326,9.365 -2.5707,0.64131 -5.84001,2.02095 -7.26513,3.06586 -1.42512,1.04491 -4.57512,2.33924 -7,2.87628 -4.3706,0.96796 -13.52596,4.3553 -21.60401,7.99314 C 252.55939,376.24784 251,376.46021 251,374.96942 z M 427.95825,328.96619 C 426.32467,327.94761 426.16646,328.24467 433,319.5 c 2.475,-3.16718 4.95,-6.44836 5.5,-7.29151 0.55,-0.84314 1.58097,-2.24748 2.29104,-3.12074 0.71008,-0.87326 5.7433,-7.43775 11.18495,-14.58775 5.44165,-7.15 11.27318,-14.44971 12.95896,-16.22159 1.68578,-1.77187 3.06505,-3.52045 3.06505,-3.88572 0,-0.70271 11.51073,-15.1827 19.34322,-24.33292 2.56123,-2.99213 4.6711,-5.91713 4.68861,-6.5 0.0175,-0.58287 2.21541,-3.5206 4.88424,-6.52828 4.42323,-4.98484 5.0088,-5.33873 6.62044,-4.00119 1.89498,1.57269 8.37564,9.81729 12.46349,15.85586 1.375,2.03115 6.64134,8.91809 11.70298,15.30432 5.06163,6.38623 11.55335,15.07544 14.42602,19.30936 2.87268,4.23391 5.83127,7.93142 6.57465,8.21668 0.74337,0.28526 3.34914,3.50324 5.79059,7.15107 2.44145,3.64782 6.24919,9.10741 8.46164,12.13241 8.77239,11.99418 10.16003,14.28409 9.22346,15.22066 -1.02993,1.02993 -4.92127,1.16803 -60.17934,2.13568 -20.625,0.36117 -47.64379,0.85072 -60.04175,1.08789 -12.64263,0.24185 -23.18213,0.0319 -24,-0.47804 z m -40.74673,-25.52021 c -1.49133,-2.50471 -4.62402,-7.08336 -6.96152,-10.17479 -2.3375,-3.09142 -4.25,-5.98536 -4.25,-6.43096 0,-1.16316 -6.26385,-11.27427 -7.23731,-11.68248 -0.44889,-0.18823 -1.76279,-2.21323 -2.91978,-4.5 -1.15699,-2.28676 -4.74496,-8.24883 -7.97326,-13.24903 C 354.64134,252.40852 352,247.96738 352,247.53953 c 0,-0.42785 -1.6046,-3.41936 -3.56577,-6.6478 -1.96117,-3.22843 -3.32542,-6.25877 -3.03167,-6.73407 0.29376,-0.47531 4.03585,-1.18891 8.31577,-1.58578 17.99827,-1.66895 23.99839,-2.41157 27.78167,-3.43846 2.2,-0.59714 6.55821,-1.09644 9.6849,-1.10956 3.1267,-0.0131 6.93042,-0.4974 8.45272,-1.07618 1.5223,-0.57878 8.18909,-1.47868 14.8151,-1.99978 26.66745,-2.09725 35.98086,-2.93861 39.1871,-3.54011 4.52503,-0.8489 4.38304,0.78954 -0.6146,7.09221 -2.18059,2.75 -5.52621,7.25 -7.43472,10 -1.90851,2.75 -5.07027,7.025 -7.02614,9.5 -1.95587,2.475 -4.7751,6.3 -6.26496,8.5 -1.48986,2.2 -4.75422,6.41948 -7.25412,9.37662 -2.4999,2.95715 -7.02028,8.67839 -10.04528,12.71387 -5.00893,6.68213 -18.91599,24.72942 -21.61024,28.04375 -1.87956,2.31214 -3.35727,1.54957 -6.17824,-3.18826 z m 220.23031,0.50543 c -5.9491,-8.18725 -8.55277,-11.34082 -10.47471,-12.68699 C 595.8852,290.50661 595,289.46435 595,288.94828 c 0,-1.14713 -11.21921,-15.9317 -13.9981,-18.44656 -1.10104,-0.99643 -2.0019,-2.32393 -2.0019,-2.94999 0,-0.62606 -2.25,-3.79934 -5,-7.05173 -2.75,-3.25239 -5,-6.25476 -5,-6.67192 0,-0.41717 -1.32793,-2.27092 -2.95096,-4.11944 -1.62302,-1.84852 -4.66052,-5.83876 -6.75,-8.8672 -2.08947,-3.02844 -5.75794,-8.10026 -8.15216,-11.27073 -2.87165,-3.80269 -4.01632,-6.10127 -3.36349,-6.7541 1.20021,-1.20021 11.60298,-0.47761 46.71661,3.24504 5.5,0.5831 13.825,1.37554 18.5,1.76098 4.675,0.38544 9.48292,1.25803 10.68426,1.93909 1.20134,0.68105 4.35134,1.23305 7,1.22665 4.21295,-0.0102 27.26762,2.92691 28.142,3.58519 0.50182,0.3778 -6.6245,12.44449 -13.57626,22.98813 -3.4375,5.21361 -6.25,9.85255 -6.25,10.30876 0,0.45621 -1.30471,2.63057 -2.89935,4.83191 C 632.54186,277.61513 625,289.95871 625,290.87053 c 0,0.36637 -1.77454,2.81356 -3.94341,5.4382 -2.16888,2.62464 -4.90558,6.3289 -6.08156,8.23167 -1.17598,1.90278 -2.69012,3.4596 -3.36476,3.4596 -0.67464,0 -2.55044,-1.82187 -4.16844,-4.04859 z"
       id="path3053"
       inkscape:connector-curvature="0" />
  </g>
</svg>
