<?xml version="1.0" encoding="UTF-8" standalone="no"?>
<svg
   xmlns:dc="http://purl.org/dc/elements/1.1/"
   xmlns:cc="http://creativecommons.org/ns#"
   xmlns:rdf="http://www.w3.org/1999/02/22-rdf-syntax-ns#"
   xmlns:svg="http://www.w3.org/2000/svg"
   xmlns="http://www.w3.org/2000/svg"
   xmlns:sodipodi="http://sodipodi.sourceforge.net/DTD/sodipodi-0.dtd"
   xmlns:inkscape="http://www.inkscape.org/namespaces/inkscape"
   version="1.1"
   id="svg10"
   width="347"
   height="344"
   viewBox="0 0 347 344"
   sodipodi:docname="124551355_1603781339804596_5293130353641537105_n.svg"
   inkscape:export-filename="C:\Users\hp omen 15\Downloads\bitma2p.png"
   inkscape:export-xdpi="360.83505"
   inkscape:export-ydpi="360.83505"
   inkscape:version="1.0.1 (3bc2e813f5, 2020-09-07)">
  <metadata
     id="metadata16">
    <rdf:RDF>
      <cc:Work
         rdf:about="">
        <dc:format>image/svg+xml</dc:format>
        <dc:type
           rdf:resource="http://purl.org/dc/dcmitype/StillImage" />
        <dc:title></dc:title>
      </cc:Work>
    </rdf:RDF>
  </metadata>
  <defs
     id="defs14" />
  <sodipodi:namedview
     pagecolor="#ffffff"
     bordercolor="#666666"
     borderopacity="1"
     objecttolerance="10"
     gridtolerance="10"
     guidetolerance="10"
     inkscape:pageopacity="0"
     inkscape:pageshadow="2"
     inkscape:window-width="1704"
     inkscape:window-height="926"
     id="namedview12"
     showgrid="false"
     inkscape:zoom="0.58112799"
     inkscape:cx="309.56026"
     inkscape:cy="222.28764"
     inkscape:window-x="0"
     inkscape:window-y="0"
     inkscape:window-maximized="0"
     inkscape:current-layer="g18" />
  <g
     inkscape:groupmode="layer"
     inkscape:label="Image"
     id="g18">
    <g
       id="g286"
       transform="translate(156.55799,-8.7009211)">
      <path
         style="fill:#facf20;stroke-width:3.94037"
         d="m -110.23035,338.74268 h -14.96129 l -10.13374,-12.20419 -10.1337,-12.20414 v -9.87297 -9.87293 l 4.22936,-8.00826 4.22937,-8.00827 13.385,-5.66733 13.385,-5.66733 13.385005,5.66733 13.385002,5.66733 4.22937,8.00827 4.229358,8.00826 v 9.87293 9.87297 l -10.133698,12.20414 -10.133742,12.20419 z m 228.33771,0 H 104.45415 L 93.012361,327.14796 81.570545,315.55329 v -10.48244 -10.4824 l 4.22937,-8.00826 4.229356,-8.00827 13.384999,-5.66733 13.38501,-5.66733 13.385,5.66733 13.385,5.66733 4.22937,8.00827 4.22936,8.00826 v 9.87293 9.87297 l -10.1337,12.20414 -10.13374,12.20419 z M 136.8721,148.34547 h -2.95095 l -11.37802,-12.03481 -11.37803,-12.03481 6.40749,-24.656323 6.40752,-24.656322 -3.29174,-3.46563 -3.29177,-3.46562 -25.710209,5.17864 -25.710156,5.17865 -9.94899,-9.47147 -9.94898,-9.47147 1.11037,-5.765542 1.11033,-5.765505 54.800245,-15.064981 54.80026,-15.064941 6.61901,-0.168977 6.61905,-0.168978 2.03606,3.338496 2.03611,3.338496 -15.58164,58.648132 -15.58166,58.648175 -2.11165,3.46238 -2.11165,3.46241 z m -247.10245,-39.66608 h -14.18105 l -8.51929,-8.04302 -8.51932,-8.042975 -2.56685,-10.3638 -2.56684,-10.36376 3.51829,-10.35114 3.5183,-10.351142 14.65836,-7.268255 14.6584,-7.268254 14.658406,7.268254 14.658361,7.268255 3.5183,10.351142 3.518288,10.35114 -2.566838,10.36376 -2.56685,10.3638 -8.519323,8.042975 -8.519287,8.04302 z"
         id="path292" />
      <path
         id="path290"
         style="fill:#1e62eb;stroke-width:3.94037"
         d="m 42.192775,55.134174 -3.54687,5.771484 -3.54688,5.771488 -12.50781,48.388674 -12.51562,48.39062 -3.1796903,5.22071 -3.1875,5.22265 -2.38477,-2.41797 -2.38672,-2.41796 -15.0292897,-54.23829 -15.03125,-54.238281 -2.0332,-2.060547 -2.03321,-2.052734 -8.07422,4.376953 -8.07226,4.376955 -4.34961,8.24219 -4.35156,8.23632 4.9707,25.333994 4.96875,25.32617 -2.23242,2.26172 -2.23243,2.26172 -24.57226,-6.45313 -24.570315,-6.45312 -10.11524,7.65429 -10.10742,7.64649 v 7.4375 7.44531 l 51.574225,14.52539 51.58203,14.52539 4.54102,2.84375 4.54101,2.84375 -3.27929,3.19922 -3.27149,3.19922 -51.98047,14.20117 -51.970705,14.20899 h -1.84961 -1.84375 v 5.25195 5.26172 l 9.62695,9.16406 9.63281,9.17383 14.830085,-2.54102 14.83985,-2.54297 13.30273,-2.50976 13.31055,-2.50195 -2.5625,15.41015 -2.55274,15.41602 -2.42382,13.15625 -2.43165,13.15429 11.05469,11.68946 11.05664,11.6914 4.73243,-5.01172 4.73828,-5.01367 13.76953,-52.9375 13.7695297,-52.93554 2.24023,-2.26368 2.24024,-2.26953 2.10156,2.13086 2.10156,2.13867 14.1211003,53.06836 14.12109,53.06836 3.95312,5.11328 3.95118,5.10547 11.42968,-11.05468 11.4375,-11.0625 -1.92773,-11.9004 -1.91797,-11.90039 -2.875,-17.40039 -2.875,-17.39257 13.31055,2.50195 13.31055,2.50976 14.832026,2.54297 14.832029,2.54102 9.63281,-9.17383 9.63281,-9.16406 v -5.10547 -5.10547 l -16.63672,-4.40039 -16.634759,-4.40039 -37.187496,-10.02539 -37.18555,-10.02539 -3.35547,-3.21485 -3.35742,-3.20703 7.27148,-3.91211 7.26954,-3.91406 46.84961,-12.39453 46.849605,-12.39648 3.89843,-3.95118 3.90039,-3.95117 -11.94922,-12.11523 -11.95703,-12.10938 -24.548825,6.44532 -24.55664,6.44531 -2.23242,-2.26172 -2.22461,-2.26172 5.12305,-26.13281 5.12109,-26.130864 -12.36132,-12.48828 z" />
    </g>
  </g>
</svg>
