<?xml version="1.0" encoding="utf-8"?>
<!-- Generator: Adobe Illustrator 16.0.0, SVG Export Plug-In . SVG Version: 6.00 Build 0)  -->
<!DOCTYPE svg PUBLIC "-//W3C//DTD SVG 1.1//EN" "http://www.w3.org/Graphics/SVG/1.1/DTD/svg11.dtd">
<svg version="1.1" id="Layer_1" xmlns="http://www.w3.org/2000/svg" xmlns:xlink="http://www.w3.org/1999/xlink" x="0px" y="0px"
	 width="250px" height="250px" viewBox="0 0 250 250" enable-background="new 0 0 250 250" xml:space="preserve">
<g>
	<path fill="#EB88AC" d="M133.994,188.254c-0.752,0.967-1.307,1.92-2.078,2.725c-2.004-0.795-3.176-1.891-4.631-3.608
		c-1.459-1.722-3.293-3.015-5.316-3.99c-3.482-1.678-7.432-0.627-11.104-0.496c-3.465,0.13-6.559-1.805-9.902-2.444
		c-2.02-0.388-4.119,0.115-5.895,1.074c-1.99,1.077-3.529,2.872-4.912,4.791c-1.1,1.295-2.125,2.6-3.125,3.616
		c-0.199,0.199-0.262,0.418-0.238,0.623c-0.525-0.192-1.051-0.435-1.586-0.739c-0.367-0.207-0.725,0.379-0.393,0.629
		c1.568,1.174,3.154,1.771,4.777,2.028c-0.137,0.043-0.244,0.152-0.24,0.338c0.166,8.613,8.756,12.466,16.211,13.289
		c10.049,1.113,21.575-1.678,26.674-11.312c0.17-0.325,0.209-0.639,0.152-0.92c1.86-1.153,3.323-2.924,3.243-5.184
		C135.6,187.836,134.443,187.676,133.994,188.254z M119.143,201.818c-3.723,1.459-7.705,2.182-11.697,2.143
		c-7.592-0.074-15.65-2.996-17.295-11.203c-0.023-0.109-0.084-0.189-0.166-0.242c2.715,0.34,5.533-0.227,8.545-0.668
		c6.346-0.93,12.934,1.414,19.02,2.879c3.27,0.787,6.66,1.238,9.988,0.762C125.217,198.188,122.525,200.494,119.143,201.818z
		 M125.816,193.203c-4.14,0.338-8.256-0.811-12.236-1.75c-4.441-1.045-8.951-1.955-13.537-1.674
		c-4.074,0.246-7.734,1.879-11.551,1.215c1.461-1.527,2.742-3.209,4.141-4.793c1.354-1.533,2.816-2.646,4.502-3.588
		c0.246-0.055,0.498-0.105,0.756-0.137c2.693-0.343,5.406,1.047,7.873,1.942c2.02,0.733,3.979,0.937,6.111,0.856
		c4.27-0.161,7.52-0.971,11.314,1.597c2.305,1.558,4.139,4.603,6.792,5.457C128.68,192.902,127.215,193.088,125.816,193.203z"/>
	<path fill="#EB88AC" d="M95.439,159.268c0.055,0.097,0.115,0.189,0.186,0.277c0.23,0.291,0.508,0.498,0.811,0.646
		c0.469,0.336,0.949,0.549,1.396,0.522c0.676,1.935,1.869,3.601,3.916,4.509c2.672,1.186,6.268,0.573,8.652-0.97
		c1.49-0.969,3.188-2.573,4.203-4.385c0.209,0.397,0.545,0.684,1.064,0.707c1.188,0.053,1.883-0.955,2.393-1.898
		c0.85-1.563,1.182-3.34,1.326-5.092c0.104-1.209,0.17-3.908-1.227-4.449c-0.244-0.094-0.469-0.045-0.613,0.185
		c-0.531,0.828-0.109,2.283-0.078,3.205c0.041,1.264-0.189,2.521-0.527,3.733c-0.209,0.763-0.469,1.685-0.998,2.312
		c-0.016-0.027-0.031-0.055-0.045-0.084c-0.168-0.379-0.279-0.783-0.424-1.174c0.031-0.293,0.049-0.588,0.025-0.881
		c-0.064-0.861-1.207-0.961-1.664-0.386c-0.832,1.054-1.182,2.388-1.9,3.533c-0.926,1.474-2.307,2.603-3.846,3.369
		c-2.273,1.127-5.568,1.02-7.426-0.839c-2.947-2.946-1.949-9.038-1.496-12.696c0.65-5.261,1.818-10.442,2.785-15.647
		c0.725-3.873,1.674-8.232,0.781-12.151c-0.061-0.261-0.482-0.197-0.465,0.068c0.355,5.35-1.426,10.977-2.559,16.153
		c-1.256,5.742-2.639,11.547-2.66,17.457c-0.004,0.901,0.049,1.832,0.17,2.752c-0.283-0.137-0.662-0.205-0.906-0.319
		c-0.145-0.072-0.283-0.156-0.412-0.246c-0.006-0.072-0.02-0.144-0.023-0.213c-0.012-0.254-0.201-0.396-0.398-0.414
		c-0.018-0.05-0.039-0.101-0.057-0.148c-0.572-1.629-0.463-3.738-0.361-5.451c0.014-0.291-0.426-0.461-0.529-0.146
		c-0.689,2.105-0.932,4.162-0.258,6.318C94.422,157.893,94.867,158.619,95.439,159.268z M97.322,158.666
		c0.014,0.074,0.021,0.148,0.035,0.223c-0.213-0.063-0.426-0.143-0.639-0.268c-0.051-0.031-0.102-0.072-0.152-0.107
		C96.822,158.629,97.094,158.711,97.322,158.666z"/>
	<path fill="#EB88AC" d="M36.051,131.037c-0.053,0-0.047,0.078,0.004,0.078C36.106,131.115,36.102,131.037,36.051,131.037z"/>
	<path fill="#EB88AC" d="M177.029,141.801c1.236-1.807-0.121-4.387-1.232-5.848c-1.334-1.754-3.543-3.287-5.994-4.377
		c-0.482-0.281-0.979-0.545-1.492-0.764c0.058-0.386,0.115-0.771,0.172-1.152c0.142-0.975,0.326-1.943,0.334-2.932
		c0.007-0.427-0.569-0.767-0.893-0.404c-0.943,1.068-1.389,2.469-1.721,3.861c-0.395-0.063-0.791-0.093-1.186-0.082
		c-0.408-0.146-0.818-0.275-1.238-0.383c0.061-0.527,0.061-1.072,0.088-1.591c0.059-1.041,0.311-2.321-0.066-3.318
		c-0.168-0.438-0.723-0.459-1.012-0.144c-0.684,0.754-0.797,2.088-0.963,3.059c-0.09,0.521-0.189,1.051-0.248,1.578
		c-0.889-0.111-1.787-0.166-2.676-0.166c-0.039-0.475-0.119-0.951-0.176-1.356c-0.125-0.9-0.267-1.815-0.627-2.65
		c-0.222-0.51-1.138-0.459-1.146,0.162c-0.014,0.718-0.006,1.438-0.025,2.158c-0.02,0.569-0.1,1.184-0.109,1.782
		c-3.362,0.328-6.7,1.502-9.674,3.025c-0.396,0.199-0.803,0.418-1.215,0.646c-0.582,0.426-1.152,0.867-1.723,1.336
		c-1.676,1.373-3.408,2.742-4.92,4.299c-0.357,0.484-0.783,1.299-1.115,1.994c2.684-1.85,5.625-3.564,8.684-4.637
		c4.06-1.426,8.832-2.418,12.875-0.353c0.388,0.195,0.763,0.41,1.134,0.627c4.243,1.644,7.762,5.115,12.077,6.604
		C174.436,143.297,176.082,143.189,177.029,141.801z"/>
	<path fill="#EB88AC" d="M84.902,126.072c-0.178-2.78-1.762-5.404-3.652-7.394c-1.268-1.329-3.324-3.871-5.377-3.198
		c-0.643,0.209-1.199,1.062-0.719,1.706c0.387,0.524,0.887,0.666,1.451,0.968c0.809,0.43,1.516,1.057,2.203,1.659
		c2.143,1.88,3.525,4.291,5.186,6.578C84.25,126.742,84.932,126.514,84.902,126.072z"/>
	<path fill="#EB88AC" d="M144.564,123.987c1.237-0.432,2.541-0.322,3.764-0.718c0.861-0.282,1.057-1.438,0.121-1.803
		c-2.482-0.974-5.783,0.885-7.801,2.234c-2.42,1.619-4.484,3.805-5.746,6.442c-0.313,0.655,0.621,1.143,0.988,0.524
		c1.258-2.104,3.11-3.651,5.131-4.997C142.104,124.952,143.344,124.41,144.564,123.987z"/>
	<path fill="#EB88AC" d="M153.762,146.475c-1.156,1.226-1.779,2.896-2.359,4.455c-0.563,1.508-1.45,3.396-1.344,5.023
		c0.043,0.666,0.916,1.006,1.359,0.473c0.855-1.029,1.023-2.447,1.375-3.715c0.547-1.969,1.344-3.813,1.957-5.746
		C154.934,146.383,154.123,146.096,153.762,146.475z"/>
	<path fill="#EB88AC" d="M159.172,146.887c-1.264,1.859-2.299,3.813-3.256,5.844c-0.813,1.718-1.998,3.996-1.633,5.92
		c0.092,0.476,0.678,0.736,1.025,0.318c1.063-1.287,1.293-3.125,1.862-4.686c0.854-2.342,1.892-4.604,2.845-6.906
		C160.223,146.871,159.492,146.414,159.172,146.887z"/>
	<path fill="#EB88AC" d="M165.162,147.66c-0.826,2.025-1.615,4.033-2.313,6.109c-0.429,1.276-1.043,2.532-0.855,3.889
		c0.074,0.525,0.713,0.682,1.051,0.299c0.9-1.027,1.072-2.41,1.426-3.707c0.57-2.1,1.076-4.209,1.605-6.318
		C166.213,147.4,165.365,147.162,165.162,147.66z"/>
	<path fill="#EB88AC" d="M61.145,140.355c-0.172,1.053-0.396,2.112-0.705,3.137c-0.23,0.764-0.746,1.52-0.27,2.256
		c0.113,0.178,0.318,0.244,0.518,0.193c0.883-0.236,0.977-1.228,1.16-2.015c0.277-1.188,0.293-2.354,0.133-3.563
		C61.922,139.947,61.211,139.939,61.145,140.355z"/>
	<path fill="#EB88AC" d="M66.197,141.266c-0.68,0.974-1.338,1.935-1.705,3.076c-0.387,1.203-0.961,2.576-0.564,3.818
		c0.172,0.537,0.963,0.512,1.244,0.105c0.609-0.886,0.615-2.107,0.893-3.138c0.32-1.183,0.604-2.381,0.971-3.545
		C67.201,141.057,66.465,140.879,66.197,141.266z"/>
	<path fill="#EB88AC" d="M70.523,142.871c-0.752,1.492-1.201,3.045-1.635,4.65c-0.33,1.227-0.914,2.668-0.486,3.897
		c0.154,0.447,0.691,0.451,0.986,0.166c0.92-0.892,0.896-2.375,1.125-3.584c0.291-1.567,0.584-3.123,0.938-4.676
		C71.57,142.795,70.807,142.307,70.523,142.871z"/>
	<path fill="#EB88AC" d="M122.813,82.925c0.012,0,0.012-0.021,0-0.021C122.799,82.905,122.799,82.925,122.813,82.925z"/>
	<path fill="#EB88AC" d="M157.852,54.726c0.619,0.199,1.472-0.17,1.734-0.768c0.215-0.48,0.426-1.009,0.525-1.547
		c0.07-0.231,0.09-0.477,0.053-0.715c-0.012-0.237-0.059-0.475-0.145-0.706c-0.287-0.743-0.855-1.173-1.533-1.391
		c-0.295-0.323-0.637-0.587-1.047-0.797c-0.939-0.483-2.037-0.206-2.771,0.497c-0.771,0.741-0.81,2.002-0.358,2.908
		C154.986,53.569,156.48,54.287,157.852,54.726z"/>
	<path fill="#EB88AC" d="M166.932,46.657c0.361,0.026,0.701-0.167,0.924-0.447c0.82,0.073,1.648-0.035,2.517-0.322
		c1.112-0.37,2.123-1.534,1.731-2.746c-0.383-1.185-1.938-1.782-2.979-2.178c-0.539-0.204-1.179-0.466-1.845-0.702
		c-0.559-0.911-1.305-1.685-2.231-2.079c-1.467-0.626-3.063-0.13-4.028,1.113c-0.99,1.277-1.111,3.111-0.267,4.491
		C162.035,45.891,164.639,46.488,166.932,46.657z"/>
	<path fill="#EB88AC" d="M123.396,66.216c-0.463-0.228-1.029-0.338-1.613-0.336c-0.264-0.237-0.596-0.395-0.965-0.395
		c-0.32,0-0.623,0.087-0.881,0.239c-0.643,0-1.299,0.181-1.893,0.399c-1.379,0.512-2.586,1.48-3.443,2.668
		c-1.93,2.678-0.973,5.509,1.771,7.034c2.301,1.282,5.418,1.354,7.654-0.021c1.742-1.068,2.268-3.245,2.186-5.137
		C126.135,68.835,125.039,67.03,123.396,66.216z"/>
	<path fill="#EB88AC" d="M117.428,40.276c0.883,0.553,1.881,0.825,2.732,1.446c0.021,0.017,0.035,0.038,0.057,0.056
		c0.082,0.138,0.189,0.259,0.314,0.357c0.51,0.757,0.594,1.984,0.832,2.782c1.041,3.535,3.359,6.92,7.497,6.444
		c3.459-0.396,5.313-4.825,5.213-7.841c-0.084-2.655-1.268-4.91-2.836-6.95c-0.137-0.248-0.277-0.493-0.422-0.733
		c0-0.027,0-0.054,0.002-0.082c0.135-2.408,0.401-4.756-0.685-6.985c-0.889-1.827-3.028-2.388-4.775-1.668
		c-1.084,0.447-1.762,1.252-2.447,2.04c-1.277-0.264-2.594-0.273-3.77,0.037c-3.242,0.848-4.932,3.906-4.348,7.176
		C115.109,38.106,115.928,39.336,117.428,40.276z M126.805,29.211c-0.231,0.109-0.447,0.228-0.646,0.37
		c-0.15-0.045-0.308-0.063-0.461-0.049C126.076,29.296,126.459,29.152,126.805,29.211z"/>
	<path fill="#EB88AC" d="M141.477,50.508c0.646,0.372,1.371,0.623,2.26,0.656c1.146,0.042,2.365-0.406,3.394-1.134
		c0.979-0.084,1.873-0.983,1.826-1.916c0.229-0.386,0.416-0.787,0.528-1.198c1.295-4.678-8.387-6.909-10.899-7.436
		c-0.756-0.159-1.428,0.444-1.719,1.066c-1.144,2.434-1.316,5.454,0.432,7.666C138.398,49.609,139.883,50.312,141.477,50.508z
		 M139.541,43.072c0.104,0.024,0.213,0.055,0.316,0.079c-0.113,0.181-0.199,0.374-0.258,0.575c-0.045,0.012-0.093,0.025-0.136,0.043
		C139.477,43.541,139.498,43.31,139.541,43.072z"/>
	<path fill="#EB88AC" d="M80.938,47.143c1.52,0.636,3.297,0.948,4.736,0.021c0.182-0.119,0.328-0.289,0.441-0.482
		c1.779-0.849,3-2.799,3.674-4.59c0.064-0.18,0.191-0.581,0.305-1.074c0.152-0.309,0.283-0.631,0.365-0.957
		c0.34-1.348,0.102-2.537-0.867-3.545c-0.35-0.365-0.801-0.572-1.279-0.659c-0.145-0.043-0.297-0.062-0.441-0.044
		c-0.666-0.026-1.357,0.142-1.914,0.414c-1.074,0.523-1.828,1.488-2.32,2.594c-0.109,0.104-0.219,0.206-0.326,0.305
		c-0.402,0.371-0.809,0.768-1.189,1.185c-0.201,0.059-0.404,0.134-0.611,0.222c-0.279,0.118-0.541,0.269-0.795,0.433
		c-0.125,0.073-0.242,0.153-0.346,0.244c-0.049,0.035-0.1,0.064-0.146,0.101c-1.07,0.839-1.621,2.035-1.385,3.396
		C79.033,45.804,79.939,46.724,80.938,47.143z"/>
	<path fill="#EB88AC" d="M162.533,53.448c-0.291,3.052,2.012,5.221,4.5,6.462c2.35,1.169,5.842,2.648,8.463,2.373
		c0.186-0.018,0.523-0.198,0.803-0.442c0.682,0.271,1.295,0.612,1.791,1.07c1.592,1.477,0.594,5.092,1.129,7.026
		c1.268,4.559,9.186,5.732,11.756,1.72c1.305-2.037,0.625-4.461-0.125-6.569c-0.395-1.103-1.229-2.496-1.731-3.878
		c0.465-1.133,1.069-2.36,1.61-3.604c0.769-0.615,1.521-1.277,2.027-2.289c0.992-1.992,0.33-4.841-0.328-6.815
		c-0.674-2.011-1.936-4.077-3.955-4.937c-1.545-0.658-3.748-0.216-4.731,1.158c-1.789,0.163-3.671,0.837-5.158,1.329
		c-1.444,0.479-2.856,1.055-4.283,1.595c-0.051,0.019-0.1,0.031-0.147,0.048C169.01,46.24,163.164,46.819,162.533,53.448z"/>
	<path fill="#EB88AC" d="M130.979,58.441c-2.168,0.466-3.938,2.444-4.021,4.776c-0.131,3.745,3.321,5.749,6.728,6.121
		c0.268,0.644,0.6,1.252,1.028,1.785c1.339,1.675,3.562,1.908,5.474,1.166c0.623-0.243,1.344-0.577,2.078-0.984
		c2.967,1.755,6.442,2.661,9.717,1.048c3.432-1.693,4.959-5.601,4.971-9.231c0.01-3.282-1.889-6.843-5.236-7.701
		c-1.979-0.507-3.957-0.19-5.836,0.553c-1.123,0.441-2.195,1.059-3.205,1.718c-2.371-3.099-5.055-6.597-8.938-4.138
		C131.979,54.667,131.119,56.498,130.979,58.441z"/>
	<path fill="#EB88AC" d="M95.693,51.646c0.445,2.8,2.451,4.814,4.178,6.993c-0.115,1.224,0.244,2.591,0.557,3.612
		c0.787,2.547,2.252,5.069,4.176,6.922c1.383,1.337,3.262,2.317,5.215,1.746c2.428-0.711,3.492-3.546,4.129-5.719
		c0.588-2.015,0.004-4.287-0.102-6.324c-0.119-2.229,1.404-3.746,2.598-5.442c1.814-2.578,1.635-5.555-0.387-7.964
		c-3.43-4.095-10.234-3.891-14.75-2.121C97.984,44.65,95.098,47.869,95.693,51.646z"/>
	<path fill="#EB88AC" d="M125.725,23.515c0.055,0.268,0.213,0.519,0.449,0.662c1.49,0.904,3.328,1.451,5.045,0.875
		c1.846-0.623,2.734-2.315,3.012-4.143c0.092-0.619-0.252-1.332-0.932-1.434c-1.689-0.252-3.639-0.161-4.998,0.885
		c-0.922,0.038-1.816,0.371-2.621,0.801C124.67,21.698,124.875,23.046,125.725,23.515z"/>
	<path fill="#EB88AC" d="M103.896,40.082c0.416,0.093,0.898,0.123,1.32,0.141c0.438,0.02,0.848-0.205,1.133-0.537
		c0.133-0.012,0.262-0.028,0.389-0.054c0.572-0.114,1.045-0.399,1.463-0.789c0.748-0.702,0.887-1.825,0.514-2.738
		c-0.438-1.065-1.629-1.382-2.662-1.209c-0.549,0.092-1.082,0.404-1.525,0.729c-0.744,0.543-1.373,1.266-1.928,1.996
		c-0.367,0.484-0.338,1.388,0.123,1.811C103.078,39.758,103.428,39.976,103.896,40.082z"/>
	<path fill="#EB88AC" d="M90.717,56.746c-1.014,0.224-2.088,0.535-2.857,1.275c-0.352,0.338-0.592,0.757-0.723,1.204
		c-0.346,0.524-0.6,1.152-0.799,1.896c-0.314,1.173,0.898,2.146,1.959,2.078c1.346-0.084,2.475-0.305,3.375-1.363
		c0.6-0.706,0.873-1.804,1.201-2.652C93.387,57.853,92.068,56.447,90.717,56.746z"/>
	<path fill="#EB88AC" d="M95.234,60.261c-2.154,0-2.4,3.355-0.223,3.355C97.166,63.617,97.41,60.261,95.234,60.261z"/>
	<path fill="#EB88AC" d="M72.615,69.094l-0.004,0.005c0.332-0.063,0.635-0.186,0.906-0.368c0.09-0.06,0.178-0.125,0.262-0.198
		c0.473-0.418,0.771-1.015,0.818-1.645c0.012-0.148,0.006-0.293-0.01-0.438c-0.004-0.033-0.006-0.063-0.012-0.095
		c-0.035-0.245-0.104-0.486-0.215-0.721c-0.02-0.035-0.041-0.067-0.059-0.101c-0.018-0.03-0.033-0.059-0.051-0.086
		c-0.074-0.126-0.158-0.247-0.25-0.354c0,0,0-0.002-0.002-0.002c-0.059-0.068-0.127-0.132-0.193-0.193
		c-0.023-0.021-0.045-0.038-0.066-0.057c-0.063-0.054-0.127-0.102-0.193-0.15c-0.01-0.005-0.016-0.013-0.023-0.017
		c0,0.002,0,0.002,0,0.002c-0.35-0.24-0.766-0.404-1.168-0.404c-0.67,1.348-1.342,2.692-2.014,4.04
		c0.281,0.32,0.629,0.552,1.033,0.692C71.775,69.146,72.205,69.17,72.615,69.094z"/>
	<path fill="#EB88AC" d="M186.145,98.626c-0.108-0.708-0.219-1.32-0.106-2.051c0.053-0.326-0.412-0.543-0.567-0.211
		c-0.332,0.708-0.601,1.873-0.125,2.588C185.594,99.332,186.209,99.057,186.145,98.626z"/>
	<path fill="#EB88AC" d="M190.926,98.897c0.145-0.423,0.021-0.97,0.023-1.416c0.002-0.397,0.047-0.8,0.107-1.192
		c0.051-0.336-0.41-0.411-0.548-0.137c-0.229,0.467-0.307,0.972-0.373,1.482c-0.047,0.38-0.153,0.868-0.024,1.232
		C190.248,99.249,190.779,99.321,190.926,98.897z"/>
	<path fill="#EB88AC" d="M194.91,98.908c0.232,0.063,0.428-0.026,0.533-0.245c0.162-0.354-0.076-0.71-0.158-1.059
		c-0.09-0.388-0.107-0.783-0.232-1.164c-0.082-0.248-0.42-0.252-0.502-0.002C194.365,97.018,194.086,98.685,194.91,98.908z"/>
	<path fill="#EB88AC" d="M181.17,98.331c0.023,0.025,0.047,0.054,0.064,0.083c0.059,0.095,0.178,0.139,0.283,0.133
		c0.918-0.05,0.489-1.623,0.403-2.094c-0.039-0.21-0.377-0.211-0.416-0.004c-0.094,0.464-0.159,0.969-0.354,1.402
		C181.088,97.997,181.061,98.194,181.17,98.331z"/>
	<path fill="#EB88AC" d="M170.859,84.338c-0.105,0.405-0.144,0.804-0.178,1.223c-0.05,0.605,0.957,0.631,0.92,0.05
		c-0.031-0.424-0.07-0.834-0.175-1.248C171.359,84.087,170.934,84.039,170.859,84.338z"/>
	<path fill="#EB88AC" d="M175.16,84.243c-0.016-0.172-0.057-0.586,0.012-0.762c0.107-0.285-0.35-0.445-0.488-0.188
		c-0.094,0.178-0.229,0.297-0.291,0.506c-0.098,0.379-0.094,0.659-0.096,1.075c-0.006,0.39,0.318,0.64,0.682,0.595
		c0.414-0.052,0.271-0.634,0.217-0.891C175.176,84.468,175.174,84.354,175.16,84.243z"/>
	<path fill="#EB88AC" d="M179.408,83.146c-0.072,0.643-0.154,1.282-0.148,1.93c0,0.57,0.877,0.476,0.879-0.088
		c0.002-0.629-0.08-1.253-0.154-1.877C179.941,82.771,179.443,82.833,179.408,83.146z"/>
	<path fill="#EB88AC" d="M186.145,84.5c-0.004-0.024-0.018-0.048-0.024-0.072c-0.006-0.016-0.004-0.027-0.011-0.04
		c0.002,0.011,0.002,0.018,0.005,0.024c-0.013-0.032-0.023-0.067-0.039-0.1c-0.063-0.135-0.097-0.284-0.13-0.426
		c-0.075-0.343-0.129-0.688-0.17-1.037c-0.039-0.346-0.553-0.266-0.584,0.051c-0.059,0.649-0.112,1.252,0.095,1.882
		c0.155,0.464,0.823,0.246,0.86-0.167c0.004,0.016,0.006,0.008,0.006-0.021c0-0.009-0.002-0.021-0.002-0.028
		C186.15,84.546,186.15,84.532,186.145,84.5z"/>
	<path fill="#EB88AC" d="M191.563,83.367c-0.094,0.592-0.235,1.188-0.184,1.789c0.035,0.473,0.768,0.427,0.811-0.027
		c0.054-0.573-0.09-1.159-0.184-1.721C191.965,83.181,191.607,83.095,191.563,83.367z"/>
	<path fill="#EB88AC" d="M199.086,85.157c-0.178-0.243-0.205-0.513-0.252-0.808c-0.049-0.258-0.471-0.235-0.512,0.015
		c-0.064,0.38-0.139,0.823,0.094,1.163C198.693,85.938,199.373,85.549,199.086,85.157z"/>
	<path fill="#EB88AC" d="M204.557,85.033c-0.047-0.405-0.08-0.812-0.186-1.207c-0.076-0.292-0.467-0.186-0.527,0.05
		c-0.096,0.371-0.125,0.757-0.168,1.138C203.607,85.665,204.627,85.671,204.557,85.033z"/>
	<path fill="#EB88AC" d="M58.574,77.837c-0.039-0.192-0.35-0.231-0.4-0.023c-0.096,0.397-0.135,0.791-0.092,1.2
		c0.029,0.283,0.193,0.741,0.553,0.696c0.488-0.064,0.244-0.535,0.16-0.809C58.691,78.558,58.652,78.187,58.574,77.837z"/>
	<path fill="#EB88AC" d="M60.391,77.609c-0.102,0.476-0.174,0.996-0.08,1.475c0.025,0.112,0.107,0.22,0.221,0.253
		c0.736,0.216,0.406-1.44,0.352-1.755C60.83,77.284,60.443,77.353,60.391,77.609z"/>
	<path fill="#EB88AC" d="M64.748,83.085c-0.467,0.72-0.674,1.523-0.934,2.338c-0.16,0.506,0.625,0.796,0.771,0.288
		c0.127-0.436,0.209-0.881,0.307-1.325c0.086-0.384,0.094-0.81,0.209-1.186C65.172,82.978,64.852,82.923,64.748,83.085z"/>
	<path fill="#EB88AC" d="M68.607,83.337c-0.186,0.524-0.26,1.068-0.361,1.616c-0.084,0.444-0.309,0.957-0.066,1.371
		c0.076,0.128,0.258,0.214,0.398,0.123c0.465-0.294,0.439-0.873,0.502-1.378c0.063-0.525,0.137-1.047,0.201-1.57
		C69.336,83.056,68.758,82.913,68.607,83.337z"/>
	<path fill="#EB88AC" d="M67.43,88.893c-0.111,0.64-0.156,1.299-0.137,1.949c0.004,0.134,0.092,0.271,0.215,0.327
		c0.152,0.074,0.238,0.062,0.387-0.015c0.133-0.066,0.18-0.221,0.184-0.354c0.016-0.637-0.023-1.292-0.141-1.92
		C67.893,88.625,67.473,88.643,67.43,88.893z"/>
	<path fill="#EB88AC" d="M64.236,88.52c-0.486,0.486-0.469,1.198-0.473,1.845c0,0.513,0.793,0.445,0.795-0.063
		c0-0.308-0.002-0.613,0.004-0.919c0.006-0.146-0.021-0.422,0.07-0.545C64.807,88.6,64.439,88.318,64.236,88.52z"/>
	<path fill="#EB88AC" d="M70.938,86.469c-0.219,0.014-0.238,0.169-0.291,0.332c-0.076,0.235-0.066,0.51-0.078,0.755
		c-0.016,0.267-0.047,0.526-0.031,0.791c0.037,0.532,0.814,0.579,0.84,0.027c0.029-0.527-0.014-1.097-0.107-1.615
		C71.24,86.592,71.119,86.458,70.938,86.469z"/>
	<path fill="#EB88AC" d="M82.664,87.733c0.229-0.668,0.135-1.403,0.076-2.094c-0.018-0.24-0.395-0.194-0.412,0.032
		c-0.043,0.608-0.104,1.211-0.33,1.78C81.824,87.888,82.518,88.174,82.664,87.733z"/>
	<path fill="#EB88AC" d="M85.367,86.148c0.406-0.121,0.342-0.599,0.33-0.93c-0.016-0.523-0.076-1.043-0.119-1.567
		c-0.025-0.298-0.508-0.346-0.539-0.033C85.01,83.947,84.572,86.382,85.367,86.148z"/>
	<path fill="#EB88AC" d="M91.273,87.918c0.326-0.308,0.268-0.693,0.26-1.108c-0.01-0.53-0.004-1.046,0.076-1.573
		c0.043-0.29-0.363-0.466-0.5-0.179c-0.215,0.446-0.32,0.899-0.393,1.387c-0.076,0.504-0.189,1.104,0.211,1.481
		C91.014,88.007,91.189,87.998,91.273,87.918z"/>
	<path fill="#EB88AC" d="M95.301,89.357c0.213-0.267,0.184-0.583,0.223-0.912c0.059-0.48,0.195-0.947,0.326-1.41
		c0.078-0.292-0.332-0.479-0.445-0.184c-0.191,0.495-0.379,0.989-0.514,1.501c-0.092,0.344-0.178,0.69,0.043,0.989
		C95.021,89.462,95.207,89.473,95.301,89.357z"/>
	<path fill="#EB88AC" d="M88.461,90.115c0.023-0.572-0.051-1.141-0.104-1.711c-0.029-0.33-0.537-0.293-0.568,0.021
		c-0.057,0.566-0.131,1.139-0.102,1.708C87.711,90.633,88.445,90.611,88.461,90.115z"/>
	<path fill="#EB88AC" d="M83.928,90.76c0.266-0.621,0.143-1.198,0.109-1.845c-0.018-0.276-0.467-0.254-0.484,0.016
		c-0.031,0.507-0.146,1.077-0.311,1.562C83.096,90.939,83.74,91.197,83.928,90.76z"/>
	<path fill="#EB88AC" d="M129.281,93.533c0.318-0.253,0.359-0.561,0.414-0.956c0.082-0.613,0.117-1.231,0.209-1.846
		c0.041-0.286-0.42-0.432-0.547-0.168c-0.211,0.438-0.328,0.899-0.414,1.381c-0.074,0.429-0.31,0.959-0.172,1.386
		C128.832,93.52,129.096,93.677,129.281,93.533z"/>
	<path fill="#EB88AC" d="M133.113,93.189c0.244-0.329,0.156-0.691,0.131-1.084c-0.037-0.551-0.074-1.096-0.145-1.643
		c-0.027-0.226-0.398-0.318-0.435-0.052c-0.065,0.505-0.106,1.008-0.138,1.517c-0.024,0.396-0.159,0.886,0.093,1.227
		C132.732,93.305,132.984,93.359,133.113,93.189z"/>
	<path fill="#EB88AC" d="M138.27,94.676c0.101-0.692,0.105-1.445,0.365-2.102c0.113-0.287-0.291-0.453-0.432-0.189
		c-0.377,0.699-0.668,1.456-0.641,2.264C137.572,95.06,138.213,95.074,138.27,94.676z"/>
	<path fill="#EB88AC" d="M143.213,95.648c0.209-0.334,0.135-0.84,0.189-1.217c0.065-0.467,0.16-0.938,0.27-1.397
		c0.057-0.241-0.314-0.394-0.418-0.156c-0.203,0.466-0.361,0.933-0.496,1.422c-0.113,0.418-0.297,0.957-0.07,1.354
		C142.805,95.864,143.096,95.836,143.213,95.648z"/>
	<path fill="#EB88AC" d="M146.965,96.346c0.072-0.06,0.145-0.135,0.18-0.207c0.088-0.186,0.146-0.376,0.197-0.576
		c0.135-0.508,0.172-1.055,0.148-1.578c-0.014-0.345-0.502-0.322-0.527,0.012c-0.053,0.728-0.354,1.404-0.461,2.115
		C146.467,96.359,146.789,96.57,146.965,96.346z"/>
	<path fill="#EB88AC" d="M151.867,96.607c-0.025-0.428-0.027-0.853,0.109-1.264c0.075-0.235-0.252-0.484-0.402-0.24
		c-0.297,0.475-0.381,0.953-0.428,1.499C151.104,97.124,151.895,97.134,151.867,96.607z"/>
	<path fill="#EB88AC" d="M155.711,96.084c0.01,0.383-0.131,0.814,0.178,1.104c0.072,0.067,0.211,0.077,0.285,0.013
		c0.281-0.252,0.209-0.591,0.168-0.936c-0.045-0.401-0.152-0.788-0.334-1.148c-0.154-0.305-0.574-0.034-0.447,0.265
		C155.66,95.609,155.703,95.836,155.711,96.084z"/>
	<path fill="#EB88AC" d="M160.111,97.042c0.402-0.123,0.457-0.567,0.551-0.937c0.09-0.361,0.143-0.758,0.137-1.129
		c-0.004-0.262-0.438-0.281-0.459-0.02c-0.033,0.388-0.156,0.722-0.318,1.075c-0.133,0.285-0.336,0.53-0.217,0.848
		C159.844,96.988,159.998,97.078,160.111,97.042z"/>
	<path fill="#EB88AC" d="M141.037,85.041c-0.02-0.456-0.123-0.904-0.145-1.359c-0.015-0.262-0.404-0.298-0.416-0.024
		c-0.025,0.479-0.131,0.95-0.148,1.432C140.316,85.537,141.053,85.501,141.037,85.041z"/>
	<path fill="#EB88AC" d="M144.611,85.836c0.236-0.199,0.178-0.469,0.166-0.754c-0.019-0.483-0.07-0.96-0.123-1.44
		c-0.025-0.223-0.365-0.217-0.391,0.004c-0.048,0.407-0.091,0.814-0.111,1.228c-0.019,0.334-0.121,0.718,0.152,0.962
		C144.4,85.919,144.516,85.917,144.611,85.836z"/>
	<path fill="#EB88AC" d="M137.545,86.375c0.635-0.435,0.404-1.577,0.348-2.217c-0.024-0.248-0.428-0.297-0.453-0.031
		c-0.043,0.388-0.098,0.779-0.17,1.164c-0.063,0.322-0.194,0.657-0.076,0.979C137.248,86.412,137.422,86.46,137.545,86.375z"/>
	<path fill="#EB88AC" d="M115.631,211.762c-2.15-1.16-4.146-1.857-6.576-2.246c-1.938-0.309-5.074-0.66-6.367,1.096
		c-0.26,0.347-0.082,1,0.316,1.171c2.059,0.879,4.414-0.214,6.631-0.132c1.918,0.068,3.971,0.269,5.838,0.697
		C115.834,212.432,115.912,211.914,115.631,211.762z"/>
	<path fill="#EB88AC" d="M221.18,195.893c-1.369-3.758-5.641-8.42-10.051-7.797c-2.1,0.297-3.461,2.215-3.732,4.25
		c-0.184,0.566-0.16,1.092,0.015,1.547c0.146,0.933,0.545,1.81,1.254,2.469c0.688,0.642,1.504,0.979,2.274,1.058
		c0.224,0.097,0.449,0.183,0.672,0.252c0.541,0.168,1.037-0.133,1.339-0.562c0.135-0.188,0.235-0.377,0.312-0.565
		c0.424-0.64,0.407-1.588-0.402-2.771c-0.113-0.164-0.422-0.076-0.418,0.129c0.004,0.197-0.006,0.387-0.027,0.563
		c-0.443,0.232-0.967,0.344-1.406,0c-0.078-0.063-0.145-0.129-0.209-0.201c-0.117-0.039-0.238-0.078-0.352-0.125
		c-0.125-0.272-0.135-0.576,0.035-0.891c0.018-0.148,0.061-0.297,0.131-0.445c0.41-0.852,0.934-1.117,1.861-1.111
		c0.557,0.004,1.1,0.06,1.645,0.195c0.785,0.191,1.645,0.609,2.047,1.35c0.203,0.197,0.383,0.433,0.531,0.718
		c0.166,0.315,0.289,0.662,0.383,1.021c0.635,1.192,0.643,2.67-0.424,3.977c-1.961,2.412-4.883,3.219-7.908,2.574
		c-2.654-0.566-5.217-1.67-7.5-3.17c-4.104-2.138-7.029-5.84-8.58-10.433c-0.525-1.551-0.949-3.26-1.148-4.979
		c-1.369-6.27-0.848-13.069,1.17-18.807c4.063-11.545,12.593-20.94,17.894-31.887c4.076-8.412,5.713-17.875,5.871-27.295
		c1.862-1.414,2.94-4.147,3.139-6.273c0.054-0.545,0.05-1.082,0.011-1.609c0.063-1.03-0.17-1.969-0.638-2.806
		c-0.465-1.211-1.151-2.335-2-3.337c0.132-0.67-0.184-1.454-0.813-1.817c2.289-3.853,0.813-8.8-2.477-11.663
		c-0.221-0.3-0.469-0.582-0.725-0.857c-1.77-6.594-4.262-12.972-7.662-18.975c-5.377-9.495-12.613-17.914-20.721-25.175
		c-15.119-13.54-37.461-24.554-57.689-16.626c-0.697,0.117-1.391,0.237-2.078,0.355c-5.367,0.926-10.67,2.17-15.893,3.706
		c-6.316,1.856-12.512,4.183-18.449,7.033c-0.145,0.045-0.275,0.107-0.391,0.187c-3.635,1.76-7.17,3.72-10.574,5.893
		c-8.576,5.46-16.154,12.423-21.881,20.849c-2.842,4.183-5.082,8.657-6.783,13.326c-2.703,3.096-5.467,6.449-6.547,10.485
		c-0.559,2.085-0.473,5.706,1.207,7.496c-0.973,1.264-1.246,3.062-1.109,4.652c0.109,1.289,1.041,3.896,2.438,4.901
		c0.164,3.727,0.525,7.448,0.91,11.147c-4.963,3.729-9.102,8.682-12.029,13.946c-5.42,9.746-6.939,21.941-2.697,32.396
		c2.869,7.076,7.982,12.881,14.389,16.694c1.201,7.826,1.873,16.505-0.291,24.222c-0.574,2.045-1.809,4.336-3.512,5.971
		c-0.26,0.877-1.191,1.363-2.271,1.596c-0.643,0.295-1.326,0.494-2.041,0.559c-1.191,0.109-2.195-0.295-3.049-0.996
		c-0.844-0.338-1.656-0.805-2.367-1.381c0.096,0.152,0.191,0.31,0.297,0.459c-0.045-0.051-0.094-0.088-0.141-0.139
		c-0.156-0.174-0.297-0.363-0.424-0.563c-0.563-0.502-1.057-1.063-1.43-1.693c-1.113-1.875-1.002-4.135,0.791-5.531
		c0.311-0.244,0.672-0.389,1.055-0.455c0.045-0.061,0.09-0.123,0.139-0.184c0.764-0.145,1.559-0.127,2.334,0.109
		c1.748,0.528,2.203,2.119,2.104,3.694c-0.402-0.19-0.637-0.53-0.961-1.196c-0.559-1.142-2.311-1.074-2.518,0.291
		c-0.395,2.596,2.287,3.867,4.457,3.926c0.824,0.021,1.379-0.4,1.57-1.203c0.813-3.422-0.428-6.838-3.955-7.947
		c-1.309-0.41-2.58-0.324-3.688,0.123c-2.045-0.336-4.07,0.557-5.521,3.258c-2.664,4.957-1.18,11.904,2.838,15.643
		c5.213,4.851,13.857,5.552,20.396,3.521c5.732-1.78,12.229-6.7,13.543-12.92c6.588,14.185,16.396,26.812,30.105,34.035
		c18.293,9.639,38.943,3.502,54.802-8.054c0.576-0.243,1.146-0.512,1.709-0.793c2.224-1.948,4.511-3.815,6.763-5.733
		c2.715-2.313,5.403-4.778,7.806-7.479c0.518,2.25,2.213,4.201,3.948,5.912c3.035,2.989,6.562,5.399,10.642,6.694
		c3.414,1.086,7.254,0.979,10.662-0.049c1.934-0.584,4.352-1.412,6.399-2.656c2.42-0.055,5.33-0.584,7.367-1.971
		c2.051-0.31,4.063-0.933,5.942-1.933c2.441-1.297,4.316-3.047,5.746-5.086c0.754-1.492,1.373-3.063,1.775-4.686
		C221.172,203.572,222.594,199.783,221.18,195.893z M207,204.553c-3.49,0.398-6.961-0.158-10.191-1.684
		c-6.371-3.01-9.924-8.965-12.135-15.35c2.234,5.043,5.418,9.233,10.072,12.342C198.209,202.174,202.635,203.809,207,204.553z
		 M196.385,199.918c-0.273-0.135-0.553-0.271-0.832-0.422c-3.549-1.912-6.264-4.924-8.336-8.332
		C189.869,194.592,193.094,197.59,196.385,199.918z M189.898,163.906c-2.722,7.738-2.5,16.566,0.518,24.25
		c0.006,0.291,0.027,0.584,0.063,0.883c-1.047-2.176-2.051-4.357-2.733-6.725c-1.158-4.021-1.248-8.271-0.474-12.359
		c1.066-5.664,3.851-10.676,6.953-15.469C192.555,157.506,191.055,160.615,189.898,163.906z M208.982,115.778
		c-0.976,4.21-1.982,8.416-3.273,12.544c-2.504,8.004-6.305,15.156-10.588,22.34c-3.975,6.66-8.016,12.754-9.156,20.607
		c-0.76,5.233,0.227,11.1,2.504,16.155c-0.613-0.991-1.188-2.004-1.723-3.014c-2.836-5.365-3.273-10.754-1.457-16.531
		c1.674-5.323,4.59-10.313,7.055-15.301c2.654-5.373,5.258-10.771,7.631-16.274c4.275-9.943,8.633-21.009,8.053-32.031
		c0.216,0.021,0.431,0.025,0.646,0.036c0.115,0.112,0.291,0.146,0.436,0.025c0.451,0.013,0.898,0.009,1.351-0.014
		C210.609,108.181,209.855,112.021,208.982,115.778z M141.697,166.598c-2.336-2.309-4.262-5.188-5.512-7.35
		c-0.75-1.301-1.453-2.621-2.105-3.961c4.809,8.18,12.443,15,21.867,17.037c6.377,1.381,12.074-0.287,16.908-3.59
		c-3.004,2.711-6.621,4.754-10.67,5.373c-5.894,0.897-12.142-0.563-16.92-4.181C144.029,168.994,142.805,167.863,141.697,166.598z
		 M144.186,169.748c-0.102-0.023-0.201-0.045-0.303-0.07c-0.182-0.188-0.359-0.383-0.527-0.59c-0.121-0.146-0.276-0.133-0.395-0.047
		c-0.377-0.379-0.74-0.76-1.096-1.154c-0.174-0.191-0.338-0.393-0.504-0.588c0.781,0.742,1.611,1.432,2.469,2.084
		C143.945,169.504,144.066,169.625,144.186,169.748z M171.523,168.549c-3.99,2.586-8.732,3.652-13.441,3.305
		c-11.09-0.813-20.428-9.797-25.24-19.26c-2.188-5.045-3.752-10.33-4.857-15.754c-0.957-4.695-1.879-10.158-0.02-14.765
		c2.078-5.137,7.029-8.253,12.041-10.182c3.652-1.405,7.549-2.262,11.455-2.295c4.188-0.419,8.477,0.093,12.799,1.929
		c3.523,1.498,6.637,3.675,9.303,6.315c0.125,0.256,0.271,0.499,0.451,0.72c0.135,0.159,0.332,0.268,0.543,0.313
		c5.318,5.747,8.678,13.409,9.73,21.083c0.705,5.17,0.32,10.531-1.158,15.537C179.76,160.381,176.633,165.229,171.523,168.549z
		 M125.338,114.975c-0.758-0.052-1.502-0.118-2.248-0.168c-1.08-0.67-2.197-1.234-3.053-1.71c-2.969-1.653-6.219-2.738-9.557-3.324
		c-5.289-0.928-11.381,0.152-15.518,3.724c-8.225-7.986-18.348-14.976-30.291-14.252c-1.783,0.108-3.525,0.396-5.225,0.83
		c-0.039-0.512-0.076-1.024-0.072-1.535c0.01-0.749,0.057-1.497,0.117-2.243c3.27,0.188,6.553,0.208,9.84,0.135
		c1.352,0.308,2.818,0.426,3.949,0.707c2.779,0.687,5.498,1.561,8.129,2.679c5.689,2.415,9.559,6.378,13.904,10.598
		c0.299,0.291,0.906-0.004,0.736-0.435c-2.117-5.428-7.379-9.261-12.391-11.817c-1.572-0.801-3.209-1.468-4.877-2.051
		c1.133-0.066,2.254-0.136,3.348-0.197c0.695-0.04,1.391-0.07,2.086-0.103c1.643-0.07,3.287-0.128,4.924-0.165
		c7.078-0.159,13.938,0.592,20.941,1.439c4.809,0.582,9.629,1.033,14.455,1.426c0.822,0.128,1.648,0.261,2.471,0.393
		c0.041,0.086,0.078,0.178,0.119,0.26c0.131,0.25,0.465,0.071,0.471-0.158c0-0.003,0-0.006,0-0.008
		c5.736,0.919,11.473,1.871,17.221,2.64c-2.539,0.876-5.016,1.974-7.401,3.155c-3.297,1.629-7.121,3.669-9.502,6.528
		c-0.285,0.344,0.125,0.934,0.547,0.798c3.383-1.102,6.549-3.148,9.774-4.641c3.298-1.522,6.724-2.77,10.242-3.65
		c0.857-0.214,1.726-0.395,2.597-0.551c2.676,0.045,5.274-0.238,7.836-0.246c0.866,0.048,1.735,0.096,2.604,0.126
		c1.18,0.232,2.34,0.553,3.467,0.991c0.801,1.565,1.58,3.142,2.283,4.758c-5.498-2.696-11.695-3.776-17.947-2.866
		c-7.334,1.071-14.086,4.603-20.244,8.84C127.834,114.915,126.598,115.063,125.338,114.975z M125.475,116.445
		c-0.066,0.007-0.133,0.014-0.195,0.02c-0.125-0.127-0.258-0.251-0.396-0.371c0.125,0.023,0.252,0.04,0.381,0.063
		c0.008,0.112,0.082,0.291,0.205,0.288C125.471,116.445,125.473,116.445,125.475,116.445z M96.982,117.962
		c-0.189,0.313-0.357,0.646-0.529,0.979c0.008-0.111,0.01-0.22,0.014-0.328C96.625,118.385,96.797,118.166,96.982,117.962z
		 M80.436,131.127c-1.879-3.164-4.602-5.722-7.635-7.758c-1.748-1.173-3.732-2.134-5.82-2.822c-0.678-1.186-1.094-2.51-1.512-3.805
		c-0.182-0.559-1.121-0.419-1.146,0.162c-0.047,1.047,0.074,2.046,0.344,3.007c-0.445-0.101-0.893-0.18-1.342-0.254
		c-0.781-0.399-1.768-0.574-2.773-0.635c-0.182-0.9-0.217-1.842-0.307-2.741c-0.029-0.333-0.566-0.491-0.691-0.129
		c-0.311,0.924-0.447,1.884-0.418,2.844c-0.064,0-0.123,0.004-0.188,0.006c-1.164-0.327-2.348-0.576-3.561-0.706
		c-0.08-0.57-0.113-1.152-0.143-1.722c-0.021-0.401-0.668-0.439-0.775-0.067c-0.162,0.571-0.23,1.138-0.236,1.7
		c-0.135-0.005-0.27-0.013-0.404-0.017c-0.539-0.015-1.082,0.036-1.605,0.137c0.191-4.016,0.631-8.01,1.402-11.947
		c1.533-0.849,3.129-1.582,4.783-2.175c11.703-4.196,22.582,1.764,31.197,9.436c1.326,2.153,2.197,4.61,2.799,7.039
		c0.754,3.026,1.014,6.308,1.01,9.474c-0.24,1.576-0.447,3.113-0.664,4.527c-1.023,6.699-2.295,13.75-5.188,19.883
		c-4.287,6.472-12.354,9.349-19.824,9.843c-3.688,0.243-7.42-0.298-10.996-1.398c-0.066-0.34-0.135-0.68-0.203-1.016
		c-1.381-6.695-2.506-13.447-3.279-20.238c-0.527-4.619-0.93-9.303-1.094-13.996c0.311-0.127,0.609-0.274,0.92-0.396
		c0.242,0.119,0.51,0.182,0.797,0.154c5.697-0.513,11.703-0.634,17.291,0.764c2.201,0.549,4.217,1.592,5.969,3.014
		c1.211,0.725,2.332,1.604,3.328,2.535c0.68,0.639,1.594,1.602,2.391,2.697C82.473,134.605,81.377,132.711,80.436,131.127z
		 M51.365,91.285c-0.686-0.138-1.369-0.277-2.055-0.423c-0.166-0.43-0.297-0.884-0.365-1.393c-0.213-1.64,0.326-3.491,1.102-4.933
		c0.045-0.091,0.025-0.183-0.027-0.251c0.701-0.288,1.422-0.535,2.148-0.764C50.816,85.857,50.262,88.948,51.365,91.285z
		 M51.451,103.392c-0.096,0.057-0.193,0.111-0.289,0.169c0.004-0.37,0.008-0.736,0.012-1.106
		C51.221,102.793,51.301,103.117,51.451,103.392z M50.449,91.628c-0.305-0.073-0.607-0.147-0.914-0.221
		c-0.043-0.103-0.088-0.206-0.131-0.309C49.727,91.298,50.076,91.472,50.449,91.628z M53.311,83.181
		c1.109-0.307,2.236-0.556,3.373-0.759c-1.35,2.713-2.113,7.137-0.383,9.784c-1.102-0.182-2.199-0.384-3.303-0.596
		c-0.514-0.895-0.926-1.812-1.074-2.942C51.68,86.792,52.449,84.852,53.311,83.181z M55.178,81.064
		c-0.955-1.16-1.715-2.45-2.041-3.933c-0.068-0.319-0.08-0.638-0.07-0.953c0.74-0.059,1.482-0.113,2.225-0.163
		c0.264,1.609,0.596,3.218,1.244,4.7C56.08,80.825,55.625,80.938,55.178,81.064z M63.99,77.429c0.201,0.488,0.916,0.18,0.752-0.312
		c-0.119-0.36-0.189-0.74-0.244-1.119c2.43,0.139,4.855,0.363,7.273,0.64c0.795,0.089,1.588,0.196,2.379,0.304
		c0.021,0.863,0.125,1.888,0.516,2.636c-1.688-0.098-3.404-0.153-5.127-0.165c-0.018-0.352-0.037-0.703-0.07-1.053
		c-0.025-0.31-0.51-0.339-0.545-0.022c-0.033,0.322-0.053,0.646-0.068,0.967c0,0.036,0,0.073-0.002,0.108
		c-3.768,0.014-7.564,0.292-11.178,1.052c-0.201-0.359-0.379-0.728-0.541-1.106c-0.072-1.038-0.125-2.074-0.146-3.114
		c-0.004-0.108-0.002-0.221,0-0.332c0.695-0.034,1.393-0.058,2.088-0.063c1.59-0.007,3.178,0.034,4.768,0.111
		C63.797,76.458,63.797,76.959,63.99,77.429z M70.662,72.926c0.393-0.206,0.799-0.25,1.109,0.124
		C71.402,73.008,71.029,72.967,70.662,72.926z M76.375,78.608c0.055,0.354,0.188,0.852,0.477,1.117
		c-0.393-0.029-0.789-0.058-1.184-0.084c-0.141-0.502-0.434-0.986-0.576-1.477c-0.105-0.366-0.168-0.745-0.211-1.127
		c0.523,0.076,1.045,0.158,1.564,0.24C76.33,77.707,76.305,78.145,76.375,78.608z M95.939,81.207
		c3.393,0.748,6.781,1.515,10.168,2.276c-1.354-0.181-2.701-0.376-4.053-0.582c-6.537-0.997-13.068-2.005-19.645-2.676
		c-0.016-0.301-0.133-0.606-0.223-0.899c-0.115-0.369-0.234-0.738-0.35-1.107C86.557,79.114,91.254,80.171,95.939,81.207z
		 M87.854,75.768c0.1-0.037,0.199-0.065,0.295-0.104c0.107,0.054,0.221,0.1,0.332,0.14c0.031,0.038,0.059,0.081,0.092,0.116
		C88.332,75.869,88.094,75.817,87.854,75.768z M105.76,93.417c-1.148-0.098-2.295-0.185-3.441-0.258
		c-0.098-1.025-0.188-2.05-0.08-3.137c0.148-1.533,0.686-3.017,1.268-4.432c0.023-0.062,0.033-0.115,0.029-0.167
		c0.908,0.132,1.816,0.265,2.727,0.384C105.84,88.142,105.486,90.905,105.76,93.417z M101.123,93.082
		c-0.932-0.055-1.863-0.101-2.795-0.135c-0.07-0.696-0.143-1.393-0.143-2.092c0.002-2.057,0.563-4.131,1.275-6.053
		c0.803,0.125,1.604,0.249,2.408,0.371c0.318,0.05,0.639,0.096,0.959,0.145C101.693,87.47,100.818,90.443,101.123,93.082z
		 M83.098,82.495c5.184,0.573,10.34,1.375,15.49,2.174c-0.971,2.296-1.818,5.222-1.6,7.882c-5.25-0.939-10.592-1.1-15.934-0.968
		c-0.389-1.29-0.609-2.569-0.535-4.168c0.078-1.705,0.438-3.425,0.906-5.087C81.984,82.382,82.541,82.433,83.098,82.495z
		 M79.529,82.135c0.42,0.038,0.842,0.085,1.26,0.126c-1.002,2.808-1.844,6.559-1.016,9.363c-0.322,0.011-0.643,0.019-0.963,0.031
		c-0.475-1.479-0.816-2.844-0.68-4.591C78.262,85.363,78.816,83.694,79.529,82.135z M79.523,77.783
		c0.494,0.089,0.984,0.188,1.479,0.279c0.09,0.49,0.184,0.979,0.271,1.468c0.035,0.195,0.063,0.399,0.113,0.594
		c-0.449-0.043-0.891-0.089-1.348-0.131c-0.061-0.202-0.131-0.409-0.186-0.621C79.727,78.844,79.613,78.317,79.523,77.783z
		 M77.301,78.844c-0.211-0.468-0.211-0.973-0.08-1.448c0.469,0.075,0.934,0.155,1.402,0.235c-0.008,0.578,0.02,1.158,0.113,1.723
		c0.029,0.165,0.051,0.347,0.08,0.531c-0.445-0.035-0.885-0.077-1.336-0.111c0.004-0.007,0.01-0.014,0.012-0.022
		C77.605,79.396,77.447,79.171,77.301,78.844z M77.203,81.928c0.516,0.041,1.029,0.091,1.543,0.137
		c-1.332,2.721-2.402,6.849-1.215,9.644c-0.309,0.015-0.613,0.027-0.92,0.042c-0.174-0.984-0.391-1.956-0.42-2.98
		C76.135,86.508,76.637,84.175,77.203,81.928z M75.064,81.773c0.428,0.026,0.855,0.055,1.281,0.087
		c-1.053,2.97-2.064,7.041-1.006,9.954c-0.582,0.031-1.162,0.067-1.744,0.1c0.182-1.499,0.121-3.021,0.156-4.532
		C73.799,85.315,74.223,83.528,75.064,81.773z M72.813,91.959c-0.789,0.046-1.58,0.09-2.369,0.136
		c-2.568,0.149-5.139,0.254-7.705,0.298c-0.504-1.371-1.012-2.65-1-4.392c0.018-2.122,0.623-4.351,1.406-6.322
		c3.5-0.227,7.023-0.186,10.539,0.009C72.113,84.546,72.246,88.87,72.813,91.959z M57.563,82.42
		c0.322,0.181,0.709,0.025,0.859-0.266c1.258-0.179,2.52-0.32,3.779-0.422c0.053-0.001,0.111-0.004,0.164-0.008
		c-1.482,2.872-2.994,7.439-1.705,10.69c-0.779,0.002-1.559,0.002-2.34-0.011c-0.07-0.105-0.16-0.225-0.287-0.396
		c-1.014-1.347-1.357-2.972-1.416-4.615C56.559,85.711,57.029,84.008,57.563,82.42z M58.76,100.269
		c-0.148,0.043-0.301,0.083-0.453,0.126c-0.002-0.942-0.057-1.898-0.113-2.832c0.018-0.445,0.035-0.892,0.049-1.337
		c0.244,0.018,0.494,0.027,0.738,0.042C58.809,97.562,58.652,98.958,58.76,100.269z M57.125,100.771
		c-0.074,0.027-0.148,0.057-0.223,0.082c0.01-0.374-0.043-0.761-0.055-1.146c-0.021-0.823-0.092-1.616-0.25-2.411
		c-0.002-0.403-0.01-0.807-0.027-1.21c0.082,0.007,0.168,0.02,0.252,0.026C56.869,97.668,56.928,99.225,57.125,100.771z
		 M55.648,95.986c-0.006,0.139-0.014,0.277-0.016,0.415c-0.203,0.076-0.373,0.237-0.432,0.467c-0.178,0.713-0.264,1.411-0.305,2.133
		c-0.027-0.14-0.057-0.28-0.08-0.425c-0.143-0.91-0.246-1.822-0.438-2.726C54.801,95.902,55.223,95.94,55.648,95.986z
		 M53.361,95.721c-0.029,0.046-0.055,0.099-0.066,0.156c-0.424,2.055-0.65,4.466-0.08,6.503c0.002,0.016,0.01,0.029,0.016,0.047
		c-0.049,0.025-0.098,0.05-0.145,0.074c-0.051-0.588-0.227-1.209-0.275-1.746c-0.164-1.734-0.158-3.46-0.43-5.178
		C52.709,95.626,53.035,95.676,53.361,95.721z M109.889,93.816c-0.951-0.103-1.908-0.196-2.865-0.285
		c-0.061-0.797-0.143-1.594-0.172-2.384c-0.061-1.744,0.059-3.499,0.18-5.239c0.949,0.122,1.902,0.236,2.854,0.33
		c0.213,0.022,0.424,0.042,0.635,0.063C109.594,88.718,109.207,91.417,109.889,93.816z M120.59,87.316
		c-0.898,2.484-1.262,5.236-0.613,7.758c-0.057-0.003-0.111-0.008-0.166-0.012c-1.531-0.219-3.064-0.432-4.598-0.625
		c-0.012-0.004-0.02-0.004-0.027-0.006c0-1.156-0.082-2.322,0.006-3.477c0.104-1.394,0.389-2.787,0.854-4.111
		c0.043,0.005,0.086,0.009,0.125,0.013C117.621,86.996,119.107,87.223,120.59,87.316z M118.207,82.288
		c0.014,0.003,0.02,0.011,0.033,0.011c0.666,0.075,1.336,0.137,2.004,0.2c-0.063,0.198-0.113,0.407-0.154,0.623
		c-0.623-0.141-1.244-0.276-1.865-0.419C118.219,82.565,118.217,82.425,118.207,82.288z M117.34,82.501
		c-1.324-0.302-2.648-0.607-3.973-0.914c1.33,0.078,2.666,0.139,4.004,0.183C117.359,82.012,117.35,82.256,117.34,82.501z
		 M115.148,86.755c-0.979,2.342-1.471,5.096-1.148,7.532c-0.928-0.115-1.855-0.227-2.785-0.331
		c-0.359-2.655-0.492-5.053,0.289-7.541C112.088,86.959,114.549,86.696,115.148,86.755z M122.508,95.279
		c-0.494-0.039-0.988-0.078-1.477-0.119c-0.107-2.693,0.051-5.204,0.645-7.808c0.408,0.004,0.82-0.013,1.223-0.043
		c-0.254,1.604-0.363,3.237-0.432,4.856C122.43,93.113,122.387,94.216,122.508,95.279z M120.805,83.283
		c0.01-0.241,0.045-0.48,0.102-0.717c0.814,0.075,1.629,0.139,2.441,0.2c-0.016,0.358-0.027,0.717-0.021,1.076
		C122.484,83.657,121.643,83.471,120.805,83.283z M123.67,87.364c1.365,0.288,2.73,0.574,4.096,0.854
		c-1.354,1.915-1.873,4.762-1.617,7.348c-0.761-0.059-1.524-0.118-2.289-0.18c-0.174-1.263-0.354-2.523-0.332-3.839
		C123.551,90.162,123.744,88.754,123.67,87.364z M127.105,83.001c-0.133,0.524-0.226,1.066-0.267,1.607
		c-0.813-0.177-1.625-0.35-2.439-0.527c-0.035-0.415-0.072-0.832-0.104-1.248C125.236,82.897,126.172,82.954,127.105,83.001z
		 M124.717,81.834c0.922-0.012,1.846-0.039,2.771-0.063c-0.014,0.041-0.031,0.088-0.043,0.13
		C126.535,81.887,125.625,81.864,124.717,81.834z M168.875,94.176c0.541,0.044,1.082,0.086,1.625,0.125
		c-0.084,1.644-0.275,3.167-0.738,4.742c-0.473-0.056-0.947-0.117-1.42-0.173C168.906,97.457,168.977,95.696,168.875,94.176z
		 M180.865,92.917c-1.195-0.063-2.393-0.152-3.584-0.279c0.061-0.618,0.129-1.236,0.209-1.853c1.121,0.035,2.244,0.063,3.367,0.084
		c-0.029,0.335-0.029,0.674-0.027,1.013C180.832,92.136,180.801,92.559,180.865,92.917z M186.357,92.549
		c0.045,0.135,0.104,0.286,0.178,0.438c-1.557,0.046-3.098,0.044-4.629-0.017c0.039-0.312,0.01-0.674-0.008-0.888
		c-0.033-0.4-0.035-0.801-0.033-1.201c1.428,0.017,2.852,0.006,4.273-0.04C186.113,91.425,186.166,91.976,186.357,92.549z
		 M187.971,94.471c-0.02,0.129-0.043,0.26-0.063,0.392c-0.053,0.397-0.146,0.794,0.172,1.09c0.113,0.105,0.27,0.074,0.377-0.021
		c0.297-0.268,0.186-0.598,0.16-0.939c-0.012-0.176-0.041-0.346-0.068-0.519c0.705,0,1.41-0.003,2.113-0.008
		c2.318-0.021,4.637-0.108,6.953-0.249c0.484,1.166,0.832,2.366,1.104,3.618c0.252,1.156,0.213,2.165,0.033,3.162
		c-2.023,0.009-4.047-0.02-6.072-0.073c-0.014-0.37-0.094-0.746-0.176-0.988c-0.063-0.191-0.381-0.186-0.441,0.005
		c-0.1,0.316-0.145,0.639-0.223,0.955c-1.502-0.046-3.002-0.104-4.498-0.183c-0.105-0.288-0.236-0.565-0.406-0.828
		c-0.145-0.22-0.44-0.035-0.428,0.181c0.014,0.158,0.027,0.316,0.041,0.474c-0.17,0.011-0.342,0.042-0.506,0.108
		c-2.348-0.138-4.695-0.328-7.033-0.551c0.799-1.609,0.605-3.758,0.162-5.613c0.551-0.029,1.102-0.066,1.648-0.122
		c0.215-0.02,0.436-0.046,0.65-0.067C183.643,94.422,185.816,94.466,187.971,94.471z M186.879,90.816
		c0.396-0.018,0.799-0.035,1.195-0.059c0.861-0.053,1.721-0.125,2.582-0.193c0.004,0.619,0.08,1.219,0.26,1.814
		c0.033,0.119,0.07,0.244,0.113,0.368c-1.115,0.084-2.234,0.156-3.355,0.206c-0.154-0.293-0.391-0.574-0.496-0.853
		C187.021,91.699,186.939,91.251,186.879,90.816z M194.938,92.4c-0.992,0.098-1.983,0.189-2.977,0.271
		c-0.064-0.128-0.143-0.258-0.207-0.401c-0.238-0.549-0.324-1.164-0.352-1.762c1.129-0.097,2.258-0.206,3.381-0.321
		C194.787,90.887,194.746,91.697,194.938,92.4z M197.75,92.107c-0.592,0.062-1.188,0.129-1.781,0.188
		c-0.074-0.687-0.146-1.353-0.145-2.054c0-0.058-0.018-0.109-0.029-0.159c0.65-0.068,1.307-0.138,1.959-0.208
		c-0.012,0.032-0.021,0.063-0.025,0.101C197.705,90.411,197.6,91.371,197.75,92.107z M200.539,89.578
		c0.029,0.403,0.104,0.795,0.205,1.191c0.072,0.286,0.121,0.662,0.227,0.999c-0.063,0.003-0.127,0.009-0.186,0.018
		c-0.672,0.07-1.34,0.14-2.01,0.211c-0.051-0.116-0.104-0.237-0.139-0.359c-0.166-0.538-0.183-1.127-0.218-1.684
		c-0.004-0.058-0.021-0.105-0.037-0.146C199.1,89.731,199.818,89.655,200.539,89.578z M198.385,89.427
		c0.135-0.087,0.244-0.193,0.328-0.315c0.457,0.058,0.914,0.128,1.369,0.211C199.516,89.351,198.949,89.385,198.385,89.427z
		 M200.404,94.007c0.541,1.243,0.922,2.533,1.137,3.893c0.178,1.146,0.02,2.11-0.244,3.063c-0.479,0.01-0.959,0.021-1.438,0.023
		c0.236-2.238-0.619-4.824-1.604-6.811C198.971,94.13,199.689,94.066,200.404,94.007z M203.486,93.73
		c0.984,1.398,1.336,3.033,1.279,4.833c-0.029,0.821-0.23,1.584-0.459,2.336c-0.58,0.017-1.162,0.031-1.742,0.044
		c0.301-2.244-0.578-4.973-1.533-6.984C201.85,93.89,202.67,93.81,203.486,93.73z M201.199,89.506
		c0.359-0.036,0.721-0.077,1.082-0.114c0.336-0.033,0.676-0.072,1.01-0.109c0.119,0.758,0.252,1.527,0.564,2.225
		c-0.648,0.052-1.299,0.105-1.947,0.169c-0.066-0.229-0.182-0.455-0.273-0.702C201.451,90.494,201.281,90.012,201.199,89.506z
		 M206.924,93.345c0.443-0.057,0.887-0.116,1.328-0.175c0.842,1.319,1.281,2.754,1.426,4.39c0.111,1.19-0.127,2.267-0.416,3.328
		c-0.348,0.044-0.693,0.105-1.033,0.171c-0.051-0.098-0.096-0.199-0.133-0.305c-0.012,0.001-0.022,0.001-0.035,0.001
		C208.77,98.449,208.061,95.424,206.924,93.345z M204.314,93.645c0.569-0.06,1.139-0.126,1.707-0.193
		c0.842,1.432,1.188,3.008,1.225,4.7c0.021,0.962-0.225,1.812-0.512,2.654c-0.402,0.017-0.805,0.031-1.205,0.044
		c0.147-0.743,0.211-1.509,0.232-2.185C205.824,96.889,205.314,95.097,204.314,93.645z M190.102,148.152
		c2.433-5.078,4.812-10.172,6.688-15.488c1.789-5.066,2.979-10.33,3.588-15.665c0.418-3.68,1.067-9.164-0.756-12.865
		c1.721-0.009,3.444-0.041,5.162-0.095c0.25,13-5.328,25.641-10.673,37.232c-2.432,5.27-5.038,10.457-7.6,15.662
		c0.385-1.23,0.709-2.479,0.967-3.74C188.33,151.455,189.322,149.777,190.102,148.152z M188.266,146.051
		c0.002-0.141,0.012-0.279,0.017-0.416c0.223-0.391,0.438-0.781,0.653-1.178C188.713,144.99,188.488,145.52,188.266,146.051z
		 M189.1,103.932c0.32,0.015,0.64,0.031,0.961,0.044c0.349,0.952,0.844,1.861,1.111,2.875c0.387,1.478,0.498,3.036,0.625,4.553
		c0.141,1.694,0.234,3.387,0.275,5.08C191.639,112.156,190.768,107.822,189.1,103.932z M194.668,110.801
		c-0.15-1.848-0.283-4.588-1.131-6.718c0.836,0.019,1.668,0.033,2.5,0.043c0.52,1.863,1.189,3.552,1.348,5.55
		c0.203,2.575-0.098,5.29-0.385,7.847c-0.58,5.211-1.955,10.288-3.617,15.243c-0.045,0.127-0.09,0.252-0.133,0.379
		c0.822-3.346,1.334-6.799,1.592-10.353C195.137,118.794,194.998,114.791,194.668,110.801z M208.074,91.211
		c-0.307-0.839-0.756-1.586-1.277-2.298c0.68-0.066,1.363-0.126,2.045-0.174c0.215,0.681,0.459,1.357,0.736,2.006
		c0.078,0.185,0.217,0.292,0.369,0.337C209.324,91.127,208.697,91.169,208.074,91.211z M206.891,91.293
		c-0.604,0.038-1.209,0.079-1.811,0.121c-0.004-0.005-0.006-0.014-0.008-0.02c-0.361-0.714-0.619-1.458-0.873-2.212
		c0.539-0.057,1.08-0.115,1.625-0.173C206.219,89.743,206.609,90.503,206.891,91.293z M185.193,119.833
		c-0.037-0.104-0.076-0.209-0.113-0.312c-0.264-1.372-0.584-2.729-0.963-4.074c-0.73-2.599-1.66-5.242-2.93-7.681
		c0.008-0.025,0.018-0.053,0.024-0.08c0.58,1.142,1.166,2.284,1.688,3.45C184.121,113.891,184.807,116.85,185.193,119.833z
		 M183.006,104.575c0.037,0.023,0.07,0.047,0.109,0.067c0.051,0.029,0.102,0.064,0.15,0.099c0.147,0.43,0.307,0.86,0.446,1.288
		C183.477,105.544,183.242,105.061,183.006,104.575z M171.914,104.957c0.305,0.355,0.607,0.713,0.873,1.079
		c1.578,2.142,2.734,4.595,3.828,7.007c0.744,1.639,1.391,3.32,1.996,5.017c-0.566-0.686-1.152-1.357-1.766-2.008
		C175.863,112.108,174.051,108.426,171.914,104.957z M175.43,114.619c-0.229-0.216-0.457-0.43-0.688-0.638
		c-0.654-1.846-1.604-3.686-2.257-5.083c-0.381-0.822-0.834-1.711-1.348-2.596c0.172-0.146,0.32-0.322,0.43-0.519
		C173.123,108.614,174.445,111.501,175.43,114.619z M178.053,103.144c0.379,0.036,0.756,0.072,1.133,0.109
		c0.164,0.44,0.336,0.881,0.523,1.313c-0.232-0.094-0.463-0.179-0.699-0.267C178.707,103.903,178.387,103.518,178.053,103.144z
		 M178.158,94.529c0.158,0.849,0.238,1.703,0.188,2.599c-0.061,1.027-0.467,1.916-0.85,2.823c-0.881-0.09-1.76-0.193-2.639-0.294
		c0.838-1.464,1.031-3.358,0.938-5.105C176.586,94.561,177.375,94.554,178.158,94.529z M176.299,92.526
		c-1.031-0.126-2.066-0.271-3.109-0.444c-0.008-0.263-0.035-0.525-0.03-0.767c0.006-0.226,0.022-0.449,0.049-0.673
		c0.994,0.031,1.992,0.067,2.987,0.102c0,0.363,0.005,0.729,0.021,1.092c0.007,0.159,0.072,0.27,0.164,0.335
		C176.35,92.289,176.324,92.406,176.299,92.526z M174.844,94.533c-0.008,0.921-0.113,1.832-0.346,2.761
		c-0.199,0.793-0.564,1.501-0.941,2.208c-0.426-0.056-0.856-0.098-1.285-0.151c-0.496-0.066-0.996-0.122-1.492-0.183
		c0.683-1.423,0.615-3.176,0.517-4.811C172.477,94.437,173.662,94.5,174.844,94.533z M172.199,91.515
		c-0.014,0.134-0.033,0.271-0.047,0.406c-0.84-0.129-1.682-0.241-2.525-0.336c0.012-0.269-0.018-0.547-0.02-0.819
		c-0.004-0.122-0.012-0.243-0.017-0.367c0.921,0.088,1.836,0.155,2.75,0.2C172.281,90.901,172.234,91.206,172.199,91.515z
		 M169.615,102.434c-0.131-0.099-0.256-0.198-0.377-0.301c0.066,0.009,0.135,0.015,0.205,0.022
		C169.498,102.25,169.557,102.343,169.615,102.434z M168.656,90.434c-0.006,0.334-0.051,0.693-0.041,1.04
		c-0.52-0.05-1.035-0.101-1.549-0.15c-0.012-0.392-0.029-0.783-0.047-1.176c0.549,0.055,1.094,0.109,1.643,0.163
		C168.66,90.352,168.658,90.394,168.656,90.434z M168.006,94.107c-0.041,1.029-0.158,2.051-0.391,3.063
		c-0.129,0.556-0.367,1.052-0.619,1.541c-0.516-0.058-1.029-0.106-1.541-0.161c0.695-1.29,0.752-3.094,0.715-4.599
		C166.779,94,167.389,94.056,168.006,94.107z M158.588,90.064c0.338-0.004,0.678-0.015,1.018-0.022
		c0.033-0.042,0.088-0.075,0.16-0.083c1.084-0.103,2.172-0.122,3.264-0.091c0,0.004-0.002,0.006-0.006,0.006
		c-0.078,0.312-0.119,0.613-0.174,0.931c-0.006,0.035-0.016,0.065-0.021,0.099c-1.019-0.117-2.033-0.253-3.039-0.43
		c-0.146-0.024-0.228-0.16-0.228-0.288c-0.328-0.034-0.653-0.066-0.979-0.104C158.586,90.074,158.586,90.071,158.588,90.064z
		 M158.551,88.518c-0.064-0.463-0.154-0.924-0.189-1.354c-0.131-1.52-0.194-3.043-0.334-4.563c1.265-0.059,2.529-0.119,3.793-0.181
		c0.104,1.531,0.146,3.065,0.154,4.601c0,0.441-0.014,0.886-0.022,1.334C160.818,88.413,159.686,88.47,158.551,88.518z
		 M163.346,93.708c0.625,0.055,1.248,0.114,1.873,0.164c0.102,0.009,0.203,0.017,0.303,0.025c-0.045,0.76-0.108,1.518-0.246,2.271
		c-0.157,0.875-0.573,1.554-0.977,2.262c-0.551-0.057-1.102-0.118-1.646-0.17C163.297,96.986,163.426,95.308,163.346,93.708z
		 M163.654,89.894c0.848,0.036,1.697,0.103,2.547,0.179c-0.016,0.389-0.031,0.777-0.045,1.166c-0.803-0.074-1.605-0.149-2.406-0.233
		c0.004-0.044,0.006-0.088,0.01-0.133C163.781,90.527,163.738,90.227,163.654,89.894z M166.781,88.064
		c-1.143,0.076-2.289,0.153-3.436,0.219c-0.013-1.979-0.354-4.077-0.724-5.9c1.224-0.058,2.438-0.114,3.657-0.167
		c-0.041,0.062-0.061,0.14-0.043,0.235c0.332,1.694,0.558,3.408,0.556,5.137C166.793,87.749,166.789,87.907,166.781,88.064z
		 M166.207,80.391c-3.963,0.224-7.934,0.472-11.91,0.705c-0.15-0.124-0.398-0.105-0.551,0.032c-8.498,0.493-17.018,0.9-25.518,0.782
		c0.006-0.058-0.002-0.111-0.021-0.158c11.158-0.322,22.357-1.448,33.404-2.106c8.795-0.525,17.598-0.896,26.412-0.758
		c5.213,0.081,10.242,0.555,15.244,1.389C190.961,79.028,178.611,79.69,166.207,80.391z M156.938,86.786
		c0.006,0.535-0.008,1.172,0.041,1.8c-0.729,0.03-1.457,0.062-2.186,0.093c0.15-1.911-0.021-3.99-0.221-5.916
		c0.83-0.037,1.664-0.076,2.496-0.116C156.941,84.025,156.914,85.399,156.938,86.786z M153.258,88.749
		c-0.736,0.032-1.473,0.064-2.211,0.103c0.268-1.924,0-4.131-0.443-5.918c0.955-0.039,1.914-0.081,2.869-0.122
		C153.275,84.747,153.098,86.828,153.258,88.749z M149.703,82.967c0.016,1.025,0.043,2.051,0.051,3.076
		c0.006,0.94-0.139,1.885-0.217,2.825c-0.301-0.048-0.602-0.101-0.9-0.146c0.221-0.552,0.135-1.46,0.098-1.835
		c-0.032-0.292-0.477-0.229-0.5,0.041c-0.036,0.435-0.09,0.873-0.231,1.287c-0.055,0.147-0.125,0.259-0.18,0.375
		c-1.515-0.24-3.025-0.496-4.535-0.758c-0.011-0.223-0.026-0.446-0.058-0.679c-0.047-0.323-0.518-0.309-0.563,0.008
		c-0.024,0.185-0.051,0.367-0.076,0.551c-2.969-0.521-5.93-1.087-8.887-1.679c0.106-0.247,0.211-0.498,0.383-0.712
		c0.175-0.217-0.149-0.512-0.354-0.329c-0.271,0.24-0.523,0.568-0.705,0.906c-1.246-0.253-2.49-0.514-3.732-0.774
		c0.006-0.004,0.012-0.014,0.018-0.021c0.24-0.256-0.172-0.603-0.412-0.35c-0.073,0.078-0.145,0.16-0.209,0.245
		c-0.252-0.052-0.502-0.101-0.754-0.153c0.029-0.601,0.047-1.204,0.105-1.804C135.258,83.369,142.48,83.242,149.703,82.967z
		 M128.467,88.362c2.123,0.435,4.25,0.855,6.381,1.262c-0.104,0.367-0.174,0.74-0.188,1.129c-0.013,0.385-0.009,0.916,0.336,1.151
		c0.118,0.077,0.305,0.07,0.36-0.081c0.099-0.256,0.054-0.366-0.016-0.629c-0.127-0.484-0.125-0.996-0.01-1.481
		c1.91,0.36,3.822,0.711,5.738,1.042c-0.053,0.181-0.109,0.363-0.168,0.539c-0.123,0.35-0.312,0.651-0.185,1.017
		c0.052,0.146,0.229,0.188,0.353,0.107c0.352-0.234,0.387-0.71,0.475-1.099c0.037-0.156,0.057-0.312,0.076-0.469
		c0.088,0.017,0.178,0.032,0.268,0.048c2.416,0.41,4.836,0.787,7.26,1.138c-0.09,0.479-0.18,0.936-0.434,1.396
		c-0.158,0.29,0.08,0.524,0.338,0.544c-0.01,0.005-0.021,0.01-0.037,0.02c0.182,0.047,0.353-0.089,0.432-0.234
		c0.273-0.499,0.382-1.063,0.359-1.627c2.725,0.386,5.451,0.731,8.187,1.035c-0.015,0.124-0.023,0.248-0.039,0.372
		c-0.054,0.427-0.265,0.891-0.054,1.301c0.037,0.071,0.134,0.099,0.205,0.076c0.42-0.124,0.447-0.563,0.479-0.934
		c0.017-0.251,0.015-0.502,0.006-0.753c1.271,0.136,2.541,0.277,3.813,0.395c-0.01,0.454-0.031,0.91-0.082,1.368
		c-0.127,1.146-0.654,2.111-1.049,3.132c-9.246-0.874-18.521-1.413-27.783-2.037c-0.016-0.457-0.025-0.916-0.082-1.368
		c-0.035-0.304-0.506-0.339-0.545-0.021c-0.055,0.444-0.062,0.894-0.08,1.34c-0.598-0.041-1.195-0.079-1.791-0.12
		c-1.236-0.088-2.471-0.18-3.709-0.27c-0.072-0.563-0.135-1.128-0.148-1.696C127.078,92.009,127.498,90.05,128.467,88.362z
		 M126.959,116.375c-0.033,0.024-0.064,0.046-0.096,0.07c-0.088-0.015-0.178-0.021-0.271-0.027
		c-0.041-0.033-0.084-0.063-0.125-0.094C126.629,116.341,126.795,116.365,126.959,116.375z M211.932,100.157
		c-0.424,0.046-0.854,0.242-1.17,0.561c-0.012,0.001-0.022,0.003-0.035,0.003c0.392-2.575-0.303-5.519-1.576-7.667
		c0.675-0.092,1.345-0.188,2.017-0.286c0.662,1.563,0.994,3.205,1.063,4.977C212.262,98.576,212.115,99.371,211.932,100.157z
		 M216.451,99.812c-0.584,0.215-1.162,0.428-1.74,0.629c-0.465,0.016-0.928,0.041-1.391,0.068c0.328-2.536-0.428-5.527-1.498-7.843
		c0.309-0.048,0.621-0.092,0.93-0.142c0.607,0.117,1.207,0.26,1.793,0.435c0.039,0.011,0.076,0.021,0.113,0.034
		c0.836,1.423,1.432,2.974,1.732,4.626C216.541,98.429,216.549,99.147,216.451,99.812z M217.232,94.125
		c0.521,1.154,0.721,2.495,0.735,3.702c0.007,0.501-0.041,1.015-0.153,1.51c-0.064,0.012-0.135,0.03-0.205,0.053
		c-0.172-2.045-0.994-4.262-1.998-6.085C216.199,93.514,216.764,93.762,217.232,94.125z M214.854,90.652
		c-0.078,0.009-0.158,0.015-0.235,0.025c-0.214-0.687-0.537-1.322-0.81-1.983c0.221,0.015,0.445,0.025,0.664,0.044v-0.002
		c0.104,0.01,0.203,0.013,0.303,0.022C215.828,88.865,215.947,90.529,214.854,90.652z M213.145,84.443
		c0.168-0.032,0.338-0.03,0.502-0.002c0.185,0.031,0.359,0.099,0.515,0.194c0.002,0,0.002,0,0.002,0
		c0.073,0.046,0.146,0.101,0.209,0.158c0.004,0.006,0.008,0.012,0.017,0.018c0.059,0.059,0.11,0.118,0.153,0.185
		c0.004,0.003,0.008,0.007,0.013,0.015c0.043,0.067,0.082,0.14,0.112,0.218c0.008,0.013,0.011,0.03,0.017,0.047
		c0.024,0.072,0.045,0.147,0.053,0.225c0.004,0.008,0.006,0.017,0.006,0.023c0.01,0.085,0.008,0.17-0.002,0.263
		c-0.004,0.02-0.006,0.044-0.01,0.065c-0.015,0.093-0.035,0.189-0.07,0.287c-0.025,0.063-0.055,0.123-0.09,0.183
		c-0.014,0.017-0.027,0.034-0.035,0.052c-0.027,0.037-0.057,0.076-0.088,0.11c-0.014,0.019-0.029,0.035-0.045,0.051
		c-0.033,0.035-0.068,0.066-0.104,0.097c-0.019,0.013-0.03,0.025-0.049,0.039c-0.043,0.032-0.09,0.062-0.14,0.09
		c-0.008,0.008-0.02,0.014-0.028,0.021c-0.254,0.142-0.554,0.213-0.836,0.196c-0.142-0.007-0.277-0.035-0.404-0.089
		C213.143,86.167,213.215,85.307,213.145,84.443z M211.643,84.102c0.006,0.038,0.017,0.073,0.021,0.109
		c0.23,0.043,0.459,0.098,0.691,0.148c0,0.155,0,0.309-0.01,0.465c-0.035,0.496-0.179,0.965-0.3,1.437
		c-0.008-0.002-0.014-0.007-0.024-0.01c0.006,0.022,0.008,0.044,0.012,0.066c-0.045,0.18-0.088,0.359-0.119,0.544
		c-0.209-0.048-0.42-0.084-0.631-0.124c0.268-0.812,0.197-1.817-0.02-2.707C211.389,84.055,211.516,84.079,211.643,84.102z
		 M212.535,88.643c0.105,0.002,0.211,0.004,0.318,0.008c0.172,0.72,0.387,1.433,0.604,2.139c-1.022,0.098-2.045,0.187-3.072,0.26
		c0.21-0.1,0.353-0.324,0.255-0.634c-0.193-0.602-0.496-1.163-0.771-1.735C210.762,88.634,211.65,88.625,212.535,88.643z
		 M208.016,83.475c0.752,0.12,1.504,0.241,2.254,0.376c0.15,0.555,0.207,1.117,0.148,1.715c-0.033,0.347-0.154,0.666-0.275,0.983
		c-0.779-0.11-1.569-0.182-2.363-0.229C208.004,85.41,208.049,84.404,208.016,83.475z M206.914,83.307
		c0.006,0.728-0.047,1.446-0.182,2.18c-0.053,0.265-0.127,0.521-0.207,0.773c-1.291-0.041-2.59-0.024-3.877,0.008
		c-3.99-0.292-8.137,0.036-11.834,0.35c-3.092,0.14-6.187,0.313-9.273,0.474c-1.293,0.069-2.584,0.147-3.875,0.229
		c0.07-0.426-0.033-0.88-0.295-1.248c-0.143-0.2-0.469-0.072-0.4,0.176c0.107,0.39,0.031,0.772-0.125,1.125
		c-1.219,0.082-2.441,0.166-3.662,0.252c-0.004-0.063-0.012-0.128-0.014-0.191c-0.008-0.349-0.527-0.319-0.533,0.022
		c-0.004,0.069-0.012,0.139-0.016,0.208c-1.467,0.103-2.934,0.206-4.4,0.306c-0.021-1.994-0.57-4.075-1.262-5.69
		c-0.016-0.036-0.039-0.064-0.064-0.092c9.527-0.425,19.045-0.674,28.529-0.071c-0.074,0.402-0.109,0.827-0.086,1.214
		c0.039,0.605,0.912,0.6,0.939-0.008c0.018-0.376-0.019-0.771-0.08-1.155C199.773,82.411,203.348,82.776,206.914,83.307z
		 M56.162,60.093c0.012,0.066,0.029,0.128,0.041,0.192c-0.479,1.045-1.084,2.055-1.633,3.083
		C55.066,62.258,55.596,61.165,56.162,60.093z M52.607,68.409c1.777,0.894,3.631,0.535,5.016-0.882
		c0.486-0.496,0.871-1.046,1.225-1.62c2.41,2.639,5.406,2.621,8.408,0.508c2.629-1.848,4.986-4.152,7.359-6.309
		c2.236-2.031,4.492-3.854,4.586-7.075c0.117-3.964-2.734-6.093-6.148-6.989c2.67-1.16,4.758-3.478,4.273-6.706
		c-0.088-0.575-0.525-1.279-1.129-1.436c-0.162-0.043-0.311-0.069-0.449-0.09c3.566-2.672,7.34-5.031,11.258-7.136
		c0.031,0.004,0.061,0.017,0.098,0.017c2.451-0.053,3.424,1.913,5.063,3.385c1.627,1.457,5.309,1.651,6.752-0.217
		c0.432-0.559,0.59-1.41,0.813-2.058c0.178-0.515,0.328-1.037,0.482-1.558c0.061-0.189,0.123-0.381,0.186-0.57
		c0.096-0.024,0.287-0.133,0.588-0.332c1.504-0.566,3.188-0.658,4.121-2.191c0.943-1.548,1.262-2.672,1.236-4.445
		c-0.002-0.047-0.012-0.092-0.018-0.137c4.838-1.559,9.762-2.855,14.701-3.945c-6.561,3.231-12.656,7.918-17.299,13.275
		c-0.193,0.227,0.115,0.566,0.355,0.388c3.293-2.413,6.432-4.962,9.943-7.063c4.119-2.469,8.469-4.551,12.98-6.193
		c3.72-1.353,7.615-2.206,11.556-2.563c3.856-0.352,7.908,0.423,11.75,0.016c0.414,0.098,0.826,0.209,1.237,0.317
		c-0.166,0.032-0.332,0.067-0.487,0.106c-0.121,0.031-0.248,0.066-0.375,0.102c-3.232,0.337-6.705,1.781-8.877,2.869
		c-2.789,1.394-5.455,3.207-6.972,6.004c-2.036,3.764-0.803,6.898,2.738,9.023c2.894,1.736,6.108,3.02,9.19,4.38
		c2.902,1.283,5.615,2.675,8.75,1.392c6.51-2.661,4.396-11.22,1.371-15.796c2.279-0.929,4.824-2.469,4.701-4.496
		c1.201,0.546,2.391,1.134,3.564,1.749c0.834,2.08,0.658,3.987,0.174,6.589c-0.404,2.167-0.203,4.208,0.58,6.268
		c0.631,1.655,1.918,2.557,3.395,3.251c0.197,0.208,0.441,0.356,0.703,0.449c0.914,0.731,2.033,1.279,3.205,1.708
		c0.615,1.999,2.449,3.308,4.852,3.437c3.554,0.189,7.146-2.367,9.519-4.771c0.013-0.011,0.017-0.021,0.022-0.031
		c3.332,3.396,6.414,7.036,9.232,10.869c-0.914,6.371-7.607,13.94,0.393,18.396c1.062,0.592,2.248,0.732,3.439,0.761
		c0.996,0.024,1.805,0.604,2.412,1.388c-0.354,1.376-0.426,2.747,0.172,4.258c0.41,1.026,1.068,1.886,1.867,2.59
		c-5.055-0.904-10.125-1.445-15.391-1.593c-3.438-0.098-6.879-0.09-10.316-0.021c0-0.005,0-0.009-0.002-0.013
		c-0.365-1.388-1.527-1.847-2.75-1.766c-0.996-1.456-2.541-2.767-3.645-3.904c-1.388-1.435-3.177-3.706-5.162-4.311
		c-2.566-0.782-5.14,1.373-6.416,3.334c-0.648,0.994-1.174,2.181-1.763,3.323c-1.875-0.106-4.055,1.097-5.301,2.675
		c-0.006,0.007-0.017,0.011-0.022,0.018c-0.369,0.283-0.603,0.677-0.679,1.09c-1.313-0.223-2.616,0.108-3.498,1.238
		c-4.647,0.359-9.297,0.721-13.946,1.04c-8.361,0.571-25.715,0.95-29.877,1.053c-0.398-1.832-2.756-3.893-3.998-4.436
		c-2.111-0.922-4.316-1.188-6.545-1.4c-0.307-1.32,0.107-3.339-0.094-4.453c-0.385-2.129-2.465-3.143-4.33-3.609
		c-2.895-0.719-5.012,1.557-6.656,4.13c-0.152,0.09-0.301,0.184-0.465,0.267c-0.525,0.271-1.08,0.469-1.633,0.673
		c0.619-1.435,1.344-2.839,1.963-4.256c0.545-1.249,1.176-2.759,0.807-4.13c-0.021-0.084-0.156-0.096-0.191-0.012
		c-0.854,2.172-1.693,4.265-2.77,6.349c-0.457,0.885-0.896,1.785-1.275,2.706c-0.475,0.27-0.971,0.613-1.355,1.023
		c1.543-5.121,3.338-10.07,5.814-14.893c3.322-6.469,7.521-12.811,12.197-18.385c0.205-0.245-0.129-0.542-0.365-0.332
		C87.4,47.755,79.928,60.44,76.947,73.743c-0.232-0.036-0.467-0.063-0.699-0.1c0.529-0.941,0.527-2.533,0.74-3.39
		c0.484-1.972,1.146-3.922,1.332-5.951c0.031-0.385-0.482-0.41-0.617-0.106c-0.818,1.837-1.42,3.773-2.049,5.683
		c-0.18,0.554-0.541,1.354-0.748,2.143c-0.096-0.203-0.234-0.387-0.434-0.526c-0.936-0.656-1.908-1.343-3.111-1.244
		c-1.088,0.087-1.975,0.702-2.678,1.486c-0.086-0.031-0.172-0.063-0.258-0.09c-1.172-0.394-2.455-0.721-3.678-0.472
		c-0.563,0.116-0.924,0.615-1.047,1.175c-3.934-0.239-8.23-0.417-12.27,0.053C51.775,71.066,52.166,69.735,52.607,68.409z
		 M48.566,71.291c0.072-0.492,0.801-0.601,0.949-0.143c0.012,0.031,0.027,0.062,0.031,0.102c0.004,0.019,0,0.035,0.004,0.052
		c0.045,0.492-0.004,0.951-0.137,1.393l0,0c-0.041,0.133-0.086,0.263-0.143,0.391c-0.064,0.146-0.129,0.29-0.217,0.434
		c-0.031,0.049-0.068,0.087-0.109,0.119c-0.037,0.029-0.078,0.053-0.119,0.07c-0.344,0.14-0.82-0.135-0.768-0.557
		C48.143,72.5,48.471,71.932,48.566,71.291z M49.115,77.189c-0.066,0.373-0.104,0.755-0.092,1.143
		c0.049,1.504,0.568,3.407,2.152,3.93c0.295,0.098,0.656-0.171,0.504-0.498c-0.52-1.119-1.27-1.857-1.445-3.145
		c-0.063-0.496-0.033-1.014,0.055-1.53c0.041,0.01,0.082,0.018,0.117,0.032c0.049-0.252,0.098-0.503,0.146-0.754
		c0.432-0.028,0.865-0.06,1.297-0.094c0.041,0.488,0.131,0.966,0.225,1.389c0.328,1.445,1.078,2.663,2.076,3.709
		c-1.652,0.523-3.254,1.172-4.773,1.965c-0.439-0.755-0.988-1.38-1.275-2.27c-0.172-0.532-0.232-1.094-0.232-1.656
		c0.057-0.018,0.115-0.031,0.174-0.038C47.818,78.479,48.344,77.56,49.115,77.189z M46.584,78.305c0.074-0.237,0.484-0.15,0.432,0.1
		c-0.186,0.9-0.141,2.079,0.234,2.943c0.209,0.482,0.477,0.896,0.877,1.244c0.176,0.153,0.205,0.294,0.227,0.521
		c0.018,0.171-0.078,0.316-0.248,0.356c-0.016,0.001-0.029,0.001-0.047,0.003c0.129,0.13,0.264,0.252,0.412,0.359
		c-0.145,0.085-0.289,0.167-0.434,0.251c-0.043-0.047-0.09-0.096-0.135-0.142c0.006-0.15,0.01-0.304,0.016-0.456
		c-0.811-0.005-1.387-1.177-1.582-1.846C45.986,80.454,46.217,79.455,46.584,78.305z M47.617,91.986
		c-0.109-0.095-0.203-0.203-0.287-0.317c-0.023-0.032-0.043-0.07-0.066-0.102c-0.057-0.087-0.111-0.178-0.156-0.273
		c-0.018-0.038-0.033-0.075-0.049-0.11c-0.045-0.106-0.088-0.217-0.119-0.328c-0.006-0.026-0.016-0.052-0.021-0.079
		c-0.039-0.138-0.068-0.275-0.092-0.417c-0.072-0.44-0.082-0.894-0.066-1.305c0.059-1.234,0.555-2.32,1.311-3.281
		c0.221-0.279,0.598-0.017,0.48,0.281c0.287-0.245,0.328-0.723,0.148-1.07c-0.018-0.034-0.039-0.061-0.059-0.093
		c0.266-0.127,0.533-0.249,0.803-0.367c-0.891,1.34-1.537,3.122-1.605,4.863c-0.018-0.268-0.027-0.534-0.037-0.799
		c-0.014,0.262-0.01,0.527,0.016,0.792c0.045,0.412,0.162,0.825,0.244,1.234c0.02,0.092,0.035,0.183,0.049,0.273
		c0.006,0.016,0.006,0.03,0.008,0.046c0.012,0.08,0.02,0.163,0.027,0.243c0.002,0.035,0,0.071,0.002,0.105
		c0.002,0.063,0.004,0.123,0.002,0.183c-0.002,0.097-0.014,0.193-0.029,0.29C48.08,91.965,47.816,92.157,47.617,91.986z
		 M49.574,109.008c0.252-0.073,0.477-0.217,0.615-0.439c0.814-0.584,1.645-1.146,2.508-1.657c-0.93,3.899-1.555,7.858-1.932,11.845
		c-2.033,0.857-3.484,2.662-3.043,5.258c0.279,1.644,1.205,2.792,2.6,3.285c-0.053,4.625,0.178,9.257,0.637,13.847
		c0.656,6.584,1.723,13.127,3.012,19.615c0.09,0.456,0.182,0.918,0.271,1.377c-3-1.168-5.855-2.712-8.432-4.509
		c-8.996-6.276-10.598-16.44-10.662-26.573C37.188,122.429,42.426,114.367,49.574,109.008z M39.482,203.439
		c0.686-0.125,1.34-0.32,1.969-0.58c2.58-0.316,4.648-1.527,6.268-3.314c2.514-1.629,4.277-4.416,5.203-7.904
		c0.959-3.6,1.07-7.42,0.986-11.123c-0.041-1.813-0.172-3.621-0.344-5.426c-0.092-0.977-0.078-2.281-0.309-3.408
		c0.309,0.113,0.621,0.217,0.932,0.322c0.518,3.861,1.557,7.596,1.164,11.57c-0.332,3.324-1.031,6.605-2.193,9.74
		c-2.264,6.117-7.744,11.901-14.691,10.281c-0.051-0.015-0.102-0.029-0.154-0.046C38.699,203.545,39.09,203.508,39.482,203.439z
		 M50.07,195.988c0.59-1.215,1.07-2.533,1.453-3.914c0.512-1.834,0.838-3.709,1.059-5.6c-0.041,0.518-0.088,1.036-0.146,1.553
		C52.127,190.766,51.467,193.584,50.07,195.988z M58.064,179.506c0.281,1.039,0.57,2.08,0.883,3.119
		c0.035,5.168-1.572,9.994-4.52,14.064c1.229-2.383,2.068-4.996,2.689-7.5c0.6-2.424,0.914-4.9,1.014-7.394
		C58.162,181.039,58.133,180.275,58.064,179.506z M33.412,201.883c0.693,0.672,1.463,1.279,2.303,1.785
		c2.084,1.256,4.422,1.76,6.729,1.629c-1.531,0.314-3.104,0.352-4.668-0.006c-2.457-0.557-4.189-2.281-5.412-4.398
		C32.686,201.256,33.037,201.586,33.412,201.883z M34.57,206.879c-3.617-2.064-5.346-5.922-5.191-9.922
		c0.898,4.289,2.938,8.135,6.139,10.424C35.197,207.225,34.879,207.057,34.57,206.879z M55.695,199.727
		c-2.775,3.803-7.053,6.752-11.688,7.664c-4.803,0.938-8.34-0.758-10.732-3.715c0.76,0.813,1.652,1.516,2.701,2.064
		c3.836,2.004,8.277,0.994,11.924-0.924c4.611-2.428,8.688-6.773,11.074-11.791C58.256,195.379,57.254,197.594,55.695,199.727z
		 M52.066,166.295c-2.971-1.314-5.652-3.377-7.945-5.82c-0.068-0.063-0.141-0.123-0.209-0.184
		c-5.449-5.016-8.547-11.846-9.635-19.031c-0.195-2.93-0.002-5.912,0.578-8.863c0.002,4.75,0.346,9.5,1.838,14.051
		c2.016,6.132,6.498,10.88,12.086,13.984c1.082,0.603,2.869,1.525,4.164,2.219c2.385,0.746,4.795,1.367,7.217,1.968
		c3.477,0.563,7.732,1.088,10.275,0.815c4.68-0.5,9.801-2.158,13.695-5.149c-1.572,2.059-3.441,3.924-5.697,5.52
		c-0.713,0.507-1.443,0.964-2.189,1.375c-1.486,0.304-2.924,0.839-4.41,1.171c-0.895,0.202-1.803,0.313-2.719,0.377
		C63.357,169.504,56.912,168.438,52.066,166.295z M164.346,206.816c-7.652,9.988-17.824,18.272-29.332,23.389
		c-11.376,5.053-24.246,6.176-35.934,1.514c-12.186-4.857-21.549-15.359-28.072-26.422c-1.301-2.203-2.477-4.447-3.564-6.732
		c-0.01-0.026-0.018-0.057-0.025-0.082c-0.576-0.885-1.045-1.84-1.338-2.346c-0.047-0.084-0.088-0.17-0.139-0.254
		c-1.285-3.277-4.475-14.797-4.775-17.236c0.053,0.246-0.209-3.817-0.324-5.164c6.02,0.613,12.115-0.719,17.398-3.754
		c6.682-3.838,10.953-10.375,13.564-17.455c2.771-7.508,3.398-15.584,4.131-23.481c0.297-3.204,0.971-6.606,2.328-9.534
		c0.512-1.115,1.197-2.023,2-2.782c0.328-0.549,0.725-1.059,1.211-1.502c1.93-1.761,4.875-2.711,7.473-2.726
		c1.564-0.013,2.996,0.336,4.297,0.941c0.295,0.094,0.592,0.185,0.883,0.293c0.01,0.063,0.023,0.126,0.039,0.187
		c2.012,1.186,3.66,3.019,4.914,5.128c2.564,4.319,3.76,9.396,4.818,14.264c0.078,0.361,0.16,0.726,0.24,1.088
		c2.781,9.572,4.917,19.388,9.599,28.252c5.328,10.095,15.005,18.371,26.976,17.476c7.927-0.592,14.813-5.115,19.654-11.233
		c-0.494,3.778-1.029,7.506-2.093,11.26c-0.42,1.49-0.885,2.971-1.371,4.445c-0.067,0.059-0.106,0.149-0.096,0.274
		c-0.369,1.11-0.75,2.224-1.143,3.321c-0.113,0.314-0.232,0.627-0.355,0.943C172.484,195.438,168.664,201.176,164.346,206.816z
		 M180.27,174.76c-0.021,0.08-0.045,0.158-0.067,0.238c0.019-0.086,0.039-0.172,0.06-0.26
		C180.262,174.746,180.268,174.752,180.27,174.76z M182.672,215.332c-0.473-0.223-0.934-0.457-1.383-0.701
		c-4.455-2.438-8.158-6.471-9.438-11.395c0.096-0.152,0.196-0.303,0.295-0.455C173.465,208.023,177.965,212.395,182.672,215.332z
		 M167.242,208.486c0.574-0.701,1.123-1.42,1.65-2.154c-0.396,5.66,4.104,9.885,9.063,12.203
		C173.254,216.406,168.107,212.646,167.242,208.486z M180.529,219.553c0.787,0.262,1.596,0.477,2.412,0.646
		C182.215,220.066,181.4,219.848,180.529,219.553z M180.863,217.637c-5.934-1.584-11.26-5.918-11.182-12.451
		c0.346-0.516,0.678-1.037,0.993-1.569c0.345,5.403,5.193,10.207,9.511,12.829c1.262,0.767,2.621,1.392,4.03,1.865
		C183.082,218.16,181.961,217.93,180.863,217.637z M183.283,201.703c-1.971-2.697-3.141-6.057-4.012-9.465
		c-0.138-0.861-0.26-1.728-0.381-2.59c0.157-0.383,0.313-0.771,0.469-1.156c0.203,5.146,2.297,10.373,5.17,14.553
		C184.096,202.617,183.682,202.168,183.283,201.703z M181.053,192.779c-0.623-2.371-0.719-4.715-0.615-7.084
		c0.424-1.15,0.814-2.307,1.181-3.471c-0.123,3.803-0.002,7.594,0.846,11.373c0.949,4.248,2.914,8.305,5.591,11.791
		C184.73,201.85,182.283,197.471,181.053,192.779z M191.568,204.111c-0.455-0.56-0.885-1.133-1.285-1.715
		c0.756,0.934,1.547,1.844,2.383,2.721C192.295,204.797,191.93,204.455,191.568,204.111z M208.324,211.635
		c-2.494,0.439-5.182-0.229-7.658-1.316c0.021-0.088,0-0.182-0.09-0.26c-0.795-0.666-1.693-1.186-2.588-1.713
		c4.215,2.012,8.969,2.725,13.008,1.479c0.08,0.157,0.182,0.301,0.297,0.422C210.535,210.898,209.654,211.4,208.324,211.635z
		 M209.203,207.316c-2.93,0.84-6.15,0.272-8.969-0.705c-1.848-0.644-3.654-1.603-5.316-2.795c0.553,0.324,1.117,0.631,1.693,0.906
		c3.912,1.873,8.352,2.553,12.635,2.034c0.73-0.088,1.498-0.221,2.27-0.403C210.824,206.742,210.066,207.072,209.203,207.316z
		 M219.1,200.762c0.037-1.297-0.01-2.604-0.151-3.897c0.108,0.319,0.209,0.643,0.284,0.969
		C219.467,198.848,219.391,199.832,219.1,200.762z"/>
</g>
</svg>
