<?xml version="1.0" encoding="utf-8"?>
<!-- Generator: Adobe Illustrator 16.0.0, SVG Export Plug-In . SVG Version: 6.00 Build 0)  -->
<!DOCTYPE svg PUBLIC "-//W3C//DTD SVG 1.1//EN" "http://www.w3.org/Graphics/SVG/1.1/DTD/svg11.dtd">
<svg version="1.1" id="Layer_1" xmlns="http://www.w3.org/2000/svg" xmlns:xlink="http://www.w3.org/1999/xlink" x="0px" y="0px"
	 width="250px" height="250px" viewBox="0 0 250 250" enable-background="new 0 0 250 250" xml:space="preserve">
<g>
	<path fill="#41294A" d="M224.343,66.073c-3.012-0.578-6.051-1.167-9.082-1.815c0.007-0.017,0.017-0.027,0.023-0.045
		c0.809-2.249,0.953-4.625,0.775-6.992c-0.039-0.517-0.629-0.933-1.128-0.826c-5.494,1.159-10.933,0.654-16.25-1.092
		c-5.013-1.646-9.895-3.658-14.95-5.17c-3.981-2.806-8.096-5.391-12.385-7.659c-0.643-0.969-1.315-1.919-2.037-2.84
		c-6.371-8.12-15.79-13.23-25.821-15.206c-9.681-1.908-19.896-0.942-29.477,1.057c-4.509,0.941-8.973,2.18-13.347,3.684
		c-3.662-0.719-7.396-0.805-11.098-0.389c-0.111-0.084-0.256-0.128-0.425-0.098c-0.771,0.139-1.538,0.307-2.296,0.496
		c-7.5,1.345-14.746,4.674-20.824,8.953c-9.857,6.941-17.36,16.787-22.869,27.412c-3.492,6.736-6.164,13.822-8.322,21.098
		c-3.406,4.854-6.312,10.028-9.586,14.971c-3.475,5.244-7.92,9.475-13.574,12.277c-0.512,0.255-0.744,1.031-0.419,1.514
		c1.49,2.215,3.276,4.208,5.555,5.627c0.017,0.011,0.033,0.016,0.05,0.025c-2.221,2.684-4.492,5.319-6.746,7.926
		c-0.994,1.149-0.273,2.579,0.789,3.047c0.576,1.824,2.082,3.843,3.763,5.121c0.145,0.168,0.288,0.336,0.433,0.502
		c0.638,0.725,1.478,1.656,2.419,2.496c0.106,0.119,0.212,0.236,0.321,0.354c1.124,1.194,3.16,3.312,5.124,4.086
		c-0.486,2.404-0.98,4.809-1.491,7.207c-0.111,0.527,0.158,1.122,0.573,1.445c4.175,3.252,7.142,7.772,10.713,11.475
		c0.372-0.928,0.751-1.854,1.13-2.777c2.06-2.286,3.357-5.603,3.693-8.783c0.155-0.408,0.31-0.844,0.453-1.293
		c0.054,2.893-0.654,5.659-1.628,8.461c-0.684,1.965-1.459,3.896-2.145,5.859c1.244,1.135,2.582,2.154,4.079,2.974
		c0.349-2.856,0.657-5.718,0.993-8.579c1.412-12.039,0.816-24.199,2.179-36.239c0.644-5.685,1.992-11.263,3.098-16.868
		c1.053-5.336,2.141-10.674,3.471-15.947c2.6-10.289,6.122-20.365,11.751-29.416c0.133-0.213,0.467-0.017,0.335,0.199
		c-5.938,9.635-9.441,20.494-11.967,31.468c-2.538,11.034-4.75,22.396-5.647,33.691c-0.937,11.785-0.635,23.628-1.638,35.411
		c-0.816,9.59-1.935,19.453-5.044,28.627c0.094,0.252,0.285,0.463,0.535,0.615c3.101,1.888,5.926,4.18,8.789,6.414
		c-0.184,0.078-0.293,0.314-0.134,0.512c1.363,1.686,3.167,2.9,4.968,4.076c1.41,0.92,2.917,1.95,4.528,2.443
		c0.132,0.039,0.249,0.039,0.347,0.013c0.518,0.397,1.35,0.45,1.824,0.027c4.74,1.442,9.57,0.405,14.505-0.38
		c0.597-0.094,1.04-0.629,0.961-1.243c-0.54-4.147-0.666-8.315-0.637-12.483c0.88,3.908,1.742,7.821,2.412,11.767
		c0.249,2.889,0.578,5.758,0.921,8.584c0.065,0.53,0.349,0.866,0.704,1.028c0.606,0.686,1.605,0.965,2.7,1.493
		c1.911,0.922,3.851,1.775,5.819,2.565c1.292,0.519,2.602,0.99,3.926,1.414c0.283,0.174,0.605,0.278,0.926,0.305
		c-3.563-6.772-5.762-14.412-7.421-21.669c-2.639-11.556-4.455-23.368-5.844-35.134c-0.684-5.791-1.4-11.658-1.457-17.494
		c-0.059-6.055,0.22-12.122,0.564-18.165c0.65-11.403,1.422-22.677,4.26-33.78c0.078-0.304,0.535-0.17,0.464,0.133
		c-2.66,11.314-3.31,22.885-3.603,34.469c-0.298,11.79,0.294,23.455,1.796,35.152c1.44,11.228,3.098,22.533,5.614,33.577
		c1.297,5.693,2.841,11.382,5.097,16.779c0.984,2.358,2.1,4.636,3.301,6.868c1.479,0.363,2.973,0.668,4.482,0.893
		c0.588,0.088,1.174,0.154,1.755,0.209c-5.135-8.045-8.594-17.341-11.161-26.287c-3.885-13.521-6.287-27.465-8.775-41.297
		c-0.025-0.143,0.185-0.197,0.221-0.055c3.27,13.199,5.468,26.627,9.465,39.646c3.087,10.058,7.052,19.556,12.793,28.127
		c2.779,0.045,5.492-0.266,8.154-0.848c-2.516-3.949-4.948-7.949-7.226-12.039c-4.898-8.796-9.19-17.929-12.226-27.543
		c-1.472-4.665-2.398-9.406-3.592-14.137c-1.036-4.112-2.125-8.213-3.032-12.356c-1.686-7.714-3.083-15.849-1.582-23.706
		c0.024-0.127,0.236-0.095,0.225,0.033c-0.764,8.426,0.389,16.714,2.316,24.912c1.967,8.369,4.004,16.846,6.854,24.962
		c3.289,9.365,7.61,18.387,12.524,27.003c2.373,4.162,4.723,8.466,7.46,12.455c3.426-0.906,6.774-2.248,10.077-3.865
		c0.254-0.124,0.508-0.258,0.76-0.383c-11.473-10.753-20.393-24.516-26.791-38.563c-4.545-9.975-8.508-20.414-10.373-31.25
		c-1.908-11.105-2.027-22.352-2.728-33.568c-0.007-0.131,0.191-0.124,0.2,0.004c0.916,11.362,1.278,22.896,3.578,34.09
		c2.186,10.627,6.219,20.896,10.912,30.654c4.471,9.293,9.768,18.29,16.27,26.318c3.341,4.124,6.943,7.878,10.785,11.38
		c0.869-0.451,1.735-0.905,2.602-1.361c1.568-0.69,3.119-1.429,4.67-2.137c0.539-0.246,1.082-0.478,1.625-0.701
		c-8.05-4.662-15.48-10.78-21.756-17.462c-7.593-8.086-14.596-17.801-17.192-28.754c-0.03-0.129,0.153-0.168,0.196-0.049
		c7.232,20.117,22.635,34.517,40.217,45.693c1.342-0.502,2.697-0.956,4.078-1.371c1.236-0.371,2.512-0.674,3.746-1.08
		c-6.102-2.725-11.893-6.471-16.938-10.592c-3.826-3.121-7.329-6.588-10.294-10.549c-2.289-3.058-4.822-6.956-5.416-10.81
		c-0.037-0.242,0.297-0.409,0.423-0.167c2.019,3.984,3.597,7.842,6.417,11.396c2.794,3.517,6.002,6.696,9.51,9.503
		c5.48,4.381,11.432,7.845,17.758,10.668c0.09-0.039,0.178-0.074,0.266-0.113c0.334-0.058,0.669-0.114,1.004-0.174
		c-0.833-0.531-1.659-1.057-2.477-1.559c-4.303-2.641-8.441-5.473-12.417-8.588c-7.506-5.883-15.248-13.26-17.521-22.904
		c-0.068-0.294,0.342-0.375,0.443-0.108c3.717,9.604,10.167,17.271,18.713,23.026c4.13,2.78,8.445,5.265,12.732,7.791
		c2.002,1.18,4.201,2.279,6.295,3.504c0.611,0.306,1.227,0.604,1.852,0.885c7.408,3.332,15.777,4.625,23.817,3.358
		c8.458-1.333,17.245-5.712,21.612-13.407c0.025-0.048,0.021-0.096,0.003-0.141c0.853-1.26,1.863-2.843,2.397-4.32
		c1.427-2.775,2.607-5.674,3.541-8.692c0.387-0.153,0.775-0.304,1.155-0.471c-0.063-0.937-0.153-1.876-0.253-2.813
		c0.387-1.609,0.674-3.221,0.875-4.836c0.304,2.325,0.572,4.657,0.809,6.99c2.182-1.061,4.248-2.34,6.166-3.902
		c-0.719-9.153-3.188-17.974-6.578-26.699c-1.121-2.889-2.346-5.729-3.622-8.543c-0.385-1.615-0.787-3.227-1.207-4.834
		c2.286,4.623,4.456,9.301,6.408,14.066c3.14,7.665,5.849,16.063,6.7,24.513c0.375-0.36,0.747-0.729,1.109-1.112
		c0.932-0.99,1.805-2.029,2.639-3.098c-0.394-2.221-0.871-4.427-1.482-6.615c-1.401-5.014-3.459-9.838-5.693-14.529
		c-3.682-7.731-7.9-15.251-12.266-22.635c-0.668-2.369-1.352-4.75-2.077-7.119c0.104,0.111,0.212,0.217,0.329,0.318
		c0.082,0.295,0.168,0.586,0.248,0.882c0.136,0.224,0.275,0.448,0.412,0.671c5.518,8.983,10.763,18.234,15.29,27.76
		c2.846,5.982,5.521,12.531,6.769,19.225c0.211-0.193,0.377-0.443,0.479-0.721c0.689-1.027,1.344-2.079,1.961-3.154
		c0.939-1.637,1.824-3.302,2.65-5c0.473-0.971,1.018-1.718,1.063-2.531c0.158-0.31,0.17-0.7-0.076-1.105
		c-1.318-2.163-2.671-4.35-4.09-6.504c-1.709-3.125-3.262-6.333-4.804-9.547c2.319,2.896,4.528,5.875,6.44,9.069
		c0.283,0.471,0.887,0.602,1.355,0.338c3.879-2.174,7.825-4.111,10.34-7.733c0.565,0.034,1.117-0.464,1.259-1.025
		c0.084-0.035,0.165-0.1,0.234-0.2c0.854-1.232,1.339-2.784,1.815-4.203c0.611-1.813,1.198-3.657,1.224-5.589
		c0.001-0.223-0.205-0.327-0.377-0.281c0.767-3.138,1.477-6.299,2.602-9.326c0.093-0.244,0.106-0.497,0.035-0.725
		c-7.231-4.693-13.45-10.965-19.31-17.211c-7.199-7.678-13.517-16.115-20.672-23.83c-6.453-6.961-13.756-13.322-21.146-19.307
		c-0.065-0.303-0.134-0.606-0.203-0.908c3.014,2.398,5.962,4.883,8.889,7.385c3.861,3.305,7.882,6.458,11.465,10.072
		c7.591,7.658,13.879,16.479,21.506,24.109c1.811,1.813,3.604,3.641,5.424,5.444c0.592-1.399,0.965-2.847,1.208-4.327
		c-1.561-0.992-3.168-1.913-4.729-2.908c-2.225-1.42-4.246-2.963-5.802-5.012c0.348,0.236,0.695,0.453,1.028,0.652
		c1.989,2.037,4.723,3.639,7.424,4.098c0.775,0.438,1.55,0.873,2.319,1.318c0.453-4.557,0.035-9.35,1.155-13.924
		c0.111-0.452-0.027-1.018-0.396-1.323c-1.68-1.396-3.351-2.802-5.015-4.214c0.943-1.623,1.198-4.225,1.324-5.678
		c0.013-0.143,0.021-0.282,0.03-0.424c0.192-1.105,0.267-2.219,0.311-3.078c0.013-0.195,0.02-0.393,0.028-0.589
		c0.467-1.821,0.408-4.062-0.195-5.653C225.956,67.725,225.671,66.328,224.343,66.073z M159.518,34.418
		c7.749,5.395,12.705,13.506,15.896,22.293c-1.052-2.215-2.255-4.354-3.517-6.395c-3.07-4.958-6.97-9.408-11.396-13.198
		c-7.517-6.434-18.775-11.397-28.771-8.748c-4.666-0.21-9.357,0.169-13.986,0.958c0.026-0.185,0.018-0.375-0.044-0.575
		c-0.098-0.308-0.349-0.545-0.628-0.733C131.68,25.225,147.149,25.813,159.518,34.418z M189.622,93.901
		c-0.9,1.052-1.802,2.087-2.74,3.083c-0.067-0.15-0.138-0.298-0.209-0.445c0.642-0.384,1.102-0.975,1.531-1.608
		c0.59-0.603,1.144-1.255,1.763-1.828c0.256,0.205,0.632,0.34,0.903,0.424c-0.063,0.257-0.143,0.511-0.229,0.761
		c-0.078,0.219-0.168,0.455-0.281,0.682c-0.107,0.141-0.2,0.289-0.275,0.443c-0.051,0.069-0.104,0.141-0.162,0.201
		c-0.042,0.041,0.014,0.118,0.061,0.082c0.017-0.012,0.03-0.025,0.045-0.037c0.024,0.033,0.069,0.045,0.117,0.021
		c0.514-0.269,0.904-0.833,1.252-1.285c0.293-0.382,0.766-1.003,0.617-1.507c-0.022-0.082-0.092-0.121-0.166-0.125
		c-0.267-0.401-0.573-0.771-0.934-1.076c-0.177-0.23-0.449-0.422-0.695-0.598c-1.638-1.803-3.289-3.591-4.971-5.354
		c-1.607-1.684-3.242-3.362-4.891-5.028c0.025-0.015,0.053-0.032,0.078-0.048c0.629-0.346,0.776-0.909,0.627-1.423
		c2.418,2.456,4.782,4.968,7.09,7.54c1.32,1.471,2.612,2.964,3.893,4.467c0.014-0.032,0.032-0.064,0.047-0.095
		c0.07,0.11,0.137,0.223,0.211,0.331c0.053,0.08,0.14,0.102,0.218,0.088c0.059,0.07,0.114,0.143,0.171,0.211
		c0.098,0.113,0.327,0.104,0.393-0.043c0.268-0.588,0.549-1.174,0.992-1.654c0.236-0.258,0.434-0.27,0.598-0.158
		c-0.208,0.131-0.4,0.275-0.582,0.438c-1.383,2.962-3.033,5.309-5.563,7.493c-0.099,0.083-0.2,0.164-0.3,0.247
		c-0.307,0.013-0.598,0.075-0.882,0.163c-0.007-0.022-0.013-0.045-0.02-0.067c1.042-1.231,1.985-2.546,2.791-3.922
		C190.319,93.934,189.888,93.594,189.622,93.901z M108.106,45.762c-9.537,13.35-8.26,30.572-1.352,44.695
		c-0.359,0.217-0.714,0.443-1.061,0.672c-2.769-4.629-3.646-9.822-4.764-14.984c-0.439-3.964-0.531-7.943-0.77-11.917
		c0.288-1.851,0.66-3.671,1.125-5.427c1.431-5.406,3.957-10.542,7.501-14.875c2.407-2.939,5.354-5.398,8.639-7.314
		c1.916-1.119,3.963-1.803,5.987-2.617c0.124-0.012,0.247-0.031,0.371-0.043c-0.076,0.022-0.15,0.043-0.225,0.067
		C117.229,36.025,111.927,40.412,108.106,45.762z M114.379,41.49c-0.473,0.646-0.894,1.341-1.277,2.055
		c-0.066,0.057-0.133,0.115-0.194,0.184c-1.75,2.008-3.55,4.116-5.141,6.348c0.268-0.506,0.542-1.011,0.835-1.511
		C110.214,45.818,112.167,43.46,114.379,41.49z M101.35,91.621c0.194,0.547,0.404,1.082,0.634,1.604
		c0.084,0.196,0.205,0.349,0.345,0.472c-0.136,0.121-0.276,0.238-0.408,0.362c-2.323-3.078-3.589-6.04-4.229-9.933
		c-0.523-3.18-0.996-6.34-1.191-9.561c-0.407-6.683,0.141-13.621,2.684-19.871c2.168-5.328,5.763-9.951,9.924-13.871
		c2.436-2.295,5.322-4.398,8.472-5.811c0.154-0.037,0.312-0.066,0.466-0.104c-2.912,1.475-5.633,3.49-7.847,5.514
		c-4.458,4.074-7.538,9.455-9.523,15.107c-2.183,6.212-3.154,13.354-2.67,20.328c0.019,1.004,0.058,1.996,0.13,2.957
		c0.215,2.849,0.656,5.646,1.449,8.394C99.979,88.592,100.538,90.23,101.35,91.621z M98.862,131.498
		c1.855,3.746,4.182,7.178,6.615,10.564c1.373,1.914,2.806,3.92,4.337,5.823c-0.413-0.329-0.829-0.655-1.237-0.993
		c-1.782-1.9-3.445-3.932-4.979-6.1c-2.82-3.99-5.1-8.377-7.009-12.92c-0.511-1.253-1.005-2.514-1.472-3.789
		c-1.367-3.746-2.589-7.551-3.629-11.406c-3.945-15.653-3.065-31.621,1.436-47.109c-0.271,1.939-0.529,3.882-0.771,5.824
		c-0.365,2.949-0.67,5.905-0.896,8.869c-0.258,1.911-0.468,3.832-0.595,5.762c-0.167,2.512-0.08,4.989,0.174,7.443
		c0.078,4.89,0.424,9.779,1.112,14.598C93.101,116.127,95.244,124.191,98.862,131.498z M97.781,52.606
		c0.1-0.21,0.2-0.419,0.31-0.629c0.278-0.408,0.55-0.823,0.835-1.228c-0.358,0.66-0.698,1.329-1.019,2.008
		C97.87,52.704,97.828,52.65,97.781,52.606z M105.603,36.027c0.002-0.049,0.004-0.099-0.002-0.146
		c0.66-0.25,1.316-0.498,1.957-0.757c-0.192,0.198-0.371,0.415-0.539,0.652C106.548,35.934,106.071,36.029,105.603,36.027z
		 M13.869,115.239c5.248-2.909,9.354-7.097,12.694-12.103c2.866-4.296,4.972-9.066,7.444-13.608
		c-0.139,0.503-0.272,1.011-0.408,1.516c-0.061,0.028-0.119,0.062-0.169,0.112c-0.934,0.917-1.009,1.928-1.288,3.158
		c-0.323,1.427-0.81,2.812-1.346,4.17c-0.993,2.514-2.343,4.821-3.687,7.156c-2.739,4.758-7.188,8.174-10.441,12.504
		C15.623,117.289,14.697,116.313,13.869,115.239z M20.266,116.83c-0.671,0.855-1.35,1.705-2.035,2.55
		c-0.082-0.119-0.189-0.229-0.33-0.323c-0.041-0.027-0.08-0.056-0.121-0.084C18.646,118.313,19.473,117.592,20.266,116.83z
		 M13.459,132.533c-0.109,0.045-0.191,0.133-0.214,0.242c-0.213-0.318-0.422-0.639-0.628-0.961c0.098-0.08,0.194-0.172,0.285-0.281
		c5.863-7.086,12.101-14.729,16.756-23.054c-0.113,0.589-0.224,1.181-0.335,1.771c-1.214,1.154-1.506,3.641-2.165,5.076
		c-0.97,2.107-2.305,4.045-3.696,5.891c-1.67,2.216-3.586,4.232-5.508,6.229C16.547,128.904,14.198,130.539,13.459,132.533z
		 M16.266,134.722c-0.316-0.447-0.624-0.9-0.922-1.356c1.518-0.645,2.928-2.109,4.026-3.09c1.617-1.447,3.118-3.006,4.543-4.633
		c-0.505,0.902-1.042,1.787-1.599,2.655c-0.826,1.286-1.766,2.495-2.817,3.605C18.901,132.531,17.43,134.045,16.266,134.722z
		 M25.307,151.969c-0.202-0.186-0.402-0.371-0.608-0.549c2.759-13.1,5.013-26.287,7.538-39.433
		c2.131-11.097,4.497-22.18,8.239-32.861c5.118-14.61,13.768-29.044,26.109-38.354c-2.291,2.068-4.437,4.272-6.425,6.516
		c-7.944,8.968-13.64,19.484-17.831,30.657c-8.906,23.728-11.299,49.44-17.019,74.006C25.309,151.956,25.309,151.963,25.307,151.969
		z M31.967,158.424c-0.023,0.012-0.045,0.023-0.068,0.035c-0.182,0.107-0.317,0.269-0.433,0.441
		c-0.014-0.016-0.028-0.033-0.042-0.052c0.265-0.309,0.521-0.627,0.767-0.956C32.12,158.07,32.041,158.246,31.967,158.424z
		 M35.872,140.324c-0.896,6.216-2.146,12.176-5.155,17.666c-0.234-0.287-0.469-0.572-0.701-0.856
		c1.727-4.614,2.849-9.513,4.121-14.258c0.992-3.7,1.875-7.428,2.705-11.168C36.52,134.582,36.284,137.46,35.872,140.324z
		 M54.795,61.33c-5.775,8.679-10.219,18.034-12.817,28.151c-1.743,6.776-2.625,13.733-3.011,20.72
		c-1.028,4.746-1.86,9.541-2.759,14.311c-0.984,5.218-1.935,10.443-2.969,15.65c-1.094,5.502-2.57,10.945-3.658,16.445
		c-0.621-0.752-1.247-1.494-1.89-2.212c2.04-6.271,3.149-12.917,4.403-19.379c1.19-6.124,2.299-12.263,3.465-18.39
		c2.274-11.961,4.837-23.887,8.872-35.394c6.626-18.898,18.036-39.242,36.644-48.195c1.567-0.53,3.177-0.987,4.827-1.362
		c-2.145,0.958-4.2,2.245-6.151,3.707c-1.583,0.983-3.116,2.055-4.593,3.184C67.051,44.76,60.42,52.877,54.795,61.33z M54.23,83.935
		c2.459-6.732,5.043-13.417,7.852-20.015c0.088-0.205,0.137-0.4,0.152-0.588c3.532-5.477,7.296-10.782,11.941-15.451
		c7.498-7.535,17.14-12.079,27.057-15.544c4.996-1.746,10.324-3.257,15.768-4.303c0.207,0.141,0.396,0.304,0.547,0.514
		c0.178,0.248,0.205,0.521,0.156,0.788c-4.897,0.837-9.726,2.127-14.382,3.668c-8.551,2.83-16.614,7.22-23.387,13.135
		c-5.02,1.172-9.231,6.759-11.932,10.619c-4.35,6.221-7.384,13.461-10.395,20.391c-1.828,4.21-3.48,8.496-4.884,12.862
		C53.173,87.974,53.672,85.945,54.23,83.935z M51.292,103.66c0.457-3.471,1.258-6.91,2.263-10.299
		c-0.778,3.219-1.452,6.46-2.073,9.709c-0.152,0.793-0.292,1.586-0.428,2.379C51.133,104.854,51.213,104.256,51.292,103.66z
		 M49.462,115.893c0.032-0.199,0.064-0.396,0.099-0.586c0.164-0.928,0.317-1.855,0.467-2.783c-0.208,1.727-0.387,3.455-0.542,5.186
		C49.478,117.113,49.47,116.504,49.462,115.893z M46.378,196.803c-0.177-0.139-0.354-0.274-0.532-0.412
		c0.023-0.06,0.049-0.117,0.066-0.183c6.558-25.679,3.908-52.123,5.423-78.295C52.1,104.76,54.455,91.795,59.06,79.43
		c1.698-4.562,3.75-9.033,5.795-13.448c0.919-1.985,1.896-3.981,2.996-5.904c0.013-0.022,0.025-0.046,0.039-0.068
		c1.428-2.481,3.068-4.835,5.076-6.862c0.238-0.24,0.487-0.47,0.743-0.692c-0.062,0.181,0.181,0.395,0.34,0.241
		c0.137-0.131,0.278-0.258,0.416-0.389c-3.226,4.229-5.831,9-7.946,13.618c-0.893,1.952-1.727,3.923-2.505,5.911
		c-0.06-0.005-0.115,0.014-0.151,0.074c-1.961,3.345-3.568,6.809-4.892,10.363c-6.16,14.928-7.027,31.119-7.154,47.314
		c-0.078,10.027-0.014,20.057-0.351,30.08c-0.088,2.186-0.184,4.371-0.296,6.555c-0.035,0.691-0.068,1.383-0.101,2.078
		C50.489,177.912,49.349,187.664,46.378,196.803z M62.036,77.245c-1.046,3.09-1.971,6.219-2.787,9.38
		C59.985,83.447,60.901,80.313,62.036,77.245z M56.447,122.038c0.749-11.848,2.247-23.586,4.896-35.163
		c2.472-10.809,5.977-21.446,12.021-30.816c2.457-3.811,5.397-7.152,8.702-10.172c1.49-1.107,3.021-2.16,4.609-3.14
		c1.297-0.805,2.639-1.54,4.01-2.229c-0.395,0.305-0.787,0.607-1.166,0.908c-4.366,3.449-8.197,7.563-11.464,12.061
		c-6.353,8.748-10.831,18.877-13.756,29.251c-3.324,11.788-4.866,24.196-6.011,36.359c-1.208,12.805-1.639,25.673-1.876,38.526
		c-0.264,14.066,0.354,28.246-1.32,42.24C57.3,173.971,54.811,147.971,56.447,122.038z M87.84,49.119
		c-2.61,3.454-4.886,7.158-6.896,10.758c-2.85,5.098-5.321,10.383-7.433,15.809c0.12-0.436,0.239-0.871,0.358-1.305
		c1.587-5.828,3.466-11.53,6.755-16.645C82.71,54.494,85.159,51.68,87.84,49.119z M59.652,204.035
		c-0.779-0.135-1.544-0.326-2.295-0.573c2.348-12.542,2.492-25.171,2.815-37.896c0.167-6.61,0.306-13.219,0.524-19.825
		c0.195,8.054,0.626,16.109,1.075,24.139c0.622,11.121,0.346,22.269-2.179,33.158C59.502,203.427,59.535,203.76,59.652,204.035z
		 M73.198,188.232c-0.049-0.215-0.095-0.431-0.145-0.645c0.002-0.043,0.001-0.087-0.012-0.136c-0.021-0.074-0.046-0.147-0.067-0.222
		c-0.056-0.247-0.112-0.498-0.166-0.745c0.073,0.128,0.151,0.253,0.227,0.376C73.09,187.318,73.143,187.774,73.198,188.232z
		 M68.048,172.734c0.024,1.641,0.035,3.281,0.029,4.922c-0.017,4.769-0.081,9.541-0.308,14.305
		c-0.179,3.723-1.038,7.947,0.223,11.564c-0.596,0.104-1.19,0.205-1.789,0.296c0.196-2.261-0.083-4.582,0.05-6.869
		c0.132-2.251,0.374-4.495,0.535-6.745c0.513-7.182,0.437-14.369,0.095-21.557c-0.283-5.941-0.769-11.898-1.186-17.861
		c0.351,4.21,0.757,8.41,1.181,12.588C67.197,166.495,67.563,169.626,68.048,172.734z M72.364,89.181
		c-2.883,10.993-4.627,22.534-4.367,33.914c0.122,5.31,0.486,10.624,0.976,15.931c0.058,2.54,0.157,5.08,0.298,7.617
		c0.545,9.854,1.487,19.695,2.544,29.511c-0.428-1.517-0.813-3.043-1.187-4.571c-0.237-0.968-0.444-1.962-0.641-2.97
		c-0.409-5.304-1.086-10.598-2.075-15.823c-0.032-0.639-0.066-1.28-0.1-1.921c-0.648-12.319-1.625-24.676-0.693-37.005
		c1.694-22.441,9.033-45.904,22.923-63.868c4.021-5.202,8.897-9.062,14.29-12.669c0.143,0.072,0.287,0.129,0.435,0.186
		c-7.812,5.812-14.5,12.893-19.681,21.189C79.234,68.071,75.16,78.521,72.364,89.181z M82.922,86.145
		c-0.122,1.466-0.185,2.934-0.174,4.398c0.06,8.448,1.391,16.911,4.011,24.947c1.607,5.642,3.756,11.123,6.637,16.355
		c2.93,5.32,6.677,10.115,10.939,14.428c3.427,3.471,7.481,6.332,11.612,8.984c-1.126-0.541-2.227-1.133-3.302-1.766
		c-4.253-2.512-7.975-5.822-11.315-9.439c-5.897-6.389-10.679-14.222-13.684-22.377c-0.14-0.38-0.695-0.126-0.569,0.248
		c2.246,6.674,5.396,12.952,9.479,18.629c-0.182,0-0.368,0.018-0.561,0.059c-0.06,0.014-0.115,0.03-0.172,0.047
		c-0.05-0.176-0.123-0.354-0.243-0.525C84.622,124.404,78.871,105.082,82.922,86.145z M85.55,106.234
		c0.213,1.049,0.449,2.092,0.709,3.123c-0.135-0.494-0.265-0.992-0.391-1.488C85.755,107.325,85.653,106.779,85.55,106.234z
		 M103.342,170.035c-4.343-2.186-7.817-6.229-10.266-10.343c-2.242-3.769-3.271-7.315-1.587-11.409
		c0.785-1.912,1.896-3.784,3.395-5.221c1.631-1.564,2.665-0.652,4.058,0.625c0.012,0.012,0.025,0.018,0.038,0.024
		c0.659,0.81,1.337,1.606,2.039,2.388c-6.014-1.096-7.66,7.3-6.024,12.405c1.192,3.712,4.14,6.848,7.141,9.198
		c2.04,1.599,4.692,3.165,7.399,3.799C107.438,171.8,105.13,170.937,103.342,170.035z M196.713,132.207
		c2.476,8.646,4.655,17.393,6.003,26.293c0.951,6.27,1.327,12.518,0.615,18.768c-0.037-0.256-0.072-0.513-0.109-0.77
		c-0.376,2.021-0.813,4.033-1.118,6.068l0.21,0.605c-0.399,1.684-0.887,3.346-1.459,4.983c-1.161,2.456-2.422,4.858-3.947,7.12
		c-2.064,3.064-5.092,5.289-7.109,8.327c-0.018,0.027-0.027,0.056-0.033,0.084c-1.413,1.068-2.889,2.063-4.504,2.92
		c-3.639,1.929-7.799,2.628-11.869,2.872c-6.559,0.392-13.095-0.848-19.175-3.257c-2.901-0.628-5.716-1.571-8.388-2.866
		c-5.638-2.736-10.733-6.557-15.268-10.861c-4.48-4.252-8.595-8.968-12.033-14.105c-1.266-1.889-2.613-3.834-2.543-6.143
		c-0.064-0.133-0.132-0.266-0.192-0.4c0.088-0.089,0.17-0.188,0.252-0.285c0.278-1.946,0.788-3.854,1.149-5.797
		c-0.315-1.041-0.864-2.002-1.6-2.83c-0.377-0.912-0.943-1.742-1.71-2.401c-0.269-0.231-0.699,0.059-0.636,0.388
		c0.359,1.857,0.856,3.777,0.648,5.682c-0.231,2.133-1.648,2.686-3.01,3.918c-5.605-1.129-10.438-4.699-13.534-9.554
		c-2.864-4.49-3.172-15.678,4.241-14.245c2.943,3.164,6.287,5.965,9.938,8.279c1.871,1.185,3.879,2.166,5.926,3.007
		c1.114,0.458,2.58,1.149,3.971,1.419c0.389,0.201,0.783,0.385,1.189,0.533c0.035,0.014,0.071,0.02,0.106,0.021
		c0.1,0.054,0.199,0.103,0.306,0.148c0.796,0.339,1.454-0.422,1.237-1.18c-0.648-2.252-3.136-4.189-4.603-6.002
		c-2.265-2.8-4.391-5.711-6.354-8.729c-3.181-4.889-5.867-10.1-8.368-15.361c-0.261-0.545-0.51-1.095-0.761-1.646
		c-3.179-8.753-5.703-17.886-7.324-26.969c-0.937-5.244-1.552-10.477-1.771-15.791c1.012,3.9,2.456,7.771,4.478,11.176
		c0.147,0.248,0.39,0.355,0.637,0.36c-0.015,0.224,0.252,0.437,0.478,0.317c0.139-0.072,0.278-0.148,0.418-0.223
		c0.538,0.205,1.097-0.171,1.278-0.684c2.637-1.416,5.238-2.846,7.877-4.216c-0.365-0.708-0.661-1.447-0.916-2.094
		c-1.081-2.721-1.756-5.602-2.38-8.456c-1.583-7.247-3.063-14.551-2.015-21.982c0.033-0.24,0.402-0.249,0.388,0.008
		c-0.378,7.025,1.153,13.953,2.795,20.736c0.63,2.6,1.274,5.218,2.189,7.735c0.396,1.086,0.82,2.256,1.433,3.284
		c1.934-0.979,3.896-1.92,5.912-2.791c1.055-0.457,2.111-0.912,3.169-1.367c-0.91-1.805-1.7-3.672-2.364-5.582
		c-1.815-5.216-2.959-10.684-3.375-16.191c-0.697-9.242,0.015-21.615,8.044-27.808c0.286-0.222,0.683,0.148,0.405,0.411
		c-7.332,6.904-7.962,18.535-6.975,27.935c0.543,5.189,1.617,10.378,3.404,15.286c0.662,1.816,1.409,3.613,2.305,5.33
		c1.84-0.785,3.687-1.56,5.535-2.325c-2.418-6.765-2.813-14.128-3.946-21.2c-0.56-3.488-1.177-7.03-1.1-10.578
		c0.055-2.527,0.321-5.316,2.109-7.261c0.206-0.224,0.589,0.074,0.42,0.327c-1.737,2.586-1.587,6.079-1.278,9.049
		c0.329,3.186,0.947,6.325,1.501,9.477c1.147,6.51,1.652,13.285,3.954,19.504c2.981-1.217,5.98-2.397,9.007-3.505
		c0.271-0.098,0.54-0.19,0.811-0.288c-1.363-3.756-2.384-7.68-3.503-11.396c-2.1-6.982-4.371-13.971-8.442-20.089
		c-0.167-0.249,0.229-0.456,0.397-0.222c4.063,5.6,6.466,12.018,8.469,18.588c1.314,4.32,2.669,8.545,4.215,12.717
		c1.011-0.355,2.024-0.702,3.041-1.037c-0.177-0.752-0.37-1.502-0.613-2.242c-0.74-2.248-1.589-4.451-2.492-6.638
		c-1.409-3.416-2.824-6.829-4.154-10.276c-2.602-6.745-5.256-14.178-10.628-19.264c-0.307-0.291,0.147-0.715,0.458-0.451
		c5.791,4.896,8.569,12.422,11.289,19.275c1.54,3.882,3.195,7.717,4.747,11.593c0.946,2.364,2.054,4.938,2.776,7.553
		c1.662-0.53,3.332-1.038,5.01-1.511c-4.85-14.211-10.186-29.432-22.768-38.457c-0.283-0.205-0.028-0.66,0.279-0.474
		c13.448,8.103,19.084,24.163,23.995,38.517c2.321-0.623,4.657-1.188,7.015-1.678c0.059-0.012,0.119-0.022,0.178-0.035
		c-0.238-1.18-0.477-2.364-0.853-3.486c-1.021-3.035-2.27-5.991-3.712-8.852c-2.264-4.488-4.813-8.863-7.779-12.924
		c-2.322-3.176-4.773-6.354-7.66-9.041c-2.83-2.637-6.415-5.299-10.496-4.202c-0.176,0.049-0.277-0.211-0.116-0.295
		c3.311-1.753,7.136,0.318,9.793,2.38c3.438,2.668,6.315,5.936,8.983,9.355c3.379,4.333,6.376,8.938,8.832,13.859
		c1.4,2.801,2.696,5.672,3.711,8.639c0.424,1.249,0.983,2.703,1.385,4.178c1.523-0.26,3.052-0.469,4.584-0.658
		c-0.559-2.215-1.125-4.416-2.049-6.578c-1.442-3.374-3.164-6.629-5.182-9.695c-3.865-5.873-8.47-11.334-13.823-15.907
		c-0.248-0.212,0.091-0.646,0.353-0.451c5.979,4.431,11.111,9.954,15.109,16.237c2.094,3.287,3.908,6.718,5.367,10.332
		c0.73,1.814,1.503,3.822,2.012,5.848c0.266-0.031,0.531-0.063,0.798-0.094c2.462,0.125,4.927,0.305,7.386,0.387
		c-0.104-0.982-0.127-1.998-0.316-2.852c-0.506-2.293-1.163-4.556-1.945-6.77c-1.671-4.732-3.803-9.379-6.441-13.652
		c-5.994-9.715-15.373-16.396-26.362-19.398c-0.194-0.055-0.108-0.335,0.085-0.298c10.706,2.108,21.548,9.161,27.369,18.461
		c2.847,4.548,5.166,9.446,7.019,14.479c0.872,2.371,1.663,4.787,2.16,7.27c0.233,1.163,0.689,2.746,0.53,4.074
		c-0.305-0.18-0.592-0.382-0.859-0.609c-0.262-0.223-0.664,0.174-0.426,0.429c0.341,0.37,0.722,0.7,1.118,1.011
		c0.091,0.271,0.179,0.543,0.259,0.818c0.133,0.456,0.2,1.014,0.285,1.572c-0.004,0.021-0.008,0.042-0.012,0.063
		c-3.428-1.1-6.323,2.981-7.697,5.807c-1.604,3.297-3.053,7.21-3.324,11.037c-0.371,1.78-0.4,3.587,0.154,5.232
		c0.191,0.573,0.942,0.485,1.024-0.104c0.227-1.607,0.269-3.152,0.743-4.721c0.645-2.141,1.781-4.14,3.072-5.949
		c1.965-2.758,4.564-5.002,7.434-6.775c0.107,0.214,0.2,0.434,0.301,0.648c-0.003,0.002-0.008,0.007-0.013,0.01l2.764,7.962
		c0.138,0.438,0.28,0.874,0.444,1.301c-0.686-0.432-1.436-0.77-2.259-0.989c-0.411-0.109-0.636,0.568-0.233,0.712
		c2.035,0.724,3.42,2.167,4.482,4.02c0.55,0.956,0.774,2.084,1.04,3.171c-0.567,0.553-1.153,1.09-1.766,1.605
		c-1.243,0.588-2.485,1.184-3.706,1.816c-2.602,1.348-5.431,3.211-7.002,5.77c-0.627,0.503-1.224,1.043-1.763,1.639
		c-0.123,0.135,0.025,0.393,0.206,0.31c0.209-0.095,0.41-0.198,0.611-0.308c0.037,0.086,0.084,0.166,0.142,0.234
		c0.021,0.117,0.066,0.238,0.153,0.354c3.111,4.105,8.465,3.267,12.09,0.362c1.087-0.868,2.264-2.07,3.227-3.437
		c0.006,0.273-0.002,0.545-0.047,0.806c-0.291,1.721-1.48,3.443-2.582,4.766c-0.144,0.172,0.063,0.398,0.25,0.288
		c1.611-0.936,2.643-2.178,3.271-3.875c1.425,3.706,3.018,7.337,4.296,11.104C194.366,123.837,195.519,128.04,196.713,132.207z
		 M143.88,34.996c0.635,0.252,1.26,0.531,1.878,0.824c0.02,0.07,0.036,0.143,0.058,0.211
		C145.179,35.668,144.536,35.322,143.88,34.996z M175.298,109.123c0.824-1.143,1.873-1.965,3.029-2.625
		c0.029,0.24,0.074,0.485,0.157,0.742c0.495,1.514,2.057,2.266,3.567,2.414c-2.535,1.396-5.396,1.518-7.61-0.659
		c0.092-0.03,0.18-0.065,0.268-0.103C174.671,109.214,175.09,109.41,175.298,109.123z M179.254,106.012
		c0.567-0.275,1.153-0.525,1.745-0.763c-0.055,0.486,0.061,0.972,0.477,1.354c0.584,0.539,1.48,0.601,2.22,0.439
		c0.674-0.149,1.19-0.49,1.56-0.945c-0.053,0.223-0.119,0.437-0.202,0.642C183.804,109.804,179.315,108.422,179.254,106.012z
		 M182.439,105.51c0.087-0.156,0.171-0.31,0.257-0.465c0.025-0.021,0.053-0.041,0.08-0.063c0.082,0.106,0.165,0.211,0.247,0.317
		c-0.101,0.097-0.2,0.192-0.3,0.29c-0.068,0.021-0.137,0.041-0.215,0.066c-0.02-0.015-0.031-0.021-0.047-0.033
		C182.457,105.55,182.448,105.486,182.439,105.51z M186.701,105.152c-0.009-0.699-0.149-1.398-0.421-2.035
		c0.633-0.311,1.244-0.655,1.787-1.061C187.759,103.164,187.296,104.19,186.701,105.152z M195.719,122.67
		c-0.077-0.041-0.151-0.032-0.207,0.004c-0.021-0.027-0.045-0.055-0.065-0.082c-0.049-0.156-0.095-0.311-0.143-0.467
		c0.049-0.041,0.083-0.098,0.08-0.174c-0.005-0.154-0.017-0.309-0.025-0.463C195.483,121.881,195.601,122.275,195.719,122.67z
		 M212.313,141.195c-0.014-0.128-0.027-0.257-0.047-0.388c0.098,0.204,0.196,0.407,0.295,0.612c0.025,0.063,0.049,0.128,0.076,0.191
		c0.016,0.043,0.04,0.074,0.064,0.101c0.084,0.178,0.17,0.353,0.253,0.53C212.743,141.893,212.528,141.545,212.313,141.195z
		 M225.025,150.054c-1.114-3.224-4.044-5.699-6.22-8.2c-2.787-3.201-5.463-6.5-8.104-9.82c-0.907-1.143-1.806-2.295-2.692-3.453
		c-1.375-2.439-2.846-4.827-4.345-7.18c-2.009-3.154-4.04-6.311-6.115-9.445c2.995,4.396,5.94,8.824,9.019,13.132
		c3.725,5.207,7.637,10.27,11.955,15.001c1.353,1.482,2.758,2.917,4.092,4.418c1.355,1.521,2.44,3.297,3.823,4.77
		C225.971,149.539,225.498,149.797,225.025,150.054z M216.413,130.61c0.983,1.196,1.979,2.388,2.98,3.57
		C218.377,133.011,217.382,131.82,216.413,130.61z M232.101,144.59c0.068-0.199,0.111-0.41,0.119-0.625
		c0.066,0.059,0.133,0.121,0.199,0.179C232.317,144.296,232.207,144.441,232.101,144.59z M188.627,77.709
		c0.009,0.062,0.027,0.122,0.054,0.184c-0.428-0.436-0.855-0.871-1.289-1.303C187.8,76.967,188.216,77.337,188.627,77.709z
		 M189.448,81.076c2.15,2.421,4.247,4.893,6.313,7.389c0.056,0.008,0.109,0.009,0.167,0.021c0.252,0.338,0.524,0.66,0.824,0.964
		c0.115,0.117,0.346,0.083,0.387-0.093c0.141-0.613,0.183-1.242,0.209-1.869c0-0.059,0.004-0.121,0.008-0.185
		c0.26,0.271,0.518,0.546,0.749,0.837c0.132,0.298,0.271,0.593,0.403,0.894c0.42,0.962,0.055,1.673,0.026,2.631
		c-0.023,0.757,0.476,1.481,0.896,2.056c0.756,1.034,1.772,1.871,2.7,2.744c0.19,0.18,0.39,0.372,0.593,0.568
		c10.29,12.809,20.502,25.66,33.688,35.734c0.049,0.037,0.096,0.063,0.147,0.091c-0.048,0.194-0.097,0.388-0.145,0.583
		c-7.114-4.746-13.288-10.928-18.993-17.322c-0.405-0.466-0.811-0.932-1.218-1.395c-1.282-1.465-2.553-2.938-3.819-4.416
		c-4.452-5.262-8.739-10.662-13.033-16.055c-0.145-0.237-0.293-0.473-0.448-0.705c-0.094-0.139-0.274-0.16-0.396-0.063
		c-0.002,0-0.003,0-0.005,0c-0.878,0.449-1.749,1.182-1.99,2.18c-0.114,0.469,0.038,1.008,0.331,1.443
		c-0.013,0.011-0.021,0.022-0.031,0.033c0.031,0.021,0.065,0.043,0.098,0.063c0.137,0.181,0.297,0.338,0.476,0.462
		c0.001,0.001,0.002,0.003,0.003,0.002c11.533,14.255,22.066,29.322,34.629,42.713c-8.887-8.852-16.274-19.095-24.214-28.774
		c-2.858-3.484-5.749-6.943-8.674-10.373c-0.506-0.847-1.136-1.646-1.849-2.35l-0.002-0.004c-0.039-0.125-0.109-0.246-0.211-0.343
		c-0.048-0.048-0.103-0.089-0.154-0.132c-0.013-0.021-0.026-0.041-0.037-0.063c-0.064-0.117-0.188-0.216-0.325-0.28
		c-0.175-0.215-0.348-0.424-0.508-0.625c-0.055-0.065-0.146-0.105-0.237-0.111c-0.013-0.018-0.024-0.035-0.037-0.052
		c-0.049-0.067-0.141-0.064-0.207-0.038c-1.868,0.698-3.138,2.422-4.978,3.205c-0.146,0.061-0.169,0.227-0.114,0.355
		c-0.065,0.043-0.124,0.115-0.125,0.188c-0.029,0.964-0.432,1.716-0.744,2.593c-0.004,0.002-0.006,0.006-0.009,0.006
		c-0.001,0.005-0.001,0.012,0.001,0.018c-0.004,0.008-0.008,0.018-0.011,0.027c-0.018,0.053-0.005,0.102,0.02,0.14
		c0.007,0.067,0.012,0.134,0.013,0.202c2.183,3.061,4.332,6.144,6.5,9.207c0.33,0.467,0.66,0.932,0.989,1.398
		c2.191,4.193,4.637,8.264,7.275,12.195c0.419,0.813,0.823,1.619,1.19,2.426c0.582,1.273,1.154,2.554,1.691,3.847
		c-4.674-7.437-9.441-14.829-14.495-22.012c-1.142-1.624-2.312-3.228-3.499-4.817c-0.032,0.104-0.071,0.203-0.109,0.306
		c0.057-0.662,0.024-1.353-0.175-1.931c0.621-1.354,0.941-2.78,0.724-4.164c0.004-0.004,0.012-0.006,0.018-0.009
		c4.436-2.345,8.307-5.699,8.608-10.916c-0.009-0.024-0.019-0.048-0.027-0.075c-0.094-0.272-0.222-0.592-0.399-0.871
		c-0.083,0.042-0.153,0.119-0.178,0.242c-0.717,3.692-2.982,6.19-5.813,8.113c1.69-1.954,3.123-4.378,2.873-6.865
		c0-0.012-0.006-0.021-0.009-0.031c0.229,0.25,0.378,0.74,0.464,1.021c0.092,0.294,0.521,0.187,0.563-0.078
		c0.177-1.167-0.767-2.527-1.729-3.278c-4.302-5.296-8.752-10.452-13.61-15.121c0.01-0.005,0.022-0.011,0.032-0.017
		c0.073-0.133,0.152-0.264,0.232-0.393C183.769,74.98,186.679,77.957,189.448,81.076z M198.603,57.095
		c5.094,1.654,10.271,2.315,15.539,1.453c0.007,0.594-0.017,1.184-0.071,1.77c-4.985,0.36-9.91-0.51-14.622-2.222
		c-2.287-0.83-4.495-1.86-6.746-2.784c-0.861-0.354-1.727-0.714-2.584-1.09c-0.093-0.071-0.188-0.138-0.276-0.21
		c-0.874-0.707-1.483-1.371-2.641-1.498c-0.063-0.006-0.124,0.002-0.18,0.015c-0.374-0.278-0.746-0.558-1.122-0.833
		C190.133,53.504,194.233,55.674,198.603,57.095z M199.604,59.145c-2.228-0.889-4.443-1.756-6.523-2.965
		c-0.296-0.172-0.588-0.346-0.878-0.526c2.33,1.022,4.656,2.063,7.038,2.955c4.674,1.755,9.764,2.69,14.759,2.296
		c-0.055,0.408-0.121,0.813-0.209,1.215C209.132,60.89,204.139,60.957,199.604,59.145z M213.47,63.313
		c-0.013,0.043-0.024,0.084-0.037,0.125c-0.049,0.143-0.063,0.279-0.054,0.408c-0.944-0.211-1.886-0.433-2.829-0.66
		C211.527,63.281,212.501,63.329,213.47,63.313z M225.93,98.746c-0.177-0.061-0.36-0.097-0.546-0.07
		c-0.024,0.002-0.046,0.008-0.067,0.013c-0.15-0.083-0.302-0.163-0.449-0.249c0.354,0.095,0.706,0.176,1.063,0.245
		C225.929,98.706,225.931,98.725,225.93,98.746z M225.949,97.695c-5.129-2.176-9.288-5.648-13.34-9.495
		c-1.868-1.773-3.621-3.651-5.429-5.481c2.641,2.152,5.313,4.27,8.045,6.307c3.506,2.612,6.992,5.415,10.742,7.686
		C225.961,97.039,225.956,97.367,225.949,97.695z M225.981,96.104c-3.791-3.241-7.826-6.229-11.623-9.469
		c-3.594-3.066-7.141-6.191-10.703-9.293c-3.26-2.836-6.484-5.725-9.818-8.475c-1.771-2.004-3.608-3.949-5.516-5.82
		c0.959,0.799,1.918,1.601,2.877,2.402c4.803,4.018,9.682,7.928,14.357,12.094c4.299,3.828,8.584,7.697,12.793,11.624
		c1.423,1.327,2.841,2.655,4.397,3.829c0.905,0.682,2.073,1.528,3.276,1.736C226.005,95.188,225.991,95.646,225.981,96.104z
		 M226.044,94.246c-1.437-0.313-2.801-1.461-3.859-2.313c-1.424-1.144-2.723-2.428-4.069-3.66
		c-4.366-3.998-8.733-8.01-13.178-11.922c-4.493-3.953-9.266-7.588-13.873-11.404c-1.981-1.644-3.961-3.288-5.956-4.912
		c-1.551-1.383-3.146-2.716-4.801-3.977c-1.127-0.857-2.277-1.676-3.446-2.461c-0.017-0.045-0.034-0.09-0.05-0.136
		c8.093,5.415,15.596,11.638,22.948,18.016c4.191,3.636,8.351,7.312,12.559,10.933c4.441,3.82,8.88,7.854,13.763,11.107
		C226.066,93.759,226.057,94.002,226.044,94.246z M226.529,89.789c-0.046,0.236-0.083,0.479-0.122,0.719
		c-0.004-0.004-0.008-0.007-0.012-0.01c-17.16-13.7-32.707-29.92-51.449-41.537c-0.311-0.67-0.634-1.334-0.973-1.99
		c0.564,0.337,1.121,0.677,1.672,1.025c8.506,5.397,16.268,11.834,23.873,18.409C208.532,74.194,217.38,82.161,226.529,89.789z
		 M203.398,64.955c2.273,0.921,4.65,1.609,7.034,2.211c3.354,0.846,6.718,1.624,10.091,2.367c-0.884-0.074-1.758-0.107-2.503-0.209
		c-2.443-0.332-4.894-0.686-7.281-1.312c-1.99-0.522-3.991-1.138-5.83-2.076C204.444,65.697,203.932,65.33,203.398,64.955z
		 M223.212,73.477c-1.187,0.17-3.048-0.076-3.812-0.188c-1.347-0.195-2.668-0.521-3.955-0.964c-0.87-0.299-1.731-0.621-2.58-0.974
		c1.894,0.352,3.799,0.611,5.728,0.73c1.307,0.08,3.1,0.325,4.516-0.063C223.151,72.504,223.186,72.989,223.212,73.477z
		 M224.248,70.451c-0.076-0.064-0.183-0.078-0.284-0.051c-0.121-0.074-0.25-0.141-0.383-0.203c0.219,0.047,0.438,0.096,0.658,0.143
		C224.24,70.376,224.246,70.414,224.248,70.451z M224.209,70.002c-2.13-0.488-4.277-0.857-6.397-1.404
		c-2.205-0.568-4.431-1.042-6.645-1.566c-2.994-0.709-5.957-1.531-8.763-2.736c-0.455-0.279-0.918-0.51-1.376-0.63
		c-0.279-0.137-0.557-0.283-0.833-0.43c-0.269-0.233-0.538-0.468-0.809-0.701c7.845,3.247,16.414,5.144,24.417,6.859
		c0.123,0.027,0.24,0.037,0.354,0.039C224.176,69.623,224.192,69.813,224.209,70.002z"/>
	<path fill="#41294A" d="M137.399,123.819c0.002-0.001,0.004,0.001,0.007,0.001C137.42,123.821,137.423,123.82,137.399,123.819z"/>
	<path fill="#41294A" d="M147.406,113.584c1.069-1.772,1.81-3.787,1.617-5.611c-0.103-0.945-1.39-1.354-1.866-0.424
		c-0.603,1.175-0.828,2.496-1.315,3.725c-0.453,1.141-1.121,2.195-1.839,3.192c-0.049-0.224-0.111-0.444-0.188-0.669
		c0.592-1.398,1.005-2.85,1.124-4.277c0.033-0.39-0.489-0.447-0.635-0.128c-0.431,0.936-0.85,1.853-1.286,2.751
		c-0.346-0.566-0.735-1.089-1.112-1.526c-1.408-1.629-3.068-2.608-5.152-3.091c-0.188-0.045-0.313,0.241-0.127,0.324
		c1.764,0.785,3.298,1.896,4.457,3.459c0.527,0.713,0.854,1.523,1.18,2.327c-0.627,1.19-1.313,2.353-2.132,3.489
		c-0.862,0.412-1.687,0.915-2.506,1.418c1.17-1.965,2.006-4.123,2.381-6.381c0.055-0.326-0.401-0.461-0.501-0.135
		c-0.904,2.932-2.45,5.612-4.41,7.955c-1.937,1.023-3.931,1.939-5.93,2.828c-3.269,1.451-6.66,2.768-9.875,4.385
		c-1.508,0.592-2.924,1.318-4.162,2.264c-0.271,0.133-0.539,0.268-0.806,0.406c-0.046,0.022-0.078,0.056-0.108,0.088
		c-0.858,0.225-1.004,1.488,0,1.877c4.201,1.623,7.777,3.539,12.38,3.594c3.814,0.047,7.77-1.047,11.121-2.836
		c5.782-3.083,10.589-9.76,8.011-16.421c0.104-0.178,0.195-0.361,0.292-0.542C146.529,114.979,147.011,114.297,147.406,113.584z
		 M138.599,122.759c-0.016,0.117-0.045,0.222-0.076,0.323c-0.026,0.018-0.055,0.027-0.091,0.016
		c-0.081-0.031-0.163-0.068-0.245-0.109C138.325,122.914,138.462,122.838,138.599,122.759z M137.278,123.457
		c0.05,0.131,0.104,0.253,0.168,0.369c-0.014,0-0.025-0.005-0.04-0.006c-0.027,0-0.112-0.002-0.22-0.006
		c0-0.008,0.001-0.011,0-0.016c-0.082,0.004-0.17,0.002-0.262-0.001c-0.021-0.049-0.05-0.095-0.077-0.142
		C136.992,123.589,137.136,123.527,137.278,123.457z M136.021,131.375c-3.232,1.449-6.787,2.016-10.312,1.899
		c-1.668-0.056-3.308-0.385-4.886-0.911c-1.434-0.477-2.73-1.265-4.114-1.833c2.753-0.769,5.454-1.77,8.164-2.684
		c1.657-0.331,3.274-0.816,4.883-1.381c0.099-0.034,0.198-0.069,0.3-0.104c-0.229,1.641,0.767,3.271,2.405,3.921
		c2.216,0.881,4.936,0.131,6.997-0.828C138.372,130.208,137.204,130.846,136.021,131.375z M142.566,123.91
		c-0.475,1.665-2.05,2.884-3.499,3.681c-1.428,0.786-3.063,1.267-4.696,1.275c-2.343,0.011-2.679-1.185-2.903-2.987
		c0.679-0.237,1.365-0.498,2.014-0.809c0.07,0.318,0.242,0.611,0.539,0.801c0.215,0.138,0.435,0.262,0.662,0.371
		c0.559,0.514,1.351,0.712,2.207,0.617c0.77,0.053,1.547-0.063,2.298-0.387c1.671-0.723,2.439-2.422,2.39-4.128
		c0.118-0.538,0.168-1.118,0.088-1.644c0.006-0.004,0.014-0.009,0.018-0.013C142.356,121.612,142.96,122.529,142.566,123.91z
		 M143.066,115.362c0.036,0.062,0.077,0.12,0.115,0.181c-0.193,0.232-0.394,0.462-0.599,0.687
		C142.749,115.945,142.91,115.655,143.066,115.362z M144.617,120.051c-0.019,0.592-0.106,1.179-0.237,1.758
		c-0.211-0.889-0.618-1.77-1.184-2.465c0.446-0.439,0.864-0.898,1.256-1.376C144.556,118.643,144.641,119.325,144.617,120.051z"/>
	<path fill="#41294A" d="M188.196,145.765c-0.027-0.016-0.053-0.032-0.085-0.045c-7.169-2.782-11.05-11.974-13.796-18.574
		c-3.344-8.042-5.518-16.413-6.554-25.054c-0.035-0.282-0.513-0.227-0.497,0.057c0.527,9.21,2.422,18.552,5.893,27.104
		c2.647,6.523,6.771,14.813,13.539,17.936c-2.896,4.802-7.697,10.01-13.708,6.761c-0.3-0.162-0.513,0.253-0.358,0.48
		c4.922,7.345,14.963-1.62,16.599-7.398C189.446,146.264,188.833,145.774,188.196,145.765z"/>
	<path fill="#41294A" d="M192.131,166.234c-1.159-1.092-2.87-1.267-4.507-1.084c-1.272-0.108-2.553,0.28-3.703,0.949
		c-2.559,1.063-4.602,2.983-5.937,5.43c-2.097,3.844-3.039,7.911-7.681,9.359c-0.295,0.09-0.211,0.474,0.042,0.549
		c0.939,0.274,1.777,0.259,2.534,0.029c1.568,0.516,2.806,1.426,4.022,2.395c-0.001,0.001-0.001,0.002-0.002,0.003
		c0.008,0.005,0.015,0.009,0.021,0.013c1.063,0.848,2.113,1.742,3.355,2.462c1.455,0.845,3.191,1.141,4.914,1.081
		c0.859,0.141,1.721,0.184,2.576,0.104c0.095-0.071,0.204-0.129,0.337-0.156c2.152-0.434,3.929-1.695,5.19-3.395
		c0.745-0.801,1.354-1.719,1.742-2.729c1.031-2.68,0.661-7.599-2.004-9.408C193.663,169.877,193.774,167.784,192.131,166.234z
		 M186.124,167.119c1.064,0.525,1.846,1.338,2.443,2.447c0.367,0.68,0.504,1.463,0.527,2.225c0.017,0.482-0.158,0.905-0.27,1.342
		c-0.135,0.082-0.272,0.16-0.407,0.245c0.026-0.84-0.125-1.709-0.299-2.358c-0.401-1.5-1.36-2.778-2.563-3.736
		C185.744,167.225,185.935,167.167,186.124,167.119z M184.222,167.783c0.141-0.064,0.282-0.129,0.426-0.186
		c0.858,0.83,1.565,1.801,2.09,2.891c0.439,0.913,0.599,1.92,0.523,2.926c-0.021,0.299-0.099,0.574-0.189,0.842
		c-0.353,0.236-0.703,0.476-1.055,0.717c0.186-2.273-1.048-5.057-2.414-6.678C183.8,168.115,184.008,167.946,184.222,167.783z
		 M183.144,168.746c0.846,1.171,1.377,2.515,1.658,3.96c0.231,1.2,0.064,2.257-0.277,3.292c-0.703,0.478-1.415,0.943-2.145,1.38
		c0.685-2.113,0.061-4.925-0.776-6.735C182.064,169.965,182.572,169.324,183.144,168.746z M175.497,180.137
		c1.435-1.387,2.515-3.123,3.5-4.908c-0.109,0.672-0.313,1.328-0.606,1.96c-0.258,0.55-0.581,1.04-0.969,1.503
		c-0.327,0.392-0.532,0.496-0.586,1.01c-0.005,0.032,0.005,0.064,0.014,0.094C176.402,179.922,175.95,180.038,175.497,180.137z
		 M179.611,182.813c-0.028-0.016-0.058-0.031-0.087-0.048c-0.666-0.37-1.684-1.138-2.761-1.815c0.628-0.072,1.251-0.179,1.874-0.307
		c0.301,0.494,0.547,1.004,0.761,1.541C179.482,182.396,179.538,182.611,179.611,182.813z M179.548,177.246
		c0.392-1.178,0.492-2.385,0.299-3.586c0.192-0.36,0.386-0.721,0.578-1.075c0.25-0.459,0.514-0.909,0.788-1.349
		c0.35,1.164,0.604,2.359,0.625,3.574c0.024,1.502-0.606,2.465-1.272,3.562c-0.672,0.328-1.367,0.625-2.078,0.888
		C178.992,178.641,179.363,177.795,179.548,177.246z M180.468,183.286c0.004-0.009,0.012-0.017,0.014-0.026
		c0.154-0.471-0.17-0.984-0.346-1.422c-0.193-0.479-0.432-0.936-0.699-1.379c0.215-0.051,0.432-0.107,0.646-0.17
		c0.907,0.799,1.675,1.766,2.301,2.791c0.284,0.466,0.522,0.977,0.705,1.496C182.182,184.195,181.302,183.74,180.468,183.286z
		 M186.911,185.288c-0.292,0.066-0.579,0.11-0.863,0.146c-0.517-0.069-1.03-0.188-1.54-0.341c-0.127-0.852-0.667-1.805-1.005-2.34
		c-0.678-1.067-1.493-2.051-2.517-2.76c0.151-0.053,0.302-0.098,0.454-0.154c0.506-0.192,1.008-0.406,1.508-0.631
		c1.142,0.879,2.194,1.813,2.986,3.037C186.566,183.224,186.616,184.275,186.911,185.288z M189.143,183.221
		c0.113,0.392,0.163,0.811,0.234,1.219c-0.43,0.205-0.874,0.38-1.323,0.529c0.023-1.131-0.654-2.389-1.205-3.253
		c-0.779-1.226-1.921-2.233-3.252-2.806c0.565-0.271,1.128-0.557,1.684-0.861c1.301,0.475,2.211,1.463,2.924,2.75
		C188.626,181.559,188.902,182.389,189.143,183.221z M191.354,183.167c-0.263,0.228-0.547,0.437-0.84,0.63
		c-0.268-1.437-1.122-3.037-1.696-3.921c-0.652-1.003-1.508-1.931-2.563-2.372c0.441-0.254,0.875-0.52,1.306-0.789
		c1.673,0.573,2.546,1.986,3.209,3.57C191.156,181.21,191.226,182.199,191.354,183.167z M192.517,181.842
		c-0.013,0.025-0.025,0.055-0.036,0.08c-0.003,0.002-0.004,0.005-0.005,0.008c-0.475-2.478-2.128-5.32-4.056-5.762
		c0.371-0.242,0.737-0.487,1.101-0.736c0.86,0.854,1.641,1.761,2.229,2.839C192.38,179.428,192.279,180.636,192.517,181.842z
		 M193.13,179.025c-0.566-1.564-1.812-3.028-3.075-3.967c0.206-0.145,0.415-0.289,0.619-0.434c0.016-0.012,0.026-0.027,0.04-0.037
		C192.181,175.782,192.861,177.256,193.13,179.025z M190.426,169.727c0.003,0.664-0.077,1.336-0.103,1.916
		c0,0.008,0.004,0.014,0.003,0.021c-0.072,0.209-0.173,0.411-0.289,0.607c0.067-1.004-0.223-2.137-0.554-2.835
		c-0.509-1.07-1.291-1.99-2.289-2.54c0.344-0.053,0.688-0.092,1.027-0.115c0.007,0.001,0.014,0,0.021,0
		C189.353,167.351,190.171,168.492,190.426,169.727z"/>
	<path fill="#41294A" d="M170.822,93.641c0.713-1.053,1.748-1.793,2.951-2.182c1.127-0.361,2.174,0.157,3.252-0.078
		c0.276-0.061,0.466-0.387,0.26-0.633c-0.88-1.051-2.694-0.711-3.849-0.331c-1.435,0.472-2.539,1.599-3.105,2.969
		C170.194,93.72,170.624,93.936,170.822,93.641z"/>
	<path fill="#41294A" d="M139.788,100.847c-0.025,0.009-0.014,0.052,0.012,0.042S139.814,100.838,139.788,100.847z"/>
	<path fill="#41294A" d="M131.256,140.021c-1.515-0.112-3.234,0.415-4.198,1.638c-0.315,0.399-0.476,0.847-0.529,1.304
		c-0.347,0.365-0.461,0.916-0.473,1.4c-0.024,0.987,0.598,1.905,1.298,2.537c0.454,0.412,0.992,0.67,1.567,0.785
		c1.363,0.754,3.113,0.342,4.367-0.535c1.477-1.031,2.287-2.482,1.814-4.293C134.673,141.203,132.858,140.139,131.256,140.021z"/>
	<path fill="#41294A" d="M187.901,116.533c-1.315-0.167-2.6,0.394-3.403,1.424c-0.944,1.207-0.586,3.166,0.259,4.336
		c0.365,0.611,0.933,1.152,1.538,1.511c1.265,0.749,2.792,0.298,3.655-0.812c1.029-1.324,1.68-2.777,1.043-4.433
		C190.516,117.32,189.128,116.689,187.901,116.533z"/>
	<path fill="#41294A" d="M104.636,153.994c-2.17-1.381-3.466-3.228-4.635-5.46c-0.313-0.599-1.305-0.267-1.127,0.406
		c0.41,1.559,1.329,2.961,2.527,4.167c-1.463,2.391-1.532,5.119-0.313,7.729c1.093,2.34,5.038,5.943,7.874,4.863
		c0.313-0.119,0.436-0.557,0.152-0.785c-0.793-0.638-1.785-0.729-2.725-1.098c-1.438-0.565-2.657-1.599-3.57-2.826
		c-1.603-2.147-1.622-4.859-0.771-7.275c2.16,1.898,5.004,3.219,7.498,3.762c0.439,0.096,0.59-0.508,0.234-0.712
		C108.085,155.793,106.29,155.048,104.636,153.994z"/>
	<path fill="#41294A" d="M147.575,200.301c-2.968-1.494-5.865-3.067-8.697-4.804c-2.323-1.424-4.539-2.988-6.638-4.692
		c-0.821-0.806-1.622-1.637-2.449-2.414c-0.485-0.457-0.979-0.902-1.474-1.344c0.071,0.075,0.141,0.153,0.213,0.229
		c0.123,0.119,0.246,0.236,0.368,0.357c0.786,0.781,1.579,1.6,2.398,2.389c-2.556-2.168-4.924-4.556-7.07-7.172
		c-0.16-0.195-0.503,0.045-0.362,0.255c3.604,5.338,8.413,9.618,13.68,13.271c2.705,1.877,5.596,3.492,8.5,5.033
		c1.317,0.699,2.673,1.336,4.023,1.968c1.338,0.626,2.639,1.453,4.142,1.473c0.45,0.007,0.622-0.542,0.341-0.846
		C152.893,202.211,149.736,201.389,147.575,200.301z"/>
	<path fill="#41294A" d="M110.558,109.824c0.271-0.182,0.646-0.578,1.012-1.07c3.775-1.316,7.542-2.693,11.363-3.862
		c2.262-0.69,4.535-1.131,6.867-1.499c1.73-0.275,3.49-0.238,5.211-0.424c0.002,0.001,0.003,0.001,0.006,0.001
		c2.421,0.229,4.695,0.872,7.07,1.28c0.041,0.008,0.717,0.266,1.021,0.413c0.138,0.067-2.596-2.905-4.367-3.999
		c-0.358-0.223-1.205-0.717-1.271-0.753c-0.331-0.192-0.681-0.351-1.041-0.487c-1.247-0.578-2.546-1.043-3.876-1.41
		c-2.501-0.688-5.2-0.835-7.775-0.622c-5.18,0.425-11.019,1.424-15.67,3.942c-1.783-0.363-3.656,0.219-4.875,1.707
		c-0.216,0.262-0.404,0.545-0.568,0.84c-0.299,0.23-4.672,3.93-3.605,6.465C101.019,112.631,109.181,110.758,110.558,109.824z
		 M104.214,107.994c-0.637-1.469-0.358-3.176,0.549-4.453c0.65-0.913,2.154-1.932,3.309-1.7c0.156,0.032,0.219,0.269,0.095,0.372
		c-0.422,0.351-0.923,0.541-1.382,0.805c-1.155,1.232-1.846,2.916-0.433,4.287c0.765,0.744,1.913,0.893,3.116,0.782
		c0.074-0.087,0.146-0.177,0.216-0.28c0.499-0.746,1.604-0.09,1.196,0.707C109.36,111.48,105.441,110.826,104.214,107.994z"/>
</g>
</svg>
