<?xml version="1.0" encoding="utf-8"?>
<!-- Generator: Adobe Illustrator 16.0.0, SVG Export Plug-In . SVG Version: 6.00 Build 0)  -->
<!DOCTYPE svg PUBLIC "-//W3C//DTD SVG 1.1//EN" "http://www.w3.org/Graphics/SVG/1.1/DTD/svg11.dtd">
<svg version="1.1" id="Layer_1" xmlns="http://www.w3.org/2000/svg" xmlns:xlink="http://www.w3.org/1999/xlink" x="0px" y="0px"
	 width="250px" height="250px" viewBox="0 0 250 250" enable-background="new 0 0 250 250" xml:space="preserve">
<path fill="#FFD800" d="M142.467,159.711c-0.777-3.238-1.717-6.441-2.828-9.581c-2.132-6.019-4.455-11.989-6.229-18.13
	c-0.139,0.023-0.258,0.139-0.217,0.327c1.166,5.569,2.283,11.118,3.847,16.598c0.726,2.543,1.635,5.025,2.366,7.565
	c0.353,1.234,0.664,2.498,0.807,3.779c0.041,0.371,0.032,0.828,0.051,1.28c-0.144,0.567-0.328,1.113-0.558,1.628
	c-0.761,1.705-1.822,2.877-3.401,3.438c-0.043-0.612-0.188-1.239-0.451-1.875c-0.326-0.8-1.567-0.308-1.396,0.499
	c0.317,1.516,0.562,3.006-0.497,4.308c-0.921,1.128-2.365,1.612-3.773,1.736c-1.845,0.165-3.775-0.567-5.27-1.608
	c-1.608-1.123-2.222-3.396-2.689-5.244c0.079-0.796,0.188-1.588,0.225-2.387c0.013-0.288-0.377-0.352-0.444-0.066
	c-0.158,0.688-0.416,1.521-0.59,2.369c-0.08,0.043-0.151,0.11-0.182,0.207c-0.229,0.709-0.285,1.471-0.212,2.225
	c-1.877-0.477-3.09-1.709-3.933-3.602c-0.227-0.515-0.412-1.061-0.553-1.628c0.018-0.452,0.009-0.909,0.048-1.28
	c0.141-1.281,0.456-2.545,0.809-3.779c0.729-2.54,1.637-5.022,2.364-7.565c1.564-5.479,2.682-11.028,3.848-16.598
	c0.038-0.19-0.08-0.308-0.226-0.329c-0.013-0.159-0.187-0.242-0.33-0.217c-1.104,5.828-3.432,11.4-5.618,16.906
	c-0.614,1.541-1.21,3.086-1.777,4.648c-0.2,0.854-0.379,1.707-0.53,2.572c-1.044,3.154-1.59,6.695-0.176,9.789
	c0.357,0.777,0.879,1.531,1.507,2.168c0.152,0.08,0.304,0.154,0.457,0.226c1.133,1.233,2.76,1.872,4.672,1.304
	c0.986,2.482,4.146,3.607,6.723,3.727c1.854,0.089,3.777-0.342,5.407-1.227c0.959-0.517,2.082-1.426,2.687-2.502
	c0.781,0.125,1.588,0.018,2.388-0.322c0.097-0.041,0.192-0.088,0.292-0.139c0.075-0.012,0.158-0.021,0.239-0.033
	c0.083-0.061,0.167-0.125,0.247-0.193c0.09-0.077,0.172-0.161,0.258-0.242c1.006-0.744,1.934-1.895,2.113-2.98
	c0.668-1.568,0.845-3.25,0.721-4.935C142.596,160.271,142.533,159.99,142.467,159.711z M136.568,142.339
	c0.088,0.251,0.176,0.502,0.263,0.748c0.004,0.002,0,0.002,0.004,0.006c0.021,0.155,0.049,0.308,0.073,0.462
	C136.793,143.15,136.68,142.745,136.568,142.339z M119.968,143.093c0.002-0.004,0-0.004,0.002-0.006
	c0.085-0.246,0.173-0.497,0.264-0.748c-0.114,0.406-0.224,0.813-0.339,1.216C119.917,143.4,119.948,143.248,119.968,143.093z
	 M119.701,167.477c-1.071,0.008-2.058-0.844-2.573-1.719c-0.517-0.872-0.754-1.867-0.816-2.9c0.088,0.274,0.189,0.547,0.297,0.814
	c0.607,1.496,1.805,3.055,3.338,3.788C119.868,167.466,119.785,167.473,119.701,167.477z M139.673,165.758
	c-0.519,0.875-1.501,1.727-2.571,1.719c-0.086-0.004-0.166-0.011-0.248-0.017c1.533-0.733,2.729-2.292,3.338-3.788
	c0.108-0.27,0.207-0.54,0.3-0.814C140.423,163.891,140.188,164.886,139.673,165.758z"/>
<path fill="#FFD800" d="M185.786,180.212c-0.864-2.637-1.54-5.271-2.054-7.911c-0.658-1.992-1.271-4.004-1.819-6.031
	c-0.724-2.67-1.347-5.357-1.867-8.061c0.101-0.051,0.198-0.122,0.291-0.223c3.919-4.26,5.533-10.475,5.537-16.141
	c0.002-5.24-2.217-11.787-7.458-13.847c0.064-0.707,0.128-1.416,0.204-2.129c1.024-9.847,2.323-19.654,3.272-29.504
	c0.728-1.375,1.268-2.839,1.694-4.332c0.823-2.867,0.927-5.927,0.511-8.867c-0.434-3.098-1.529-6.022-2.891-8.824
	c-0.667-1.365-1.43-2.69-2.273-3.952c-0.313-0.915-0.678-1.81-1.086-2.678c-1.962-4.184-4.964-7.825-8.293-10.992
	c-3.449-3.276-7.482-5.985-11.847-7.883c-1.97-0.858-4-1.555-6.103-1.982c-0.222-0.316-0.432-0.643-0.605-0.973
	c0.77-1.018,1.286-2.188,1.716-3.385c0.845-2.357,0.97-5.077,0.662-7.547c-0.471-3.792-2.048-7.848-5.298-9.876
	c1.752-2.014,2.436-4.61,2.105-7.293c-0.33-2.72-2.027-5.011-3.58-7.164c-2.235-3.106-5.271-5.66-8.74-7.276
	c-7.172-3.337-15.345-2.7-22.619-0.057c-6.936,2.519-13.301,7.274-17.197,13.586c-1.771,2.871-2.792,6.05-2.986,9.258
	c-0.233,1.185-0.387,2.377-0.456,3.568c-0.217,3.829,0.642,7.574,2.655,10.843c0.686,1.118,1.496,2.155,2.394,3.118
	c0.15,0.496-0.037,1.118-0.417,1.438c-1.265,1.082-2.562,2.128-3.866,3.16c-1.412,0.921-2.823,1.846-4.225,2.79
	c-3.258-0.822-4.353-4.401-4.762-7.486c-0.083-0.625-0.879-0.767-1.181-0.22c-1.961,3.54-2.361,8.411,0.024,11.812
	c-2.557,1.849-5.059,3.77-7.459,5.806c-6.505,5.522-12.275,12.313-13.902,20.911c-0.735,2.541-0.766,5.379-0.696,7.955
	c0.098,3.51,0.676,7.003,1.495,10.411c0.771,3.2,1.798,6.324,2.983,9.392c0.575,1.491,1.192,2.962,1.858,4.412
	c0.581,1.27,1.093,2.561,1.762,3.772c0.236,3.265,0.426,6.533,0.524,9.8c-0.021-0.006-0.04-0.014-0.062-0.021
	c-1.044-0.292-2.107,0.588-2.799,1.253c-2.241,2.158-3.848,5.204-4.978,8.067c-1.37,3.492-1.215,7.531-0.397,11.136
	c0.837,3.705,2.731,7.128,5.551,9.638c-0.252,1.303-0.502,2.604-0.741,3.908c-0.452,2.088-0.892,4.165-1.302,6.248
	c-4.314,21.93,2.002,39.986,19.891,53.729c-0.013-0.045-0.023-0.092-0.035-0.135c0.093,0.076,0.188,0.158,0.279,0.234
	c1.251,1.049,2.564,2.043,3.927,2.979c0.132,0.112,0.268,0.226,0.397,0.338c0.05,0.053,0.099,0.108,0.145,0.164
	c-0.296-0.148-0.625-0.342-0.993-0.596c0.606,0.514,1.212,1.021,1.817,1.53c1.719,1.894,3.608,3.613,5.89,4.944
	c1.823,1.533,3.642,3.066,5.456,4.611c3.098,3.416,6.731,6.369,10.566,8.819c3.235,2.069,6.833,3.866,10.65,4.505
	c0.017,0.002,0.033,0.004,0.048,0.006c1.494,0.092,2.991-0.022,4.464-0.422c0.904-0.248,1.779-0.572,2.639-0.943l0,0
	c0.004,0,0.004,0,0.004-0.002c0.213-0.094,0.425-0.189,0.645-0.285c0.053-0.027,0.109-0.055,0.166-0.079
	c0.168-0.078,0.332-0.157,0.498-0.241c0.051-0.021,0.101-0.043,0.146-0.072c0.206-0.101,0.416-0.203,0.622-0.309
	c0.032-0.016,0.069-0.035,0.104-0.053c0.178-0.09,0.354-0.184,0.532-0.275c0.063-0.033,0.126-0.066,0.191-0.098
	c0.172-0.09,0.345-0.182,0.52-0.271c0.224-0.115,0.444-0.234,0.666-0.352c0.05-0.025,0.095-0.047,0.144-0.074
	c0.162-0.09,0.33-0.171,0.496-0.26c0.061-0.027,0.117-0.055,0.176-0.086c0.211-0.108,0.423-0.217,0.633-0.32
	c0.418-0.206,0.834-0.412,1.257-0.614c5.402-2.612,11.046-4.921,16.134-8.095c0.614-0.385,1.225-0.773,1.83-1.174
	c1.09-0.901,2.115-1.854,3.045-2.879c1.728-1.305,3.354-2.743,4.873-4.283c2.444-2.488,4.398-5.428,5.873-8.579
	c0.34-0.726,0.627-1.463,0.864-2.201c0.269-0.45,0.534-0.899,0.804-1.344c0.032-0.274,0.172-0.478,0.364-0.61
	c2.765-4.601,5.556-9.189,7.31-14.146C182.482,194.191,188.289,187.823,185.786,180.212z M182.492,134.027
	c1.22,2.494,1.638,5.244,1.636,7.998c-0.012,4.75-1.512,10.014-4.519,13.812c-0.08-0.476-0.162-0.96-0.237-1.438
	c2.95-4.241,3.472-10.262,1.862-15.414c0.014-0.1-0.02-0.189-0.08-0.254c-0.682-2.064-1.701-3.982-3.049-5.578
	c0.045-1.269,0.115-2.541,0.207-3.81C180.052,130.566,181.501,131.998,182.492,134.027z M71.074,146.254
	c-0.158,1.28-0.337,2.559-0.553,3.839c-0.036,0.218-0.077,0.433-0.109,0.654c-0.616-1.015-1.163-2.042-1.543-3.238
	c-0.583-1.848-0.703-3.802-0.524-5.722c0.012-0.104,0.027-0.211,0.037-0.318c0.433,0.715,0.906,1.404,1.31,2.053
	c0.427,0.68,0.851,1.354,1.278,2.031c-0.047,0.268-0.097,0.543-0.149,0.813C70.905,146.325,70.989,146.291,71.074,146.254z
	 M71.312,143.552c-0.272-0.354-0.542-0.7-0.77-1.04c-0.592-0.865-1.187-1.853-1.865-2.718c0.07-0.303,0.151-0.604,0.238-0.905
	c0.768-2.008,1.804-3.899,2.95-5.721c-0.018,3.182-0.149,6.359-0.424,9.534C71.401,142.986,71.354,143.268,71.312,143.552z
	 M155.743,216.357c-0.274,0.222-0.544,0.447-0.816,0.672c-0.016-0.01-0.024-0.021-0.03-0.035
	C155.18,216.784,155.463,216.57,155.743,216.357z M105.488,214.842c-0.082,0.141-0.282,0.111-0.355-0.02
	c-0.212-0.361-0.164-0.748-0.16-1.153c0.012-0.461,0.019-0.919,0.027-1.374c0.006-0.412,0.625-0.369,0.632,0.037
	c0.009,0.458,0.019,0.917,0.025,1.375C105.664,214.117,105.699,214.479,105.488,214.842z M102.415,21.895
	c0.734-0.762,1.53-1.461,2.369-2.104c-0.732,0.656-1.438,1.343-2.1,2.065C102.594,21.866,102.507,21.879,102.415,21.895z
	 M148.07,55.89c-0.195-0.903-0.447-1.803-0.745-2.693c0.354,0.407,0.684,0.827,1.001,1.254c1.414,3.417,1.787,7.343,1.41,10.927
	c-0.303,2.861-1.158,5.645-2.609,8.135c-0.729,1.25-1.691,2.33-2.809,3.246c-0.35,0.284-0.738,0.506-1.137,0.707
	c2.235-2.674,3.777-5.924,4.67-9.274C148.922,64.186,148.953,59.93,148.07,55.89z M150.973,59.493
	c0.621,1.855,0.928,3.819,0.861,5.866c-0.061,1.884-0.491,3.665-1.234,5.287c0.362-1.37,0.58-2.788,0.709-4.228
	C151.502,64.199,151.402,61.819,150.973,59.493z M157.917,63.113c0.126,0.198,0.251,0.398,0.373,0.597
	c-0.024-0.017-0.051-0.037-0.078-0.053C158.115,63.474,158.018,63.294,157.917,63.113z M173.963,79.465
	c-0.038,0.339-0.087,0.679-0.145,1.018c-0.18-0.466-0.381-0.925-0.584-1.385c0.191-0.824,0.263-1.698,0.32-2.313
	c0.006-0.043,0.008-0.083,0.01-0.125c0.023,0.052,0.047,0.104,0.069,0.157c0.167,0.393,0.319,0.796,0.453,1.2
	C174.063,78.499,174.021,78.98,173.963,79.465z M172.779,76.041c-0.038,0.552-0.113,1.097-0.215,1.634
	c-0.312-0.626-0.638-1.244-0.967-1.858c0.053-0.505,0.088-0.994,0.135-1.405c0.05-0.435,0.088-0.87,0.125-1.304
	c0.336,0.638,0.66,1.282,0.976,1.934C172.818,75.375,172.807,75.709,172.779,76.041z M172.357,80.949
	c0.006,0.009,0.015,0.019,0.021,0.029c0.021,0.063,0.039,0.128,0.062,0.195c-0.008-0.012-0.015-0.021-0.027-0.031
	c-0.035-0.045-0.076-0.088-0.118-0.135C172.318,80.987,172.339,80.97,172.357,80.949z M167.219,73.578
	c0.463,0.964,0.915,1.93,1.365,2.9c0.066,0.146,0.132,0.293,0.195,0.439C168.172,75.828,167.661,74.739,167.219,73.578z
	 M176.322,92.442c-0.037-0.186-0.068-0.371-0.105-0.555c0.018-0.005,0.033-0.009,0.047-0.016
	C176.295,92.06,176.309,92.251,176.322,92.442z M176.639,94.355c0.029,0.027,0.061,0.054,0.096,0.078
	c-0.008,0.161-0.017,0.32-0.025,0.481C176.688,94.728,176.662,94.542,176.639,94.355z M171.189,71.892
	c-0.099,0.77-0.194,1.542-0.312,2.312c-0.012,0.08-0.022,0.158-0.037,0.237c-0.43-0.771-0.862-1.536-1.286-2.29
	c-2.109-3.748-4.43-7.392-7.05-10.801c-1.213-1.577-2.513-3.122-3.931-4.546c2.009,1.653,3.869,3.492,5.609,5.417
	C166.852,65.166,169.223,68.439,171.189,71.892z M161.962,71.879c0.104,0.467,0.19,0.936,0.263,1.403
	c0.047,0.281,0.067,0.559,0.102,0.831c-0.023-0.005-0.041-0.01-0.059-0.014c-0.104-0.027-0.207-0.046-0.31-0.069
	C161.992,73.305,161.996,72.586,161.962,71.879z M163.003,71.356c0.509,1.104,0.968,2.23,1.354,3.386
	c0.004,0.02,0.012,0.044,0.016,0.065c-0.23-0.1-0.466-0.193-0.707-0.28C163.7,73.49,163.292,72.313,163.003,71.356z M160.906,73.836
	c-0.014-0.003-0.024-0.003-0.04-0.005c0.021-0.057,0.034-0.113,0.054-0.171C160.912,73.719,160.908,73.776,160.906,73.836z
	 M117.457,50.346L117.457,50.346c-0.444-0.039-0.889-0.088-1.331-0.144c-0.008-0.001-0.017-0.002-0.026-0.002
	c-0.206-0.026-0.418-0.058-0.627-0.089c-0.017-0.001-0.033-0.005-0.048-0.007c-0.21-0.031-0.424-0.064-0.633-0.101
	c-1.628-0.277-3.233-0.685-4.777-1.235l0,0c-0.122-0.042-0.24-0.087-0.359-0.133c0.277-0.529,0.498-1.098,0.686-1.67
	c0.269,0.092,0.542,0.18,0.818,0.263c-0.065,0.107-0.127,0.214-0.19,0.32c-0.237,0.375-0.451,0.655-0.502,1.104
	c-0.028,0.251,0.285,0.44,0.496,0.314c0.449-0.262,0.656-0.655,0.923-1.09c0.077-0.125,0.15-0.254,0.223-0.383
	c3.511,0.907,7.24,1.069,10.832,0.737c1.372-0.129,2.755-0.319,4.13-0.585c0.13,0.314,0.263,0.625,0.402,0.936
	c0.182,0.401,0.34,0.848,0.625,1.17c-1.752,0.338-3.529,0.562-5.304,0.666c-0.754,0.042-1.517,0.064-2.286,0.062l0,0
	c-0.494,0-0.986-0.009-1.483-0.032C118.503,50.426,117.98,50.391,117.457,50.346z M112.358,41.722
	c0.005-0.068,0.012-0.136,0.025-0.205c0.057-0.328,0.161-0.644,0.286-0.953c0.003,0.012,0.006,0.024,0.015,0.036
	C112.597,40.977,112.486,41.353,112.358,41.722z M115.219,36.809c0.023-0.024,0.05-0.048,0.078-0.074
	c-0.008,0.025-0.017,0.05-0.021,0.073C115.258,36.809,115.236,36.807,115.219,36.809z M142.43,42.014
	c0.021,0.028,0.043,0.06,0.063,0.088c0.002,0.005,0.006,0.01,0.01,0.012c0.02,0.029,0.037,0.056,0.053,0.086
	c0.002,0.007,0.008,0.013,0.01,0.02c0.018,0.026,0.031,0.056,0.045,0.083c0.004,0.01,0.008,0.02,0.013,0.027
	c0.01,0.026,0.022,0.054,0.03,0.08c0.004,0.011,0.01,0.023,0.013,0.033c0.009,0.026,0.019,0.051,0.024,0.077
	c0.002,0.012,0.008,0.025,0.013,0.038c0.002,0.025,0.011,0.05,0.015,0.075c0.002,0.014,0.004,0.029,0.006,0.044
	c0.004,0.022,0.008,0.046,0.008,0.07c0.002,0.016,0.002,0.031,0.002,0.048c0,0.021,0.002,0.043,0,0.067c0,0.016,0,0.034-0.002,0.05
	c0,0.022-0.002,0.044-0.004,0.067c-0.004,0.018-0.008,0.036-0.013,0.053c-0.003,0.02-0.009,0.042-0.012,0.061
	c-0.005,0.021-0.013,0.038-0.019,0.056c-0.007,0.021-0.013,0.039-0.02,0.058c-0.01,0.019-0.02,0.038-0.025,0.058
	c-0.009,0.017-0.017,0.034-0.023,0.055c-0.012,0.02-0.029,0.038-0.035,0.058c-0.012,0.017-0.021,0.033-0.032,0.051
	c-0.016,0.018-0.034,0.04-0.048,0.059c-0.012,0.016-0.023,0.031-0.038,0.045c-0.019,0.023-0.041,0.044-0.063,0.064
	c-0.01,0.012-0.024,0.025-0.035,0.04c-0.035,0.029-0.074,0.062-0.117,0.095c-0.335,0.245-0.68,0.484-1.025,0.716
	c-0.171,0.116-0.346,0.225-0.519,0.336c-0.019-0.057-0.031-0.114-0.048-0.172c-0.188-0.692-0.481-1.348-0.91-1.924
	c-0.081-0.108-0.184-0.165-0.283-0.181c0.332-0.246,0.656-0.502,0.975-0.768c0.037-0.033,0.082-0.063,0.121-0.09
	c0.014-0.008,0.028-0.017,0.039-0.025c0.028-0.02,0.059-0.036,0.084-0.049c0.014-0.008,0.03-0.016,0.049-0.025
	c0.023-0.012,0.051-0.025,0.076-0.034c0.018-0.009,0.03-0.015,0.051-0.022c0.025-0.009,0.052-0.016,0.074-0.024
	c0.02-0.005,0.033-0.01,0.053-0.013c0.024-0.007,0.053-0.013,0.076-0.019c0.015-0.001,0.034-0.004,0.049-0.006
	c0.027-0.006,0.058-0.008,0.084-0.009c0.013-0.001,0.025-0.003,0.039-0.003C141.699,41.401,142.146,41.653,142.43,42.014z
	 M142.494,49.163c-0.051-0.087-0.105-0.172-0.163-0.257c0.01,0,0.017,0,0.026-0.002C142.402,48.99,142.453,49.075,142.494,49.163z
	 M135.668,73.022c-1.959,3.099-4.754,5.672-8.146,7.097c-0.914,0.382-1.851,0.651-2.801,0.822c3.039-0.961,5.846-2.623,8.083-4.941
	c2.461-2.547,4.064-5.739,4.896-9.138c0.003,0,0.003-0.002,0.007-0.002c-0.002-0.003-0.004-0.006-0.004-0.009
	c0.241-0.993,0.424-2.002,0.536-3.021c0.004-0.037,0.008-0.076,0.011-0.113c0.454-1.595,0.676-3.265,0.679-4.91
	c0.002-1.817-0.283-3.622-0.773-5.368c-0.283-0.996-0.674-2.134-1.221-3.129c0.269-0.087,0.539-0.175,0.807-0.264
	c0.183,0.384,0.363,0.766,0.507,1.15c0.438,1.193,0.696,2.469,0.935,3.715c0.414,2.198,0.508,4.398,0.342,6.627
	C139.23,65.579,137.826,69.606,135.668,73.022z M137.123,80.365c-0.148,0.094-0.3,0.186-0.449,0.275
	c0.141-0.11,0.271-0.229,0.408-0.344C137.082,80.322,137.1,80.35,137.123,80.365z M128.495,48.642
	c-0.202-0.385-0.384-0.776-0.554-1.173c0.785-0.17,1.565-0.363,2.336-0.584c0.08,0.326,0.166,0.648,0.279,0.968
	c0.131,0.366,0.262,0.868,0.521,1.198c-0.504,0.14-1.014,0.269-1.523,0.39l0,0c-0.218,0.05-0.435,0.099-0.654,0.147
	C128.854,49.238,128.676,48.985,128.495,48.642z M135.843,39.462c-5.093,0.641-8.985,1.131-13.322,1.677
	C124.284,34.681,128.986,34.024,135.843,39.462z M138.98,43.223c0.345,0.503,0.539,1.043,0.685,1.633
	c0.045,0.18,0.074,0.349,0.106,0.509c-0.77,0.46-1.554,0.886-2.353,1.282c-0.067-0.173-0.147-0.346-0.218-0.52
	c-0.172-0.433-0.295-0.885-0.416-1.333c-0.057-0.22-0.209-0.332-0.377-0.359c0.863-0.462,1.695-0.972,2.494-1.533
	C138.891,43.003,138.912,43.114,138.98,43.223z M136.473,52.345c-0.254-0.502-0.563-1.063-0.932-1.596
	c0.159-0.049,0.314-0.099,0.475-0.149c0.498,0.914,0.982,1.813,1.316,2.847c0.432,1.333,0.665,2.728,0.766,4.125
	c-0.068-0.467-0.148-0.934-0.246-1.395C137.57,54.85,137.085,53.555,136.473,52.345z M131.523,47.779
	c-0.17-0.368-0.314-0.746-0.446-1.131c0.403-0.125,0.807-0.259,1.207-0.4c0.155,0.327,0.312,0.655,0.462,0.985
	c0.191,0.415,0.354,0.844,0.783,1.049c-0.512,0.181-1.028,0.351-1.547,0.51C131.936,48.442,131.688,48.136,131.523,47.779z
	 M134.154,56.872c-0.081-0.887-0.209-1.766-0.375-2.622c-0.105-0.518-0.245-1.025-0.412-1.526c0.023,0.032,0.045,0.063,0.063,0.096
	c0.24,0.806,0.42,1.631,0.555,2.46C134.07,55.807,134.125,56.337,134.154,56.872z M135.458,62.177
	c0.038-0.232,0.073-0.462,0.106-0.692c-0.008,0.804-0.058,1.604-0.139,2.39c-0.389,3.857-1.978,7.55-4.641,10.377
	c-1.559,1.655-3.439,2.93-5.498,3.82c2.322-1.396,4.381-3.326,6.002-5.59C133.451,69.46,134.832,65.827,135.458,62.177z
	 M128.137,70.65c-2.94,3.306-6.939,5.016-11.11,6.216c0.258-0.126,0.516-0.255,0.766-0.387c4.631-1.29,8.688-4.788,11.416-8.623
	c1.027-1.448,1.902-3.051,2.574-4.738C131.27,65.901,130.021,68.525,128.137,70.65z M135.788,45.068
	c0.116,0.465,0.246,0.923,0.405,1.374c0.074,0.208,0.156,0.446,0.268,0.663c-0.836,0.38-1.686,0.726-2.544,1.04
	c0.015-0.028,0.024-0.059,0.034-0.09c0.107-0.519-0.248-0.999-0.482-1.44c-0.119-0.224-0.24-0.446-0.359-0.672
	c0.92-0.353,1.822-0.75,2.699-1.195C135.77,44.839,135.762,44.951,135.788,45.068z M129.902,52.276
	c0.213-0.045,0.427-0.095,0.641-0.144c1.191,4.262,0.068,8.858-1.867,12.836l0,0c0.817-2.178,1.146-4.466,1.116-6.783
	c-0.009-0.649-0.075-1.287-0.183-1.919c0.011-0.144,0.021-0.289,0.031-0.433c0.06-1.1,0.112-2.259-0.238-3.304
	c-0.002-0.046-0.006-0.097-0.012-0.146C129.561,52.346,129.734,52.313,129.902,52.276z M126.712,54.224
	c-0.121,5.704-3.611,10.801-8.047,14.294c3.916-4.059,6.739-9.171,7.875-14.695C126.598,53.956,126.654,54.091,126.712,54.224z
	 M119.372,73.117c-1.748,1.252-3.662,2.265-5.662,3.065C115.678,75.319,117.58,74.303,119.372,73.117z M130.018,71.592
	c-0.059,0.085-0.113,0.173-0.166,0.258c-1.74,2.636-4.059,4.871-6.827,6.392c-1.248,0.687-2.572,1.098-3.926,1.3
	c-2.1,0.128-4.15-0.095-6.177-0.532C119.197,78.651,125.822,76.288,130.018,71.592z M103.78,45.387
	c-0.026-0.018-0.043-0.041-0.065-0.061c-0.342-0.325-0.312-0.793-0.098-1.107c0.001-0.004,0.006-0.007,0.008-0.01
	c0.027-0.035,0.052-0.069,0.083-0.101c0.003-0.004,0.008-0.01,0.015-0.015c0.027-0.03,0.057-0.055,0.087-0.077
	c0.009-0.006,0.017-0.013,0.025-0.018c0.032-0.02,0.064-0.04,0.093-0.055c0.01-0.004,0.022-0.006,0.032-0.012
	c0.032-0.015,0.063-0.027,0.097-0.034c0.01-0.003,0.02-0.003,0.03-0.007c0.167-0.031,0.354,0,0.541,0.13
	c0.01,0.006,0.018,0.01,0.028,0.016c0.338,0.248,0.686,0.484,1.034,0.709c-0.11,0.189-0.217,0.384-0.318,0.585
	c-0.141,0.283-0.284,0.592-0.412,0.914C104.558,45.972,104.164,45.688,103.78,45.387z M107.606,45.829
	c-0.255,0.34-0.497,0.686-0.721,1.052c-0.073,0.124-0.155,0.251-0.235,0.388c-0.289-0.157-0.575-0.318-0.851-0.488
	c0.141-0.444,0.28-0.888,0.47-1.301c0.045-0.101,0.094-0.197,0.144-0.293C106.804,45.414,107.204,45.629,107.606,45.829z
	 M107.406,47.661c0.048-0.108,0.1-0.214,0.153-0.315c0.222-0.413,0.476-0.805,0.749-1.181c0.309,0.139,0.614,0.269,0.926,0.394l0,0
	c0.004,0,0.006,0.001,0.006,0.001c0.105,0.04,0.207,0.082,0.312,0.122c-0.241,0.541-0.506,1.08-0.726,1.626
	C108.345,48.106,107.87,47.893,107.406,47.661z M105.867,34.104c-0.088,0.987-0.099,1.978-0.038,2.965
	c-0.042-0.203-0.081-0.406-0.114-0.612c-0.319-1.931-0.374-3.904-0.248-5.854c0.158-2.413,0.69-4.89,1.65-7.16
	c0.575,0.212,1.215,0.505,1.898,0.808c-0.108,0.165-0.213,0.333-0.315,0.502C106.987,27.561,106.154,30.849,105.867,34.104z
	 M105.303,23.175c0.177-0.056,0.38-0.069,0.606-0.047c-0.904,1.979-1.446,4.126-1.719,6.313
	C104.132,27.29,104.357,24.917,105.303,23.175z M113.55,23.813c4.126-2.711,8.264-6.942,14.58-5.648
	c0.142,0.031,0.283,0.065,0.429,0.095c-4.208,0.258-8.411,1.738-12.02,4.204c-2.138,1.459-4.007,3.315-5.49,5.436
	C111.791,26.491,112.705,25.167,113.55,23.813z M102.689,32.088c0.187,1.625,0.505,3.247,0.963,4.827
	c-0.685-1.417-1.155-2.945-1.378-4.492c-0.299-2.056-0.118-4.09,0.497-5.974C102.477,28.471,102.519,30.564,102.689,32.088z
	 M94.128,78.886c1.271-0.519,2.621-0.813,3.966-1.042c0.106-0.02,0.213-0.035,0.32-0.051c-0.17,0.038-0.335,0.075-0.502,0.114
	c-1.289,0.279-2.526,0.625-3.761,1.01c-0.042,0.004-0.079,0.007-0.116,0.009C94.069,78.914,94.1,78.899,94.128,78.886z
	 M88.698,79.843c2.937-2.759,6.155-5.161,9.602-7.355c4.699-2.99,9.578-5.707,13.768-9.41c1.938-1.708,3.792-3.562,5.375-5.604
	c0.439-0.563,0.871-1.18,1.27-1.826c-0.027,0.306-0.074,0.617-0.155,0.924c-0.319,1.18-0.93,2.258-1.621,3.256
	c-1.475,2.122-3.476,3.876-5.471,5.498c-4.418,3.6-9.532,6.251-14.461,9.054C94.128,76.017,91.302,77.793,88.698,79.843z
	 M97.421,76.161c0.683-0.381,1.368-0.759,2.056-1.136c5.06-2.771,10.18-5.504,14.545-9.329c1.956-1.712,3.826-3.548,5.169-5.793
	c1.037-1.738,2.132-4.503,1.348-6.553c0.57,0,1.143-0.017,1.717-0.043c-0.015,0.139-0.03,0.282-0.054,0.423
	c-0.15,1.017-0.384,2.016-0.667,3.001c-0.54,1.883-1.431,3.551-2.591,5.117c-2.56,3.451-6.07,6.174-9.574,8.609
	c-1.679,1.166-3.398,2.392-5.239,3.279c-1.597,0.77-3.302,1.295-4.976,1.849C98.604,75.768,98.019,75.957,97.421,76.161z
	 M101.248,76.048c3.724-1.125,6.88-3.045,10.086-5.222c3.262-2.218,6.355-4.764,8.84-7.847c1.311-1.624,2.235-3.363,2.887-5.345
	c0.347-1.052,0.598-2.125,0.797-3.211c0.07-0.385,0.168-0.813,0.23-1.245c0.348-0.033,0.696-0.069,1.043-0.109
	c-1.435,7.136-5.448,13.324-11.303,17.75c-1.154,0.871-2.369,1.654-3.626,2.372c-0.465,0.189-0.932,0.376-1.399,0.557
	c-1.471,0.573-2.955,1.127-4.441,1.657c-0.639,0.231-1.301,0.458-1.959,0.708c-0.576,0.016-1.154,0.055-1.734,0.111
	C100.86,76.167,101.052,76.108,101.248,76.048z M109.204,79.687c-0.212-0.058-0.423-0.116-0.636-0.169
	c0.087-0.013,0.172-0.03,0.256-0.042C108.953,79.547,109.076,79.618,109.204,79.687z M108.05,76.095
	c-1.212,0.442-2.429,0.854-3.659,1.244c-0.182,0.055-0.366,0.109-0.549,0.159c0.574-0.196,1.14-0.396,1.699-0.573
	C106.379,76.654,107.219,76.378,108.05,76.095z M104.326,80.706c3.017,0.638,5.85,1.914,8.692,3.07
	c3.109,1.265,6.162,2.204,9.51,2.587c3.214,0.367,6.457,0.098,9.635-0.46c4.653-0.819,9.187-2.385,13.575-4.109
	c0.228-0.09,0.449-0.181,0.678-0.272c0.459-0.345,0.939-0.666,1.438-0.963c-0.215,0.266-0.437,0.526-0.67,0.783
	c-1.656,1.856-3.75,3.327-5.879,4.598c-5.016,2.999-11.009,3.358-16.657,2.417c-5.996-1-11.654-3.444-17.237-5.769
	c-1.493-0.622-2.927-1.386-4.38-2.103C103.465,80.544,103.897,80.615,104.326,80.706z M156.607,70.546
	c-0.33,1.722-1.5,2.885-2.959,3.746c-0.051,0.031-0.102,0.065-0.146,0.103c-0.271,0.067-0.546,0.139-0.814,0.213
	c-0.029-0.036-0.063-0.07-0.097-0.102c1.638-2.019,2.929-4.258,3.532-6.856c0.093-0.39,0.169-0.824,0.225-1.278
	C156.689,67.729,156.87,69.164,156.607,70.546z M155.182,56.769c0.135,0.118,0.262,0.241,0.398,0.362
	c0.188,0.24,0.379,0.48,0.57,0.722C155.83,57.487,155.51,57.127,155.182,56.769z M155.273,67.232
	c0.172-0.976,0.252-1.947,0.258-2.908c0.092,0.201,0.177,0.405,0.265,0.608c0.063,1.204-0.125,2.407-0.44,3.571
	c-0.42,1.528-1.138,2.987-2.016,4.348C154.286,71.108,154.934,69.182,155.273,67.232z M153.591,66.22
	c0.029-0.48,0.037-0.963,0.022-1.45c-0.055-2.442-0.729-4.864-1.854-7.061c0.633,0.872,1.219,1.789,1.764,2.725
	C153.889,62.339,153.896,64.323,153.591,66.22z M145.971,68.008c-0.967,3.612-2.847,6.946-5.445,9.629
	c-0.834,0.854-1.754,1.616-2.737,2.29c4.146-3.245,6.801-7.857,8.091-12.947c0.525-2.079,0.854-4.188,0.946-6.318
	C146.908,63.134,146.604,65.625,145.971,68.008z M145.402,66.298c-0.939,4.96-3.666,9.566-7.311,13.039
	c2.82-2.946,4.59-7.18,5.627-11.057c0.969-3.61,1.432-7.371,1.459-11.106c0.01-1.091-0.016-2.185-0.095-3.274
	c0.002,0.007,0.002,0.012,0.006,0.02c0.312,1.26,0.513,2.544,0.654,3.833C146.053,60.596,145.934,63.491,145.402,66.298z
	 M143.467,39.567c-0.107-0.184-0.225-0.364-0.337-0.54c-0.587-0.89-1.276-1.712-2.024-2.479c0.889,0.81,1.73,1.68,2.525,2.585
	C143.578,39.276,143.525,39.42,143.467,39.567z M141.529,31.263c-0.23-0.269-0.471-0.53-0.715-0.789
	c0.055,0.031,0.104,0.063,0.153,0.097c0.233,0.151,0.48,0.192,0.714,0.156c0.428,0.615,0.819,1.253,1.174,1.918
	c0.061,0.108,0.111,0.224,0.166,0.347C142.55,32.344,141.938,31.74,141.529,31.263z M141.057,39.037
	c0.691,0.882,1.143,1.775,1.484,2.733c-0.02,0.042-0.037,0.082-0.059,0.124c-0.197-0.36-0.39-0.677-0.537-0.918
	c-1.157-1.898-2.779-3.52-4.463-4.95c-1.48-1.259-3.352-2.6-5.361-3.566c-0.121-0.172-0.246-0.346-0.357-0.523
	c1.827,0.803,3.551,1.914,5,2.975C138.372,36.093,139.825,37.465,141.057,39.037z M138.98,30.581
	c-3.658-1.783-7.639-2.649-11.683-2.829c-0.237-0.034-0.485-0.041-0.733-0.026c-1.751-0.038-3.536,0.097-5.279,0.424
	c2.562-1.236,5.436-1.725,8.292-1.571c2.307,0.125,4.475,0.644,6.544,1.462c0.542,0.296,1.096,0.563,1.664,0.798
	c0.826,0.717,1.591,1.493,2.313,2.324C139.727,30.958,139.355,30.763,138.98,30.581z M129.971,24.365
	c-3.867-0.198-7.502,0.689-10.759,2.653c1.096-0.891,2.266-1.679,3.523-2.324c2.031-1.038,4.244-1.499,6.471-1.489
	c0.558,0.398,1.108,0.811,1.665,1.225C130.572,24.405,130.266,24.38,129.971,24.365z M136.309,22.133
	c-0.226-0.087-0.453-0.171-0.68-0.251c-4.574-1.616-9.424-1.242-13.728,0.945c-4.201,2.133-7.413,5.975-10.033,9.81
	c-0.813,0.776-1.536,1.646-2.139,2.622c0.18-0.817,0.424-1.619,0.724-2.405c1.401-3.647,4.253-6.592,7.441-8.75
	c3.167-2.145,7.009-3.372,10.821-3.555c1.956-0.093,3.864,0.208,5.748,0.718c0.664,0.181,1.299,0.422,1.902,0.706
	C136.35,22.026,136.33,22.08,136.309,22.133z M116.03,14.744c-1.125,0.286-2.251,0.584-3.357,0.906
	c1.276-0.433,2.583-0.778,3.906-1.037C116.397,14.654,116.214,14.697,116.03,14.744z M104.645,51.917
	c-0.037,0.073-0.072,0.152-0.107,0.232c-0.451,0.267-0.901,0.535-1.352,0.802C103.668,52.627,104.162,52.284,104.645,51.917z
	 M112.818,60.116c1.702-1.791,3.616-4.301,4.357-6.916c0.333,0.03,0.663,0.059,0.996,0.08c-0.476,1.239-1.117,2.421-2.257,3.955
	c-0.679,0.915-1.443,1.771-2.22,2.605c-1.707,1.835-3.566,3.461-5.531,5.011c-4.067,3.206-8.575,5.804-12.799,8.788
	c-4.141,2.924-7.779,6.368-11.042,10.155c0.007-0.041,0.015-0.079,0.019-0.12c-2.806,2.962-5.428,6.292-7.273,9.927
	c-0.204,0.315-0.41,0.628-0.611,0.945c0.597-3.214,1.866-6.162,3.938-8.916c2.788-3.708,6.547-6.684,10.306-9.343
	C98.164,71.017,106.458,66.809,112.818,60.116z M79.547,89.89c-0.024,0.034-0.045,0.065-0.066,0.098
	c0.008-0.088,0.017-0.179,0.024-0.268C79.517,89.765,79.528,89.823,79.547,89.89z M76.47,80.496
	c1.44-4.726,3.779-9.037,6.989-12.812c3.315-3.893,7.508-6.989,11.794-9.728c0.146-0.094,0.292-0.185,0.442-0.278
	c-0.057,0.04-0.108,0.074-0.163,0.113c-3.682,2.604-7.096,5.595-10.129,8.934c-3.106,3.418-5.721,7.245-7.817,11.358
	C77.186,78.88,76.811,79.685,76.47,80.496z M99.914,51.654c-2.277,1.47-4.602,2.865-6.871,4.353
	c-4.52,2.968-8.754,6.343-12.227,10.514c-3.32,3.989-5.627,8.676-7.076,13.643c-0.976,3.353-1.867,7.309-1.602,11.014
	c-0.179-0.579-0.331-1.165-0.446-1.769c-0.46-2.39-0.402-4.873,0.13-7.247c1.02-4.552,3.458-8.67,6.202-12.387
	c2.892-3.913,6.285-7.439,9.829-10.759c0.033-0.029,0.062-0.06,0.092-0.089c2.337-1.621,4.792-3.059,7.25-4.525
	c1.784-1.066,3.559-2.142,5.295-3.282c0.813-0.531,1.721-1.085,2.582-1.698C102.075,50.241,100.996,50.956,99.914,51.654z
	 M131.178,233.379c0.055-0.053,0.105-0.095,0.161-0.145c-0.048,0.054-0.097,0.111-0.146,0.162
	C131.191,233.391,131.186,233.383,131.178,233.379z M132.59,200.818c-0.014-0.539-0.934-0.521-0.951,0.017
	c-0.033,0.962-0.109,1.916-0.207,2.871c-0.005-0.028-0.007-0.056-0.007-0.083c-0.073-1.512,0.002-3.016-0.012-4.523
	c-0.004-0.736-1.035-0.729-1.22-0.093c-0.478,1.638-0.623,3.396-0.709,5.095c-0.012,0.229-0.024,0.469-0.033,0.715
	c-1.129-2.191-2.135-4.133-3.098-5.998c-6.542,8.726-15.629,10.183-29.522,3.438c10.232-4.88,19.691-9.387,29.681-14.152
	c0.854,0.068,1.703,0.133,2.555,0.233c1.151,0.136,2.293,0.328,3.428,0.554c7.96,3.959,16.379,8.145,25.373,12.625
	c-9.037,5.737-9.977,5.996-23.104,2.262c-0.127-0.284-0.512-0.366-0.748-0.207c-0.322-0.096-0.651-0.188-0.988-0.285
	c-0.158,0.917-0.297,1.734-0.447,2.615c0-0.006,0-0.008,0-0.008C132.631,204.202,132.63,202.512,132.59,200.818z M122.208,223.984
	c-0.032,0.064-0.063,0.13-0.095,0.197c-0.133,0.12-0.265,0.242-0.4,0.363c-0.119,1.538-0.204,3.081-0.23,4.617
	c-0.012,0.589-0.017,1.184-0.012,1.783c0-0.004,0-0.006,0-0.006c0,0.021,0,0.043,0,0.061c0.001,0.148,0.005,0.301,0.006,0.449
	c0.005,0.171,0.008,0.342,0.012,0.511c0.003,0.134,0.014,0.269,0.017,0.404c0.008,0.187,0.019,0.37,0.029,0.558
	c0.008,0.124,0.013,0.248,0.023,0.374c0.014,0.196,0.028,0.394,0.047,0.589c0.01,0.119,0.02,0.233,0.028,0.346
	c0.021,0.209,0.049,0.414,0.072,0.623c0.013,0.105,0.026,0.207,0.04,0.315c0.032,0.222,0.066,0.44,0.102,0.663
	c0.015,0.089,0.026,0.179,0.045,0.268c0.04,0.248,0.092,0.498,0.144,0.742c0.011,0.051,0.021,0.104,0.032,0.155v-0.002
	c0.074,0.328,0.153,0.657,0.244,0.983c0.327,1.164,0.761,2.328,1.448,3.334c0.595,0.865,1.61,1.362,2.143,2.213
	c0.186,0.297-0.104,0.619-0.401,0.621c-1.061,0.006-2.031-1.229-2.591-2.02c-0.705-0.993-1.191-2.129-1.541-3.291
	c-0.086-0.295-0.168-0.597-0.242-0.896c-0.082-0.328-0.152-0.655-0.22-0.988l0,0c-0.26-1.314-0.404-2.653-0.472-3.998
	c0-0.023,0-0.042-0.003-0.066c-0.017-0.313-0.025-0.629-0.034-0.938c-0.001-0.037-0.001-0.072-0.003-0.107
	c-0.007-0.307-0.01-0.612-0.01-0.918c0-0.034,0-0.067,0-0.103c0-0.313,0.003-0.625,0.008-0.941c0.005-0.322,0.015-0.65,0.025-0.973
	c0.007-0.117,0.012-0.229,0.017-0.352c0.007-0.203,0.018-0.41,0.027-0.617c0.008-0.142,0.019-0.278,0.022-0.424
	c0.013-0.189,0.026-0.379,0.037-0.57c0.01-0.137,0.021-0.271,0.03-0.407c0.193-2.595,0.545-5.181,1.015-7.74
	c0.088-0.485,0.182-0.969,0.279-1.45c0.008-0.041,0.015-0.08,0.023-0.117c0.1-0.496,0.202-0.996,0.312-1.489
	c0.001-0.005,0.001-0.013,0.003-0.017c0.095-0.453,0.199-0.902,0.302-1.354c0.025-0.107,0.049-0.212,0.075-0.321
	c0.105-0.458,0.215-0.912,0.327-1.369c0.063-0.257,0.509-0.175,0.459,0.09c-0.1,0.537-0.2,1.074-0.295,1.61
	c-0.032,0.175-0.058,0.351-0.09,0.522c-0.063,0.365-0.123,0.729-0.185,1.098c-0.037,0.212-0.068,0.419-0.1,0.629
	c-0.055,0.336-0.106,0.675-0.159,1.012c-0.032,0.219-0.063,0.439-0.095,0.655c-0.05,0.342-0.095,0.681-0.142,1.017
	c-0.02,0.168-0.045,0.33-0.067,0.496h0.002c-0.2,1.551-0.367,3.109-0.492,4.67C121.883,224.311,122.045,224.146,122.208,223.984z
	 M119.815,238.871c-0.083-0.084-0.163-0.171-0.236-0.262c-0.03-0.034-0.059-0.066-0.088-0.104c-0.045-0.057-0.092-0.105-0.133-0.163
	c-0.037-0.047-0.074-0.094-0.105-0.141c-0.034-0.048-0.071-0.095-0.105-0.14c-0.039-0.057-0.075-0.11-0.11-0.166
	c-0.028-0.043-0.055-0.078-0.082-0.121c-0.041-0.063-0.08-0.127-0.119-0.188c-0.022-0.032-0.042-0.067-0.063-0.104
	c-0.042-0.069-0.083-0.143-0.122-0.215c-0.017-0.025-0.032-0.05-0.045-0.076c-0.045-0.082-0.088-0.164-0.132-0.248
	c-0.007-0.014-0.014-0.027-0.021-0.043c-0.048-0.094-0.095-0.186-0.144-0.278l0,0c-0.134-0.289-0.265-0.587-0.384-0.88l0,0
	c-0.075-0.178-0.145-0.359-0.211-0.54c-0.007-0.007-0.009-0.017-0.009-0.025c-0.133-0.352-0.257-0.704-0.375-1.049
	c-0.011-0.03-0.016-0.058-0.026-0.084c-0.057-0.161-0.108-0.319-0.162-0.478c-0.113-0.344-0.222-0.688-0.325-1.031
	c-0.023-0.076-0.043-0.153-0.068-0.229c-0.095-0.338-0.194-0.676-0.281-1.016c0-0.004-0.005-0.008-0.005-0.018
	c-0.201-0.769-0.374-1.541-0.521-2.318c-0.117-0.643-0.221-1.289-0.297-1.939c-0.14-1.209-0.227-2.455-0.22-3.699l0,0
	c0-0.137,0.003-0.271,0.008-0.407c0.001-0.082,0.003-0.165,0.006-0.251c0.003-0.129,0.01-0.26,0.013-0.391
	c0.006-0.11,0.017-0.221,0.023-0.326c0.011-0.188,0.027-0.375,0.043-0.561c0.008-0.111,0.022-0.224,0.031-0.334
	c0.012-0.109,0.024-0.218,0.041-0.328c0.019-0.138,0.037-0.273,0.055-0.41c0.021-0.121,0.04-0.242,0.06-0.36
	c0.025-0.159,0.055-0.32,0.085-0.481c0.019-0.088,0.037-0.177,0.057-0.263c0.032-0.149,0.066-0.3,0.104-0.446
	c0.017-0.07,0.032-0.137,0.05-0.206c0.054-0.208,0.112-0.411,0.175-0.618c0.02-0.065,0.043-0.129,0.062-0.193
	c0.053-0.161,0.107-0.322,0.163-0.479c0.024-0.063,0.044-0.126,0.068-0.187c0.075-0.208,0.161-0.412,0.25-0.616
	c0.016-0.041,0.034-0.079,0.053-0.12c0.08-0.171,0.16-0.34,0.243-0.511c0.031-0.059,0.056-0.113,0.084-0.169
	c0.105-0.206,0.215-0.408,0.332-0.606c0.145-0.242,0.479-0.008,0.362,0.231c-0.104,0.212-0.195,0.425-0.289,0.641
	c-0.026,0.068-0.054,0.136-0.078,0.206c-0.064,0.149-0.122,0.307-0.177,0.457c-0.027,0.075-0.055,0.155-0.082,0.229
	c-0.055,0.162-0.11,0.326-0.159,0.492c-0.021,0.063-0.038,0.121-0.056,0.184c-0.062,0.213-0.123,0.431-0.174,0.648
	c-0.023,0.082-0.039,0.166-0.058,0.246c-0.034,0.145-0.065,0.285-0.095,0.434c-0.02,0.1-0.04,0.201-0.06,0.304
	c-0.022,0.124-0.045,0.254-0.065,0.378c-0.018,0.109-0.034,0.221-0.05,0.325c-0.02,0.128-0.035,0.258-0.05,0.387
	c-0.03,0.211-0.051,0.423-0.072,0.638c-0.007,0.09-0.015,0.181-0.021,0.271c-0.015,0.144-0.022,0.289-0.03,0.435
	c-0.005,0.076-0.008,0.151-0.013,0.229c-0.011,0.155-0.014,0.312-0.017,0.468c-0.003,0.043-0.003,0.082-0.003,0.123
	c-0.014,0.564-0.007,1.13,0.019,1.693c0,0.018,0,0.031,0.002,0.047c0.011,0.195,0.02,0.393,0.033,0.587v0.002l0,0
	c0.064,0.937,0.172,1.867,0.314,2.772c0.225,1.424,0.529,2.844,0.931,4.231c0.022,0.076,0.042,0.149,0.065,0.224
	c0.073,0.243,0.148,0.485,0.225,0.728c0.027,0.082,0.055,0.167,0.083,0.249c0.102,0.309,0.21,0.613,0.326,0.921
	c0.614,1.632,1.496,3.144,2.079,4.78c0.008,0.027,0.012,0.047,0.013,0.068C120.361,238.927,119.984,239.048,119.815,238.871z
	 M140.262,178.331c-0.023,0.015-0.049,0.021-0.074,0.03c-0.049-0.059-0.096-0.113-0.146-0.172c0.031,0.008,0.066,0.022,0.104,0.033
	C140.184,178.258,140.221,178.298,140.262,178.331z M112.646,219.664c-0.066,0.221-0.381,0.291-0.537,0.111
	c-0.516-0.607-0.616-1.621-0.563-2.635l0,0c0.033-0.619,0.123-1.229,0.208-1.756c0.002-0.031,0.01-0.064,0.017-0.093
	c0.005-0.051,0.015-0.099,0.021-0.144c0.007-0.031,0.012-0.064,0.019-0.103c0.01-0.062,0.02-0.12,0.03-0.181
	c0.267-1.571,0.791-3.079,1.605-4.454c0.147-0.253,0.594-0.047,0.469,0.228c-0.674,1.44-1.12,3.038-1.269,4.621
	c-0.021,0.233-0.043,0.467-0.057,0.703h-0.001l0,0c-0.012,0.153-0.023,0.307-0.03,0.458l0,0l0,0
	c-0.005,0.188-0.011,0.377-0.011,0.565c0,0.016,0,0.037,0,0.053c0,0.206,0.006,0.41,0.018,0.613c0.008,0.102,0.02,0.203,0.032,0.304
	c0.045,0.351,0.112,0.701,0.123,1.051l0,0C112.725,219.227,112.711,219.448,112.646,219.664z M127.586,206.084
	c0.042,0.18,0.081,0.355,0.12,0.53c-0.054-0.028-0.108-0.063-0.165-0.091C127.564,206.38,127.576,206.232,127.586,206.084z
	 M136.715,222.997c0.034-0.183,0.064-0.361,0.098-0.542l0,0c0.002-0.008,0.002-0.02,0.004-0.027c0.055-0.285,0.104-0.57,0.154-0.857
	c0.023-0.155,0.051-0.313,0.08-0.471c0.034-0.207,0.07-0.42,0.104-0.627c0.033-0.219,0.068-0.434,0.101-0.646
	c0.027-0.159,0.05-0.317,0.071-0.475c0.057-0.377,0.105-0.757,0.15-1.139c0.01-0.086,0.021-0.177,0.033-0.268
	c0.004-0.043,0.008-0.082,0.014-0.121c0.004-0.061,0.015-0.113,0.022-0.172c0.011-0.102,0.024-0.205,0.037-0.312
	c0.001-0.014,0.003-0.028,0.003-0.042c0.029-0.204,0.053-0.418,0.078-0.636c0.002-0.013,0.002-0.027,0.003-0.043
	c0.011-0.095,0.021-0.185,0.03-0.283c0-0.019,0.003-0.035,0.005-0.058c0.01-0.103,0.019-0.203,0.028-0.309
	c0-0.006,0.004-0.012,0.004-0.021c0.019-0.224,0.037-0.452,0.048-0.688c0-0.01,0.003-0.025,0.003-0.039
	c0.005-0.101,0.009-0.205,0.015-0.303c0-0.018,0.003-0.033,0.003-0.057c0.002-0.108,0.006-0.219,0.006-0.33c0,0,0-0.004,0-0.006
	c0.004-0.231,0-0.465-0.011-0.695c0-0.016-0.003-0.037-0.004-0.051c-0.004-0.096-0.009-0.194-0.019-0.287
	c-0.002-0.02-0.002-0.039-0.004-0.063c-0.01-0.104-0.02-0.211-0.03-0.314c0-0.004,0-0.006,0-0.014
	c-0.017-0.113-0.029-0.227-0.048-0.338c0,0,0-0.003-0.004-0.003l0,0c-0.172-1.075-0.566-2.048-1.34-2.726
	c-0.187-0.16,0.078-0.459,0.272-0.325c0.903,0.638,1.411,1.614,1.683,2.708c0.074,0.311,0.133,0.626,0.178,0.948
	c0,0.004,0,0.01,0,0.016c0.013,0.104,0.025,0.202,0.033,0.306c0,0.006,0.002,0.014,0.002,0.02c0.047,0.426,0.065,0.863,0.068,1.29
	c0,0.012,0,0.019,0,0.028c0,0.099,0,0.192,0,0.287c0,0.015,0,0.025,0,0.037c-0.003,0.096-0.003,0.194-0.003,0.293
	c0,0.006,0,0.012,0,0.016c-0.008,0.207-0.015,0.41-0.024,0.613c0,0.018,0,0.028-0.004,0.047c-0.002,0.08-0.008,0.156-0.01,0.234
	c0,0.029-0.002,0.057-0.004,0.083c-0.005,0.066-0.008,0.132-0.012,0.198c-0.004,0.029-0.004,0.061-0.008,0.09
	c-0.006,0.065-0.008,0.131-0.015,0.196c0,0.021-0.002,0.046-0.002,0.073c-0.006,0.084-0.012,0.171-0.021,0.25
	c-0.026,0.404-0.063,0.809-0.104,1.211c-0.003,0.031-0.007,0.059-0.008,0.09c-0.041,0.386-0.088,0.775-0.135,1.163
	c-0.008,0.038-0.012,0.079-0.016,0.118c-0.052,0.389-0.104,0.772-0.16,1.162c-0.008,0.033-0.014,0.071-0.016,0.11
	c-0.061,0.399-0.117,0.8-0.184,1.196c-0.014,0.104-0.031,0.212-0.047,0.314c-0.176,1.11-0.123,2.812-0.76,3.771
	c-0.149,0.222-0.578,0.257-0.687-0.034C135.992,225.507,136.521,224.057,136.715,222.997z M143.535,216.777
	c0.063-0.614,0.098-1.232,0.078-1.854c-0.006-0.229-0.024-0.453-0.038-0.683l0,0c-0.069-1.066-0.205-2.119-0.374-3.177
	c-0.07-0.434,0.585-0.576,0.672-0.142c0.211,1.058,0.408,2.125,0.516,3.199c0.021,0.19,0.036,0.377,0.051,0.565
	c0,0.018,0.004,0.035,0.004,0.057c0.012,0.201,0.021,0.398,0.027,0.604c0.027,1.195,0.109,2.832-0.715,3.791
	c-0.213,0.244-0.523-0.016-0.541-0.257C143.168,218.176,143.461,217.486,143.535,216.777z M151.238,219.941
	c0.076-0.066,0.15-0.133,0.229-0.2c0.029,0.053,0.053,0.098,0.08,0.144c-0.08,0.07-0.156,0.139-0.234,0.206
	C151.284,220.044,151.264,219.992,151.238,219.941z M109.139,211.6L109.139,211.6c0.029-0.086,0.06-0.166,0.088-0.248
	c0.012-0.035,0.027-0.067,0.041-0.104c0.024-0.07,0.052-0.14,0.082-0.206c0.024-0.059,0.047-0.116,0.07-0.171
	c0.022-0.054,0.047-0.104,0.07-0.161c0.052-0.109,0.102-0.223,0.158-0.334c0.17-0.338,0.75-0.061,0.599,0.287
	c-0.455,1.035-0.705,2.139-0.752,3.27c-0.035,0.936,0.287,1.967,0.047,2.863c-0.058,0.2-0.354,0.271-0.481,0.104
	c-0.046-0.061-0.088-0.125-0.128-0.189c-0.012-0.025-0.025-0.045-0.035-0.068c-0.025-0.045-0.051-0.095-0.072-0.148
	c-0.01-0.023-0.021-0.047-0.032-0.074c-0.021-0.057-0.041-0.109-0.057-0.171c-0.008-0.019-0.015-0.042-0.021-0.062
	c-0.024-0.08-0.042-0.162-0.061-0.248c-0.002-0.006-0.002-0.014-0.003-0.021c-0.013-0.077-0.024-0.157-0.037-0.235
	c-0.005-0.023-0.007-0.05-0.01-0.072c-0.009-0.064-0.015-0.135-0.019-0.198c-0.001-0.024-0.003-0.049-0.007-0.072
	c-0.003-0.077-0.006-0.153-0.008-0.229c0-0.012,0-0.027,0-0.035c-0.003-0.1-0.003-0.19,0-0.284c0.014-0.454,0.064-0.896,0.119-1.259
	C108.784,212.859,108.933,212.223,109.139,211.6z M125.822,237.373c-0.02-0.271-0.04-0.544-0.051-0.814c0,0,0,0.002,0.002,0.002
	c-0.047-0.828-0.06-1.658-0.045-2.49c0.006-0.195,0.01-0.393,0.015-0.588c0-0.002,0-0.002,0.002-0.002
	c0-0.104,0.01-0.211,0.017-0.318c0.008-0.165,0.014-0.33,0.021-0.495c0.006-0.103,0.016-0.208,0.022-0.312
	c0.012-0.229,0.029-0.459,0.049-0.688c0-0.044,0.004-0.089,0.012-0.134c0.056-0.627,0.123-1.251,0.208-1.874
	c-0.003,0.002-0.003,0.005-0.005,0.007c0.086-0.66,0.188-1.313,0.307-1.968c0.072-0.415,0.15-0.831,0.234-1.247
	c0.197-1.013,0.41-2.026,0.611-3.038c0.018-0.08,0.032-0.155,0.049-0.234c0.049-0.259,0.099-0.516,0.148-0.771
	c0.021-0.12,0.045-0.24,0.066-0.359c0.043-0.225,0.084-0.451,0.123-0.682c0.021-0.126,0.045-0.254,0.066-0.383
	c0.038-0.234,0.073-0.471,0.109-0.709c0.02-0.112,0.037-0.229,0.053-0.34c0.048-0.351,0.098-0.697,0.137-1.052
	c0.01-0.065,0.016-0.14,0.021-0.21c-0.12,0.122-0.247,0.239-0.368,0.359c-0.021-0.016-0.043-0.031-0.062-0.045
	c0.143-0.108,0.285-0.219,0.431-0.324c0.346-3.116,0.487-6.535-1.056-9.363c-0.073-0.141,0.119-0.267,0.224-0.152
	c1.981,2.08,1.989,5.621,1.86,8.301c0,0.002,0,0.002,0,0.002l0,0c-0.002,0.029-0.004,0.06-0.004,0.091
	c-0.018,0.344-0.041,0.688-0.071,1.03c-0.011,0.144-0.024,0.283-0.036,0.421c-0.023,0.233-0.045,0.469-0.07,0.702
	c-0.018,0.156-0.041,0.313-0.059,0.47c-0.028,0.216-0.055,0.433-0.081,0.649c-0.022,0.16-0.046,0.32-0.069,0.478
	c-0.033,0.215-0.063,0.431-0.098,0.646c-0.023,0.154-0.049,0.313-0.074,0.465c-0.037,0.223-0.07,0.445-0.111,0.664
	c-0.022,0.146-0.052,0.291-0.076,0.435c-0.041,0.243-0.086,0.483-0.127,0.728c-0.021,0.11-0.043,0.224-0.063,0.342
	c-0.124,0.679-0.253,1.355-0.377,2.037c-0.069,0.386-0.138,0.771-0.2,1.16l0,0c-0.002,0-0.002,0-0.002,0
	c-0.01,0.063-0.018,0.119-0.025,0.176c-0.051,0.313-0.1,0.625-0.143,0.941c-0.02,0.139-0.033,0.277-0.05,0.416
	c-0.033,0.232-0.062,0.469-0.091,0.705c-0.019,0.153-0.033,0.311-0.047,0.465c-0.023,0.221-0.045,0.44-0.065,0.666
	c-0.013,0.157-0.028,0.32-0.039,0.479c-0.017,0.222-0.032,0.44-0.045,0.659c-0.009,0.16-0.021,0.316-0.024,0.476
	c-0.013,0.229-0.018,0.458-0.025,0.685c-0.004,0.152-0.012,0.303-0.012,0.449c-0.006,0.252-0.006,0.502-0.004,0.75
	c0,0.127-0.002,0.256,0,0.383c0.008,0.377,0.018,0.752,0.033,1.127c0.081,1.565,0.254,3.164,0.717,4.668
	c0.209,0.688,0.473,1.379,0.855,1.994c0.292,0.475,0.691,0.851,0.936,1.353c0.176,0.368-0.172,0.854-0.586,0.688
	c-1.129-0.434-1.738-1.861-2.14-2.916C126.191,240.468,125.95,238.92,125.822,237.373z M129.505,242.318
	c-0.485-1.594-0.577-3.354-0.489-5.09l0,0c0.021-0.455,0.053-0.91,0.094-1.359v0.002c0.022-0.25,0.049-0.497,0.078-0.74
	c0.022-0.203,0.049-0.402,0.071-0.604c0,0,0-0.002,0-0.006c0.026-0.205,0.052-0.408,0.075-0.604c0.064-0.44,0.127-0.876,0.198-1.313
	c0.008-0.052,0.02-0.104,0.024-0.156c0.069-0.41,0.137-0.815,0.213-1.227c0.375-2.104,0.83-4.195,1.244-6.298
	c0.137-0.702,0.276-1.407,0.404-2.112l0,0c0-0.004,0-0.004,0-0.012c0.051-0.287,0.1-0.574,0.148-0.861
	c0.002-0.008,0.002-0.021,0.004-0.033c0.046-0.273,0.091-0.549,0.133-0.827c0.003-0.019,0.005-0.035,0.01-0.056
	c0.042-0.272,0.08-0.551,0.117-0.828c0.004-0.035,0.009-0.072,0.009-0.109c0.037-0.254,0.069-0.516,0.101-0.768
	c0.002-0.028,0.004-0.051,0.006-0.075c0.031-0.267,0.057-0.536,0.08-0.804c0.004-0.054,0.007-0.109,0.012-0.158
	c0.023-0.252,0.04-0.51,0.059-0.758c0-0.019,0.002-0.041,0.002-0.063c0.012-0.263,0.023-0.523,0.032-0.789
	c0.003-0.061,0.004-0.126,0.004-0.188c0.005-0.267,0.009-0.53,0.007-0.799c-0.029-3.078-0.736-5.938-2.076-8.709
	c-0.013-0.022-0.02-0.047-0.023-0.076c0-0.002,0-0.01-0.003-0.02c-0.002-0.018-0.004-0.033-0.004-0.053
	c0-0.008,0.002-0.014,0.002-0.021c0.002-0.021,0.005-0.046,0.01-0.064v-0.002c0.011-0.023,0.021-0.045,0.033-0.068
	c0-0.002,0.002-0.004,0.002-0.008c0.015-0.018,0.026-0.037,0.041-0.053c0.001,0,0.003-0.006,0.004-0.006
	c0.054-0.057,0.118-0.096,0.188-0.112c0.101-0.021,0.207,0.004,0.287,0.108c0.59,0.75,1.063,1.547,1.448,2.379
	c0.026,0.056,0.05,0.107,0.072,0.164c0.045,0.1,0.087,0.195,0.13,0.295c0.025,0.068,0.053,0.139,0.083,0.205
	c0.035,0.092,0.069,0.178,0.099,0.268c0.03,0.07,0.053,0.143,0.08,0.21c0.032,0.098,0.064,0.194,0.096,0.284
	c0.021,0.064,0.041,0.13,0.062,0.193c0.05,0.147,0.093,0.301,0.136,0.45c0.021,0.066,0.031,0.13,0.053,0.196
	c0.021,0.093,0.048,0.189,0.072,0.289c0.016,0.074,0.034,0.15,0.053,0.222c0.02,0.095,0.039,0.187,0.057,0.274
	c0.02,0.074,0.033,0.15,0.047,0.223c0.02,0.102,0.039,0.206,0.057,0.305c0.012,0.062,0.022,0.129,0.032,0.193
	c0.025,0.152,0.048,0.311,0.072,0.468c0.006,0.072,0.019,0.146,0.024,0.216c0.015,0.096,0.022,0.19,0.035,0.287
	c0.008,0.076,0.018,0.157,0.021,0.237c0.013,0.091,0.021,0.183,0.028,0.274c0.006,0.076,0.016,0.156,0.019,0.233
	c0.007,0.107,0.017,0.212,0.021,0.318c0.006,0.104,0.015,0.202,0.017,0.306c0.006,0.12,0.011,0.236,0.012,0.355
	c0.007,0.08,0.009,0.16,0.009,0.244c0,0.088,0,0.179,0,0.273c0,0.08,0,0.165,0,0.249c0,0.089,0,0.177,0,0.267
	c0,0.082,0,0.166-0.002,0.25c-0.005,0.102-0.008,0.207-0.009,0.312c-0.008,0.128-0.011,0.261-0.021,0.39
	c-0.002,0.09-0.008,0.185-0.01,0.274c-0.006,0.092-0.012,0.181-0.018,0.269c-0.006,0.082-0.012,0.164-0.018,0.241
	c-0.006,0.093-0.015,0.185-0.02,0.277c-0.01,0.075-0.013,0.157-0.021,0.233c-0.008,0.094-0.016,0.185-0.023,0.276
	c-0.004,0.07-0.012,0.136-0.02,0.208c-0.021,0.18-0.041,0.361-0.06,0.54c-0.006,0.067-0.014,0.134-0.021,0.198
	c-0.012,0.103-0.025,0.203-0.039,0.305c-0.008,0.063-0.016,0.129-0.023,0.193c-0.015,0.103-0.027,0.205-0.039,0.311
	c-0.007,0.051-0.02,0.105-0.023,0.155c-0.051,0.381-0.108,0.761-0.17,1.138c-0.006,0.031-0.008,0.057-0.016,0.088
	c-0.017,0.124-0.04,0.249-0.059,0.371c-0.006,0.025-0.01,0.055-0.016,0.079c-0.021,0.127-0.043,0.257-0.065,0.388l0,0
	c-0.056,0.313-0.111,0.621-0.166,0.926c-0.585,3.162-1.322,6.295-1.773,9.479c-0.026,0.179-0.047,0.361-0.067,0.54l0,0
	c0,0.002,0,0.002-0.002,0.004c-0.043,0.365-0.084,0.723-0.114,1.084v0.006c-0.034,0.359-0.06,0.717-0.077,1.076c0,0,0,0,0,0.002
	c-0.023,0.357-0.037,0.715-0.041,1.068v0.002c-0.034,1.613,0.057,3.225,0.271,4.888
	C130.879,242.883,129.746,243.119,129.505,242.318z M165.721,191.807c-0.646-0.178-1.271-0.438-1.881-0.722
	c-1.768-0.827-3.39-2.176-4.833-3.474c-3.054-2.756-5.502-6.103-8.459-8.956c-2.704-2.604-5.978-4.689-9.728-5.326
	c-3.166-0.536-6.432,0.063-9.291,1.489c-0.984,0.275-1.989,0.732-2.861,1.351c-0.104,0.035-0.208,0.07-0.311,0.104
	c-0.724-0.147-1.445-0.32-2.157-0.52c-2.146-0.592-4.43-1.128-6.643-1.379c-3.762-0.43-7.468,0.259-10.812,2.032
	c-1.333,0.707-2.562,1.593-3.705,2.584c-1.719,1.274-3.349,2.911-4.934,4.932c-2.528,3.229-5.53,6.083-8.437,9.019
	c-0.222-0.094-0.435-0.18-0.623-0.271c-0.94-0.444-1.883-0.876-2.825-1.325c-2.194-1.041-4.328-2.248-6.322-3.646
	c-0.684-0.479-1.343-0.997-1.963-1.549c-0.003-0.006-0.003-0.012-0.005-0.012c-1.577-2.252-2.463-5.021-3.054-7.66
	c-0.976-4.342-1.298-8.803-1.508-13.242c-0.271-5.756-1.028-11.703-1.141-17.592c-0.207-1.082-0.322-2.174-0.299-3.297
	c0.008-0.359,0.138-0.648,0.337-0.871c0.01-0.236,0.022-0.474,0.032-0.709c-0.062-3.227-0.002-6.457,0.111-9.687
	c-0.015-1.388-0.021-2.771-0.023-4.161c0.117-3.359,0.13-6.723-0.035-10.07c0.008-1.73,0.045-3.458,0.152-5.183
	c0.249-3.931,0.886-7.773,2.122-11.43c0.032-0.096,0.065-0.192,0.101-0.286c0.082-0.238,0.167-0.478,0.255-0.714
	c0.025-0.069,0.05-0.136,0.075-0.203c0.237-0.623,0.492-1.237,0.766-1.846c0.03-0.067,0.062-0.135,0.09-0.203
	c0.111-0.238,0.224-0.475,0.339-0.712c0.035-0.074,0.075-0.151,0.112-0.225c0.13-0.263,0.267-0.526,0.406-0.788
	c0.158-0.302,0.322-0.601,0.495-0.9c1.063-2.144,2.257-4.214,3.726-6.147c3.18-4.189,7.326-7.696,12.464-9.145
	c1.084-0.305,2.191-0.52,3.305-0.635c0.867,0.329,1.714,0.766,2.528,1.239c2.625,1.516,5.321,2.79,8.092,4.016
	c5.626,2.49,11.48,4.683,17.632,5.361c5.952,0.657,11.769-0.638,16.825-3.844c2.221-1.409,4.247-3.126,5.939-5.145
	c0.793-0.943,1.676-2.148,2.297-3.43c0.164-0.061,0.33-0.121,0.496-0.176c0.844-0.287,1.728-0.532,2.631-0.731
	c3.021-0.669,6.269-0.784,9.15,0.221c0.002,0,0.006,0,0.006,0c0.627,0.351,1.25,0.71,1.851,1.104
	c1.178,0.776,2.209,1.808,3.116,2.885c1.689,2.019,2.748,4.565,3.533,7.052c0.895,2.823,1.355,5.77,1.705,8.703
	c0.146,1.2,0.282,2.396,0.365,3.596c0.006,0.394,0.004,0.788,0.004,1.183c0,0.178,0,0.356,0,0.536
	c-0.008,0.384-0.018,0.768-0.023,1.156c0,0.115-0.002,0.232-0.004,0.347c-0.014,0.507-0.031,1.015-0.051,1.52
	c-0.004,0.095-0.007,0.189-0.015,0.282c-0.017,0.412-0.037,0.824-0.06,1.235c-0.008,0.167-0.02,0.335-0.028,0.502
	c-0.021,0.34-0.037,0.68-0.062,1.021c-0.009,0.183-0.021,0.37-0.035,0.555c-0.021,0.328-0.045,0.653-0.068,0.977
	c-0.014,0.188-0.025,0.372-0.039,0.559c-0.021,0.333-0.052,0.664-0.075,0.995c-0.016,0.178-0.026,0.351-0.043,0.527
	c-0.034,0.437-0.067,0.872-0.103,1.305c-0.496,5.988-0.694,11.987-0.961,17.987c-0.077,1.758-0.152,3.514-0.23,5.271
	c0,0.806,0.008,1.611,0.021,2.418c-0.26,2.16-0.457,4.33-0.618,6.502c-0.347,4.6-0.479,9.205-0.466,13.814
	c0.014,4.438,0.148,8.888,0.438,13.316c0.118,1.803,0.25,3.602,0.332,5.406C171.564,183.605,169.13,188.264,165.721,191.807z
	 M162.938,194.271c-0.058,0.049-0.119,0.096-0.183,0.139c-0.069-0.076-0.144-0.157-0.214-0.233
	C162.673,194.211,162.809,194.246,162.938,194.271z M173.717,163.717c0.039,1.473,0.077,2.939,0.11,4.407
	c0.212,2.099,0.336,4.208,0.131,6.26c-0.004-0.082-0.01-0.161-0.019-0.245c-0.306-4.447-0.543-8.9-0.631-13.359
	c-0.09-4.446-0.035-8.9,0.146-13.346c0.026,0.582,0.051,1.164,0.08,1.746c0.026,0.625,0.053,1.256,0.077,1.885h0.002
	C173.792,155.277,173.925,159.507,173.717,163.717z M178.238,144.088c0.771-1.172,1.507-2.384,2.193-3.598
	c0.174,0.854,0.303,1.713,0.383,2.564c0.299,3.165-0.14,6.678-1.715,9.519C178.701,149.755,178.414,146.924,178.238,144.088z
	 M178.127,141.98c-0.107-2.524-0.133-5.059-0.063-7.598c0.957,1.514,1.644,3.215,2.102,4.963
	C179.518,140.236,178.809,141.102,178.127,141.98z M120.177,11.25c-7.343,0.599-15.329,3.858-20.087,9.729
	c3.192-5.87,9.592-9.26,16.383-10.048c2.96-0.343,5.993-0.243,8.925,0.333C123.666,11.102,121.913,11.108,120.177,11.25z
	 M100.571,24.114c0.164-0.106,0.327-0.202,0.472-0.288c-0.709,0.935-1.37,1.934-1.943,2.979
	C99.483,25.87,99.969,24.967,100.571,24.114z M101.885,48.287c0.365-0.54,1.141-0.869,1.84-0.58
	c-0.358,0.306-0.712,0.624-1.078,0.912c-0.831,0.658-1.696,1.272-2.569,1.878C98.3,51.729,96.45,52.86,94.61,54
	c-1.485,0.919-2.965,1.865-4.419,2.852c2.362-2.154,4.797-4.259,7.336-6.169c0.484-0.361,0.966-0.721,1.45-1.084
	c0.534-0.263,1.056-0.549,1.572-0.854c0.24-0.141,0.479-0.282,0.719-0.423C101.471,48.303,101.676,48.289,101.885,48.287z
	 M75.056,68.729c0.121-0.192,0.245-0.388,0.372-0.578c0.732-1.104,1.54-2.152,2.408-3.151
	C76.886,66.237,75.946,67.477,75.056,68.729z M182.314,82.733c0.23,1.264,0.326,2.546,0.308,3.824
	c-0.147-2.202-0.552-4.387-1.039-6.538c-0.125-0.562-0.265-1.126-0.414-1.688C181.658,79.768,182.043,81.237,182.314,82.733z
	 M180.085,81.839c-0.065-0.246-0.134-0.493-0.202-0.737c0.014-0.083,0.029-0.164,0.037-0.245
	C179.977,81.185,180.032,81.512,180.085,81.839z M157.186,51.224c0.801,0.39,1.59,0.813,2.365,1.259
	c-0.591-0.283-1.197-0.533-1.822-0.746c-0.129-0.079-0.261-0.162-0.393-0.238c-0.646-0.385-1.298-0.749-1.945-1.104
	C155.994,50.659,156.592,50.935,157.186,51.224z M151.673,34.989c0.056,0.894,0.033,1.789-0.05,2.673
	c-0.002-0.679-0.033-1.354-0.09-2.032c-0.412-1.806-0.86-3.542-1.41-5.243c-0.424-1.31-0.966-2.558-1.604-3.739
	C150.529,28.861,151.502,32.14,151.673,34.989z M147.063,16.778c0.689,1.812,0.438,3.483-0.275,5.053
	c-0.227-0.511-0.475-1.012-0.736-1.507c0.18-0.995,0.229-2.021,0.225-2.898c-0.006-1.051-0.149-2.098-0.439-3.107
	C146.318,15.108,146.74,15.929,147.063,16.778z M135.807,5.314c0.452,0.185,0.899,0.392,1.338,0.614
	c-4.359-1.741-9.297-2.349-14.104-2.146C127.346,3.256,131.727,3.651,135.807,5.314z M112.722,6.788
	c6.709-1.166,13.833-1.365,20.428,0.435c3.082,0.841,6.107,2.102,8.338,4.461c1.296,1.368,1.923,3.083,2.074,4.873
	c-0.478-0.595-0.979-1.165-1.5-1.703c-3.412-3.523-7.957-5.881-12.608-7.309c-6.021-1.844-12.607-1.901-18.51,0.131
	C111.529,7.362,112.124,7.066,112.722,6.788z M100.153,19.168c4.752-7.926,14.049-11.096,22.92-10.213
	c4.979,0.492,10.12,2.323,14.165,5.295c1.984,1.458,3.719,3.193,5.121,5.199c-0.715-0.557-1.467-1.08-2.25-1.562
	c-0.867-0.997-1.799-1.922-2.793-2.8c-1.826-1.613-3.979-2.861-6.209-3.817c-3.709-1.595-7.813-2.116-11.819-1.983
	c-7.875,0.261-16.263,3.878-19.858,11.251c-0.434,0.886-0.751,1.833-0.986,2.796c-0.025,0.043-0.054,0.087-0.082,0.13
	c-0.275,0.475-0.525,0.958-0.748,1.453C98.226,22.875,99.1,20.921,100.153,19.168z M89.985,51.833
	c-0.015,0.009-0.028,0.018-0.04,0.027c-0.307-0.092-0.591-0.217-0.848-0.374C89.374,51.636,89.67,51.755,89.985,51.833z
	 M88.108,53.121c-0.272,0.189-0.547,0.377-0.819,0.567c-0.115-0.501-0.222-1.003-0.317-1.507
	C87.307,52.553,87.687,52.87,88.108,53.121z M82.56,58.381c0.242-0.191,0.49-0.375,0.738-0.563c-0.09,0.081-0.182,0.161-0.277,0.242
	c-0.091,0.135-0.185,0.27-0.279,0.405c-0.384,0.18-0.755,0.4-1.114,0.647C81.943,58.865,82.25,58.62,82.56,58.381z M68.717,72.897
	c-0.774,1.402-1.479,2.842-2.089,4.31c-0.195,0.46-0.374,0.924-0.541,1.391C66.746,76.594,67.642,74.698,68.717,72.897z
	 M65.977,94.873c-0.074-0.245-0.14-0.493-0.207-0.738c0.07,0.177,0.142,0.354,0.222,0.529
	C65.982,94.732,65.979,94.804,65.977,94.873z M66.643,92.413c-0.024,0.048-0.043,0.106-0.048,0.167
	c-0.012,0.11-0.02,0.222-0.032,0.33c-0.161-0.453-0.31-0.913-0.432-1.376c-0.418-1.562-0.569-3.196-0.546-4.809
	c0.051-3.372,0.986-6.708,2.247-9.811c2.509-6.152,6.758-11.826,11.793-16.138c0.037-0.029,0.061-0.064,0.078-0.097
	c0.184-0.153,0.369-0.305,0.551-0.457c-0.625,0.569-1.213,1.175-1.786,1.733c-1.526,1.493-2.932,3.12-4.112,4.898
	c-2.346,3.532-4.177,7.4-5.466,11.434C67.435,82.841,66.631,87.63,66.643,92.413z M68.353,104.576
	c0.095,0.414,0.184,0.828,0.269,1.245c-0.298-0.823-0.588-1.647-0.859-2.482C67.956,103.75,68.153,104.163,68.353,104.576z
	 M65.348,147.654c-0.801-3.051-1.036-6.604-0.048-9.637c0.826-2.524,2.159-4.983,3.767-7.093c0.493-0.646,1.372-1.854,2.267-1.974
	c0.207-0.031,0.372,0.119,0.505,0.344c0.003,0.169,0.005,0.338,0.009,0.51c-0.036,0.028-0.07,0.065-0.103,0.102
	c-2.077,2.429-3.434,5.597-4.248,8.771c-0.149,0.026-0.277,0.173-0.229,0.349c0.021,0.089,0.048,0.179,0.077,0.268
	c-0.195,0.834-0.357,1.667-0.486,2.484c-0.437,2.828-0.356,6.986,1.88,9.188c0.373,0.681,0.805,1.325,1.293,1.905
	c-0.155,0.84-0.317,1.686-0.477,2.525C67.5,153.27,66.112,150.57,65.348,147.654z"/>
<path fill="#FFD800" d="M137.088,126.691c-0.912,1.688-1.264,3.549-1.25,5.455c0.002,0.354,0.02,0.824,0.082,1.332
	c0.295,0.89,0.596,1.776,0.896,2.664c0.195,0.231,0.425,0.41,0.697,0.504c0.217,0.076,0.432-0.119,0.439-0.33
	c0.025-0.681-0.479-1.332-0.697-1.973c-0.271-0.8-0.359-1.668-0.402-2.508c-0.082-1.646,0.239-3.359,0.867-4.88
	C137.874,126.594,137.271,126.35,137.088,126.691z"/>
<path fill="#FFD800" d="M119.803,129.686c0.145,0.89,0.162,1.795,0.109,2.693c-0.044,0.834-0.316,1.626-0.203,2.46
	c0.01,0.095,0.06,0.159,0.123,0.204c0.402-1.251,0.766-2.511,1.076-3.789c-0.038-0.436-0.093-0.855-0.147-1.229
	c-0.259-1.818-0.93-3.485-1.924-5.015c-0.105-0.158-0.315,0.01-0.262,0.164C119.079,126.645,119.552,128.146,119.803,129.686z"/>
<path fill="#FFD800" d="M162.9,123.089c0.945-0.564,2.067-1.016,2.889-1.768c0.865-0.333,1.591-0.816,1.835-1.553
	c0.037-0.104,0.015-0.562-0.163-0.583c-0.291-0.032-0.497-0.063-0.668-0.077c-0.139-0.124-0.33-0.201-0.585-0.182
	c-5.01,0.377-9.993,1.272-14.708,3.045c-4.568,1.718-8.949,4.317-11.727,8.439c-0.049,0.078-0.063,0.152-0.053,0.222
	c-0.004,0.007-0.006,0.011-0.012,0.019c-0.048,0.072-0.059,0.156-0.041,0.23c-0.137,0.1-0.042,0.348,0.143,0.361
	c2.75,0.156,5.439-0.514,8.139-0.938c2.354-0.373,4.639-1.199,6.777-2.242c1.899-0.924,3.662-2.104,5.435-3.25
	C161.068,124.226,161.977,123.646,162.9,123.089z M151.895,124.731c-0.611,0.796-1.623,1.438-2.237,0.824
	C150.396,125.258,151.141,124.987,151.895,124.731z M147.963,128.764c-2.007,0.447-3.988,1.006-5.979,1.521
	c0.27-0.336,0.563-0.655,0.867-0.958c1.073-0.775,2.151-1.548,3.336-2.172c0.074-0.041,0.148-0.079,0.229-0.118
	c0,0.002,0,0.006,0,0.008c0.102,0.48,0.436,0.816,0.84,1.063c0.424,0.254,0.905,0.408,1.408,0.488
	C148.434,128.654,148.197,128.713,147.963,128.764z M151.048,127.124c-0.649,0.194-3.448,0.612-3.655-0.575
	c0.474-0.229,0.953-0.441,1.438-0.648c0.338,0.836,1.313,1.115,2.313,0.817c1.125-0.334,2.115-1.354,2.373-2.499
	c0.055-0.015,0.113-0.033,0.168-0.05C153.591,125.65,152.668,126.631,151.048,127.124z M154.669,126.215
	c0.427-0.718,0.646-1.561,0.589-2.484c1.088-0.29,2.186-0.558,3.278-0.829c0.601-0.152,1.207-0.302,1.812-0.456
	c0.141-0.024,0.277-0.045,0.418-0.068c-0.406,0.275-0.797,0.546-1.172,0.791C157.975,124.219,156.357,125.276,154.669,126.215z"/>
<path fill="#FFD800" d="M170.688,93.349c0.119-0.403-0.031-0.879-0.359-1.137c-1.354-1.06-3.893-0.024-5.311,0.438
	c-1.522,0.499-3.016,1.169-4.43,1.92c-1.084,0.569-2.113,1.255-3.132,1.931c-3.015,2.013-5.903,4.246-8.656,6.603
	c-1.522,1.303-3.005,2.668-4.403,4.111c-1.297,1.123-2.521,2.337-3.631,3.641c-2.64,3.101-4.705,7.224-3.295,11.331
	c0.086,0.251,0.288,0.439,0.568,0.441c0.359,0.005,0.585-0.049,0.734-0.145c0.302,0.046,0.625-0.045,0.877-0.276
	c0.494-0.459,0.789-1.151,1.232-1.674c0.456-0.531,0.967-1.004,1.484-1.471c1.057-0.956,2.201-1.817,3.357-2.65
	c2.709-1.962,5.635-3.664,8.569-5.257c2.784-1.508,5.624-2.908,8.562-4.086c0.59-0.239,1.186-0.462,1.783-0.675
	c0.563-0.202,1.146-0.388,1.504-0.486c0.473-0.13,0.949-0.242,1.438-0.324c0.181-0.031,0.362-0.053,0.548-0.072
	c-0.684,0.066,0.548-0.084,0.646-0.145c0.148-0.092,0.299-0.17,0.463-0.244c0.352-0.156,0.625-0.541,0.713-0.946
	c0.146-0.104,0.268-0.266,0.342-0.486c0.719-2.179,1.208-4.405,1.216-6.712c0.005-0.997-0.091-2.021-0.454-2.955
	C170.95,93.753,170.828,93.534,170.688,93.349z M145.041,111.013c-0.305,0.283-0.613,0.569-0.918,0.854
	c0.37-0.421,0.751-0.831,1.145-1.234C145.188,110.758,145.111,110.885,145.041,111.013z M169.464,94.354
	c0.021-0.007,0.039-0.01,0.062-0.018c0.033,0.154,0.063,0.309,0.082,0.462C169.563,94.651,169.518,94.502,169.464,94.354z"/>
<path fill="#FFD800" d="M163.5,115.08c1.063,0.348,2.063,0.875,2.941,1.569c0.9,0.711,1.428,1.66,2.023,2.618
	c0.077,0.135,0.268,0.026,0.26-0.11c-0.229-2.437-3.002-3.967-5.191-4.229C163.447,114.917,163.415,115.05,163.5,115.08z"/>
<path fill="#FFD800" d="M169.689,119.48c0.053,0.201,0.338,0.166,0.416,0.006c0.912-1.961-0.651-4.146-2.277-5.176
	c-0.271-0.173-0.586,0.283-0.318,0.468c0.719,0.5,1.268,1.082,1.62,1.885C169.523,117.558,169.443,118.558,169.689,119.48z"/>
<path fill="#FFD800" d="M168.602,120.845c-0.709,1.342-1.199,2.755-2.104,3.994c-0.849,1.156-1.974,2.103-3.315,2.613
	c-0.382,0.147-0.131,0.717,0.254,0.585c2.736-0.958,5.567-4.115,5.582-7.119C169.016,120.685,168.695,120.669,168.602,120.845z"/>
<path fill="#FFD800" d="M114.333,131.379c0.015-0.074,0.003-0.152-0.045-0.229c-0.001-0.006-0.005-0.012-0.01-0.017
	c0.01-0.071-0.003-0.146-0.055-0.222c-2.774-4.12-7.153-6.722-11.725-8.438c-4.714-1.774-9.696-2.671-14.704-3.047
	c-0.256-0.021-0.447,0.056-0.585,0.183c-0.17,0.013-0.377,0.045-0.671,0.079c-0.173,0.019-0.197,0.475-0.162,0.583
	c0.247,0.734,0.969,1.214,1.84,1.551c0.818,0.749,1.938,1.202,2.885,1.767c0.925,0.557,1.835,1.135,2.738,1.724
	c1.77,1.146,3.534,2.325,5.433,3.252c2.142,1.039,4.423,1.867,6.781,2.238c2.696,0.426,5.386,1.096,8.137,0.937
	C114.376,131.73,114.468,131.48,114.333,131.379z M104.342,126.055c-0.614,0.613-1.626-0.025-2.235-0.821
	C102.859,125.486,103.608,125.759,104.342,126.055z M94.408,123.668c-0.375-0.245-0.767-0.515-1.173-0.791
	c0.143,0.024,0.281,0.047,0.419,0.069c0.603,0.156,1.206,0.306,1.811,0.456c1.091,0.27,2.188,0.54,3.28,0.829
	c-0.059,0.92,0.162,1.764,0.585,2.481C97.644,125.775,96.028,124.719,94.408,123.668z M102.954,127.623
	c-1.622-0.491-2.543-1.475-2.636-2.955c0.057,0.017,0.113,0.034,0.167,0.052c0.259,1.143,1.253,2.164,2.373,2.498
	c1.001,0.298,1.977,0.019,2.316-0.817c0.48,0.207,0.962,0.422,1.435,0.648C106.403,128.234,103.6,127.82,102.954,127.623z
	 M106.036,129.266c-0.235-0.055-0.468-0.108-0.7-0.17c0.504-0.082,0.986-0.231,1.408-0.488c0.404-0.246,0.74-0.58,0.839-1.062
	c0.003-0.004,0-0.006,0.003-0.01c0.077,0.041,0.152,0.08,0.227,0.118c1.183,0.625,2.261,1.396,3.335,2.17
	c0.307,0.306,0.597,0.624,0.866,0.964C110.025,130.268,108.045,129.714,106.036,129.266z"/>
<path fill="#FFD800" d="M82.65,106.462c0.086,0.219,0.216,0.368,0.372,0.465c0.109,0.399,0.407,0.766,0.766,0.903
	c0.165,0.064,0.32,0.134,0.477,0.218c0.101,0.056,1.34,0.132,0.654,0.106c0.184,0.008,0.367,0.018,0.549,0.039
	c0.489,0.052,0.978,0.134,1.457,0.236c0.362,0.081,0.951,0.229,1.528,0.397c0.609,0.178,1.217,0.367,1.817,0.569
	c3.003,1.003,5.922,2.233,8.788,3.57c3.025,1.42,6.048,2.948,8.87,4.746c1.2,0.765,2.395,1.556,3.507,2.447
	c0.545,0.436,1.081,0.876,1.569,1.38c0.472,0.496,0.809,1.167,1.331,1.596c0.264,0.217,0.592,0.29,0.888,0.226
	c0.155,0.086,0.384,0.128,0.744,0.101c0.278-0.018,0.474-0.218,0.544-0.475c1.161-4.184-1.143-8.175-3.962-11.116
	c-1.188-1.235-2.477-2.374-3.837-3.42c-1.484-1.356-3.044-2.634-4.639-3.844c-2.887-2.189-5.905-4.249-9.033-6.078
	c-1.056-0.619-2.124-1.241-3.239-1.746c-1.458-0.66-2.988-1.244-4.535-1.654c-1.442-0.379-4.04-1.261-5.323-0.125
	c-0.317,0.28-0.438,0.763-0.299,1.157c-0.127,0.193-0.237,0.421-0.325,0.699c-0.308,0.951-0.343,1.981-0.281,2.976
	C81.184,102.138,81.804,104.33,82.65,106.462z M109.256,113.076c-0.322-0.265-0.641-0.532-0.965-0.798
	c-0.082-0.125-0.164-0.244-0.247-0.366C108.457,112.292,108.862,112.679,109.256,113.076z M82.865,97.077
	c0.021,0.008,0.039,0.011,0.062,0.014c-0.045,0.152-0.085,0.304-0.117,0.454C82.826,97.39,82.841,97.234,82.865,97.077z"/>
<path fill="#FFD800" d="M85.537,119.769c0.591-0.962,1.122-1.907,2.024-2.621c0.879-0.694,1.88-1.221,2.938-1.571
	c0.087-0.027,0.057-0.16-0.031-0.149c-2.192,0.263-4.96,1.796-5.19,4.232C85.265,119.791,85.457,119.901,85.537,119.769z"/>
<path fill="#FFD800" d="M86.172,114.811c-1.627,1.03-3.188,3.216-2.272,5.176c0.072,0.158,0.358,0.197,0.413-0.005
	c0.247-0.922,0.165-1.924,0.56-2.818c0.354-0.804,0.903-1.382,1.62-1.885C86.755,115.094,86.446,114.638,86.172,114.811z"/>
<path fill="#FFD800" d="M90.821,127.954c-1.343-0.513-2.471-1.459-3.315-2.616c-0.908-1.237-1.399-2.652-2.107-3.993
	c-0.092-0.178-0.411-0.162-0.411,0.072c0.01,3.005,2.843,6.164,5.58,7.119C90.949,128.671,91.203,128.102,90.821,127.954z"/>
<path fill="#FFD800" d="M148.407,132.146c-1.177-0.254-2.509-0.07-3.706-0.051c-1.127,0.02-2.242,0.168-3.363,0.223
	c-0.049,0.005-0.043,0.076,0.003,0.078c1.116,0.057,2.226,0.162,3.343,0.224c1.18,0.062,2.551,0.202,3.707-0.047
	C148.617,132.523,148.664,132.198,148.407,132.146z"/>
<path fill="#FFD800" d="M111.517,133.059c-1.769-0.274-3.534-0.229-5.229-0.89c-0.25-0.095-0.424,0.247-0.183,0.377
	c1.693,0.915,3.514,1.164,5.409,0.871C111.692,133.391,111.697,133.086,111.517,133.059z"/>
<path fill="#FFD800" d="M83.371,162.232c-0.849-3.371-1.989-6.655-3.337-9.854c-1.118-2.644-2.476-5.683-4.563-7.708
	c-0.258-0.251-0.688-0.01-0.544,0.342c1.058,2.563,2.356,5.021,3.402,7.598c1.3,3.209,2.334,6.548,3.167,9.906
	c0.819,3.311,1.365,6.697,1.53,10.107c0.14,2.885-0.209,5.557-0.896,8.346c-0.319,1.307,1.486,2.053,1.999,0.746
	c1.081-2.765,1.104-6.007,0.96-8.925C84.918,169.223,84.237,165.689,83.371,162.232z"/>
<path fill="#FFD800" d="M170.047,143.096c-4.503,5.868-4.631,13.588-5.488,20.603c-0.367,3.007-0.742,6.017-0.719,9.053
	c0.012,1.521,0.135,3.062,0.506,4.544c0.301,1.2,0.844,2.865,2.148,3.219c0.552,0.149,0.609-0.58,0.816-0.601
	c0.314-0.034-0.633-1.593-0.709-1.74c-0.248-0.481-0.395-1.004-0.531-1.524c-0.385-1.483-0.449-3.059-0.455-4.582
	c-0.002-2.672,0.313-5.332,0.605-7.978c0.777-7.016,0.928-14.252,4.459-20.589C170.889,143.124,170.305,142.759,170.047,143.096z"/>
<path fill="#FFD800" d="M139.05,130.438c1.042-2.062,2.411-3.928,4-5.596c0.817-0.858,1.705-1.649,2.612-2.412
	c0.977-0.822,2.244-1.494,3.068-2.462c0.107-0.129,0-0.396-0.194-0.318c-0.987,0.405-1.865,1.279-2.687,1.949
	c-1.006,0.819-1.964,1.695-2.869,2.619c-1.75,1.784-3.215,3.796-4.185,6.107C138.729,130.491,138.971,130.596,139.05,130.438z"/>
<path fill="#FFD800" d="M105.198,121.28c-0.406-0.08-0.628,0.531-0.205,0.63c4.585,1.06,7.45,4.279,9.831,8.117
	c0.102,0.162,0.384,0.074,0.331-0.127C113.943,125.468,109.58,122.14,105.198,121.28z"/>
<path fill="#FFD800" d="M133.557,196.723c-1.199-0.809-3.104-0.257-4.447-0.029c-1.815,0.31-3.63,0.584-5.452,0.854
	c-0.597,0.09-0.44,0.926,0.092,0.991c1.689,0.208,3.417-0.041,5.101-0.21c0.912-0.096,1.828-0.189,2.744-0.255
	c0.741-0.052,1.348-0.038,1.957-0.474C133.828,197.402,133.852,196.919,133.557,196.723z"/>
</svg>
